<svg width="133" height="200" viewBox="0 0 133 200" fill="none" xmlns="http://www.w3.org/2000/svg">
<path d="M131.8 68.8C132.5 68.8 133 69.4001 133 70.1001C133 70.8001 132.5 71.4 131.8 71.4C131.1 71.4 130.5 70.8001 130.5 70.1001C130.5 69.4001 131.1 68.8 131.8 68.8Z" fill="#0A165E" fill-opacity="0.2"/>
<path d="M131.8 80.5C132.5 80.5 133 81 133 81.7C133 82.4 132.5 83 131.8 83C131.1 83 130.5 82.4 130.5 81.7C130.5 81 131.1 80.5 131.8 80.5Z" fill="#0A165E" fill-opacity="0.2"/>
<path d="M117.4 68.8C118.1 68.8 118.6 69.4001 118.6 70.1001C118.6 70.8001 118.1 71.4 117.4 71.4C116.7 71.4 116.1 70.8001 116.1 70.1001C116.1 69.4001 116.7 68.8 117.4 68.8Z" fill="#0A165E" fill-opacity="0.2"/>
<path d="M117.4 80.5C118.1 80.5 118.6 81 118.6 81.7C118.6 82.4 118.1 83 117.4 83C116.7 83 116.1 82.4 116.1 81.7C116.1 81 116.7 80.5 117.4 80.5Z" fill="#0A165E" fill-opacity="0.2"/>
<path d="M103 68.8C103.7 68.8 104.2 69.4001 104.2 70.1001C104.2 70.8001 103.7 71.4 103 71.4C102.3 71.4 101.7 70.8001 101.7 70.1001C101.7 69.4001 102.3 68.8 103 68.8Z" fill="#0A165E" fill-opacity="0.2"/>
<path d="M103 80.5C103.7 80.5 104.2 81 104.2 81.7C104.2 82.4 103.7 83 103 83C102.3 83 101.7 82.4 101.7 81.7C101.7 81 102.3 80.5 103 80.5Z" fill="#0A165E" fill-opacity="0.2"/>
<path d="M88.5999 68.8C89.2999 68.8 89.8999 69.4001 89.8999 70.1001C89.8999 70.8001 89.2999 71.4 88.5999 71.4C87.8999 71.4 87.2999 70.8001 87.2999 70.1001C87.2999 69.4001 87.8999 68.8 88.5999 68.8Z" fill="#0A165E" fill-opacity="0.2"/>
<path d="M88.5999 80.5C89.2999 80.5 89.8999 81 89.8999 81.7C89.8999 82.4 89.2999 83 88.5999 83C87.8999 83 87.2999 82.4 87.2999 81.7C87.2999 81 87.8999 80.5 88.5999 80.5Z" fill="#0A165E" fill-opacity="0.2"/>
<path d="M74.2 68.8C74.9 68.8 75.5 69.4001 75.5 70.1001C75.5 70.8001 74.9 71.4 74.2 71.4C73.5 71.4 72.9 70.8001 72.9 70.1001C72.9 69.4001 73.5 68.8 74.2 68.8Z" fill="#0A165E" fill-opacity="0.2"/>
<path d="M74.2 80.5C74.9 80.5 75.5 81 75.5 81.7C75.5 82.4 74.9 83 74.2 83C73.5 83 72.9 82.4 72.9 81.7C72.9 81 73.5 80.5 74.2 80.5Z" fill="#0A165E" fill-opacity="0.2"/>
<path d="M59.0001 138.8C59.7001 138.8 60.3 139.4 60.3 140.1C60.3 140.8 59.7001 141.4 59.0001 141.4C58.3001 141.4 57.8 140.8 57.8 140.1C57.8 139.4 58.3001 138.8 59.0001 138.8Z" fill="#0A165E" fill-opacity="0.2"/>
<path d="M59.0001 150.5C59.7001 150.5 60.3 151.1 60.3 151.8C60.3 152.5 59.7001 153.1 59.0001 153.1C58.3001 153.1 57.8 152.5 57.8 151.8C57.8 151.1 58.3001 150.5 59.0001 150.5Z" fill="#0A165E" fill-opacity="0.2"/>
<path d="M59.0001 162.2C59.7001 162.2 60.3 162.7 60.3 163.4C60.3 164.1 59.7001 164.7 59.0001 164.7C58.3001 164.7 57.8 164.1 57.8 163.4C57.8 162.7 58.3001 162.2 59.0001 162.2Z" fill="#0A165E" fill-opacity="0.2"/>
<path d="M59.0001 173.8C59.7001 173.8 60.3 174.4 60.3 175.1C60.3 175.8 59.7001 176.4 59.0001 176.4C58.3001 176.4 57.8 175.8 57.8 175.1C57.8 174.4 58.3001 173.8 59.0001 173.8Z" fill="#0A165E" fill-opacity="0.2"/>
<path d="M59.0001 185.5C59.7001 185.5 60.3 186 60.3 186.8C60.3 187.5 59.7001 188 59.0001 188C58.3001 188 57.8 187.5 57.8 186.8C57.8 186 58.3001 185.5 59.0001 185.5Z" fill="#0A165E" fill-opacity="0.2"/>
<path d="M59.0001 197.1C59.7001 197.1 60.3 197.7 60.3 198.4C60.3 199.1 59.7001 199.7 59.0001 199.7C58.3001 199.7 57.8 199.1 57.8 198.4C57.8 197.7 58.3001 197.1 59.0001 197.1Z" fill="#0A165E" fill-opacity="0.2"/>
<path d="M44.5999 138.8C45.2999 138.8 45.8999 139.4 45.8999 140.1C45.8999 140.8 45.2999 141.4 44.5999 141.4C43.8999 141.4 43.3999 140.8 43.3999 140.1C43.3999 139.4 43.8999 138.8 44.5999 138.8Z" fill="#0A165E" fill-opacity="0.2"/>
<path d="M44.5999 150.5C45.2999 150.5 45.8999 151.1 45.8999 151.8C45.8999 152.5 45.2999 153.1 44.5999 153.1C43.8999 153.1 43.3999 152.5 43.3999 151.8C43.3999 151.1 43.8999 150.5 44.5999 150.5Z" fill="#0A165E" fill-opacity="0.2"/>
<path d="M44.5999 162.2C45.2999 162.2 45.8999 162.7 45.8999 163.4C45.8999 164.1 45.2999 164.7 44.5999 164.7C43.8999 164.7 43.3999 164.1 43.3999 163.4C43.3999 162.7 43.8999 162.2 44.5999 162.2Z" fill="#0A165E" fill-opacity="0.2"/>
<path d="M44.5999 173.8C45.2999 173.8 45.8999 174.4 45.8999 175.1C45.8999 175.8 45.2999 176.4 44.5999 176.4C43.8999 176.4 43.3999 175.8 43.3999 175.1C43.3999 174.4 43.8999 173.8 44.5999 173.8Z" fill="#0A165E" fill-opacity="0.2"/>
<path d="M44.5999 185.5C45.2999 185.5 45.8999 186 45.8999 186.8C45.8999 187.5 45.2999 188 44.5999 188C43.8999 188 43.3999 187.5 43.3999 186.8C43.3999 186 43.8999 185.5 44.5999 185.5Z" fill="#0A165E" fill-opacity="0.2"/>
<path d="M44.5999 197.1C45.2999 197.1 45.8999 197.7 45.8999 198.4C45.8999 199.1 45.2999 199.7 44.5999 199.7C43.8999 199.7 43.3999 199.1 43.3999 198.4C43.3999 197.7 43.8999 197.1 44.5999 197.1Z" fill="#0A165E" fill-opacity="0.2"/>
<path d="M30.3 173.8C31 173.8 31.5 174.4 31.5 175.1C31.5 175.8 31 176.4 30.3 176.4C29.6 176.4 29 175.8 29 175.1C29 174.4 29.6 173.8 30.3 173.8Z" fill="#0A165E" fill-opacity="0.2"/>
<path d="M30.3 185.5C31 185.5 31.5 186 31.5 186.8C31.5 187.5 31 188 30.3 188C29.6 188 29 187.5 29 186.8C29 186 29.6 185.5 30.3 185.5Z" fill="#0A165E" fill-opacity="0.2"/>
<path d="M30.3 197.1C31 197.1 31.5 197.7 31.5 198.4C31.5 199.1 31 199.7 30.3 199.7C29.6 199.7 29 199.1 29 198.4C29 197.7 29.6 197.1 30.3 197.1Z" fill="#0A165E" fill-opacity="0.2"/>
<path d="M15.9001 173.8C16.6001 173.8 17.1001 174.4 17.1001 175.1C17.1001 175.8 16.6001 176.4 15.9001 176.4C15.2001 176.4 14.6001 175.8 14.6001 175.1C14.6001 174.4 15.2001 173.8 15.9001 173.8Z" fill="#0A165E" fill-opacity="0.2"/>
<path d="M15.9001 185.5C16.6001 185.5 17.1001 186 17.1001 186.8C17.1001 187.5 16.6001 188 15.9001 188C15.2001 188 14.6001 187.5 14.6001 186.8C14.6001 186 15.2001 185.5 15.9001 185.5Z" fill="#0A165E" fill-opacity="0.2"/>
<path d="M15.9001 197.1C16.6001 197.1 17.1001 197.7 17.1001 198.4C17.1001 199.1 16.6001 199.7 15.9001 199.7C15.2001 199.7 14.6001 199.1 14.6001 198.4C14.6001 197.7 15.2001 197.1 15.9001 197.1Z" fill="#0A165E" fill-opacity="0.2"/>
<path d="M1.49994 173.8C2.19994 173.8 2.69995 174.4 2.69995 175.1C2.69995 175.8 2.19994 176.4 1.49994 176.4C0.799939 176.4 0.199951 175.8 0.199951 175.1C0.199951 174.4 0.799939 173.8 1.49994 173.8Z" fill="#0A165E" fill-opacity="0.2"/>
<path d="M1.49994 185.5C2.19994 185.5 2.69995 186 2.69995 186.8C2.69995 187.5 2.19994 188 1.49994 188C0.799939 188 0.199951 187.5 0.199951 186.8C0.199951 186 0.799939 185.5 1.49994 185.5Z" fill="#0A165E" fill-opacity="0.2"/>
<path d="M1.49994 197.1C2.19994 197.1 2.69995 197.7 2.69995 198.4C2.69995 199.1 2.19994 199.7 1.49994 199.7C0.799939 199.7 0.199951 199.1 0.199951 198.4C0.199951 197.7 0.799939 197.1 1.49994 197.1Z" fill="#0A165E" fill-opacity="0.2"/>
<path d="M59.0001 68.8C59.7001 68.8 60.3 69.4001 60.3 70.1001C60.3 70.8001 59.7001 71.4 59.0001 71.4C58.3001 71.4 57.8 70.8001 57.8 70.1001C57.8 69.4001 58.3001 68.8 59.0001 68.8Z" fill="#0A165E" fill-opacity="0.2"/>
<path d="M59.0001 80.5C59.7001 80.5 60.3 81 60.3 81.7C60.3 82.4 59.7001 83 59.0001 83C58.3001 83 57.8 82.4 57.8 81.7C57.8 81 58.3001 80.5 59.0001 80.5Z" fill="#0A165E" fill-opacity="0.2"/>
<path d="M59.0001 92.1C59.7001 92.1 60.3 92.7 60.3 93.4C60.3 94.1 59.7001 94.7 59.0001 94.7C58.3001 94.7 57.8 94.1 57.8 93.4C57.8 92.7 58.3001 92.1 59.0001 92.1Z" fill="#0A165E" fill-opacity="0.2"/>
<path d="M59.0001 103.8C59.7001 103.8 60.3 104.3 60.3 105.1C60.3 105.8 59.7001 106.3 59.0001 106.3C58.3001 106.3 57.8 105.8 57.8 105.1C57.8 104.3 58.3001 103.8 59.0001 103.8Z" fill="#0A165E" fill-opacity="0.2"/>
<path d="M59.0001 115.4C59.7001 115.4 60.3 116 60.3 116.7C60.3 117.4 59.7001 118 59.0001 118C58.3001 118 57.8 117.4 57.8 116.7C57.8 116 58.3001 115.4 59.0001 115.4Z" fill="#0A165E" fill-opacity="0.2"/>
<path d="M59.0001 127.1C59.7001 127.1 60.3 127.7 60.3 128.4C60.3 129.1 59.7001 129.7 59.0001 129.7C58.3001 129.7 57.8 129.1 57.8 128.4C57.8 127.7 58.3001 127.1 59.0001 127.1Z" fill="#0A165E" fill-opacity="0.2"/>
<path d="M44.5999 68.8C45.2999 68.8 45.8999 69.4001 45.8999 70.1001C45.8999 70.8001 45.2999 71.4 44.5999 71.4C43.8999 71.4 43.3999 70.8001 43.3999 70.1001C43.3999 69.4001 43.8999 68.8 44.5999 68.8Z" fill="#0A165E" fill-opacity="0.2"/>
<path d="M44.5999 80.5C45.2999 80.5 45.8999 81 45.8999 81.7C45.8999 82.4 45.2999 83 44.5999 83C43.8999 83 43.3999 82.4 43.3999 81.7C43.3999 81 43.8999 80.5 44.5999 80.5Z" fill="#0A165E" fill-opacity="0.2"/>
<path d="M44.5999 92.1C45.2999 92.1 45.8999 92.7 45.8999 93.4C45.8999 94.1 45.2999 94.7 44.5999 94.7C43.8999 94.7 43.3999 94.1 43.3999 93.4C43.3999 92.7 43.8999 92.1 44.5999 92.1Z" fill="#0A165E" fill-opacity="0.2"/>
<path d="M44.5999 103.8C45.2999 103.8 45.8999 104.3 45.8999 105.1C45.8999 105.8 45.2999 106.3 44.5999 106.3C43.8999 106.3 43.3999 105.8 43.3999 105.1C43.3999 104.3 43.8999 103.8 44.5999 103.8Z" fill="#0A165E" fill-opacity="0.2"/>
<path d="M44.5999 115.4C45.2999 115.4 45.8999 116 45.8999 116.7C45.8999 117.4 45.2999 118 44.5999 118C43.8999 118 43.3999 117.4 43.3999 116.7C43.3999 116 43.8999 115.4 44.5999 115.4Z" fill="#0A165E" fill-opacity="0.2"/>
<path d="M44.5999 127.1C45.2999 127.1 45.8999 127.7 45.8999 128.4C45.8999 129.1 45.2999 129.7 44.5999 129.7C43.8999 129.7 43.3999 129.1 43.3999 128.4C43.3999 127.7 43.8999 127.1 44.5999 127.1Z" fill="#0A165E" fill-opacity="0.2"/>
<path d="M30.3 68.8C31 68.8 31.5 69.4001 31.5 70.1001C31.5 70.8001 31 71.4 30.3 71.4C29.6 71.4 29 70.8001 29 70.1001C29 69.4001 29.6 68.8 30.3 68.8Z" fill="#0A165E" fill-opacity="0.2"/>
<path d="M30.3 80.5C31 80.5 31.5 81 31.5 81.7C31.5 82.4 31 83 30.3 83C29.6 83 29 82.4 29 81.7C29 81 29.6 80.5 30.3 80.5Z" fill="#0A165E" fill-opacity="0.2"/>
<path d="M30.3 92.1C31 92.1 31.5 92.7 31.5 93.4C31.5 94.1 31 94.7 30.3 94.7C29.6 94.7 29 94.1 29 93.4C29 92.7 29.6 92.1 30.3 92.1Z" fill="#0A165E" fill-opacity="0.2"/>
<path d="M30.3 103.8C31 103.8 31.5 104.3 31.5 105.1C31.5 105.8 31 106.3 30.3 106.3C29.6 106.3 29 105.8 29 105.1C29 104.3 29.6 103.8 30.3 103.8Z" fill="#0A165E" fill-opacity="0.2"/>
<path d="M15.9001 68.8C16.6001 68.8 17.1001 69.4001 17.1001 70.1001C17.1001 70.8001 16.6001 71.4 15.9001 71.4C15.2001 71.4 14.6001 70.8001 14.6001 70.1001C14.6001 69.4001 15.2001 68.8 15.9001 68.8Z" fill="#0A165E" fill-opacity="0.2"/>
<path d="M15.9001 80.5C16.6001 80.5 17.1001 81 17.1001 81.7C17.1001 82.4 16.6001 83 15.9001 83C15.2001 83 14.6001 82.4 14.6001 81.7C14.6001 81 15.2001 80.5 15.9001 80.5Z" fill="#0A165E" fill-opacity="0.2"/>
<path d="M15.9001 92.1C16.6001 92.1 17.1001 92.7 17.1001 93.4C17.1001 94.1 16.6001 94.7 15.9001 94.7C15.2001 94.7 14.6001 94.1 14.6001 93.4C14.6001 92.7 15.2001 92.1 15.9001 92.1Z" fill="#0A165E" fill-opacity="0.2"/>
<path d="M15.9001 103.8C16.6001 103.8 17.1001 104.3 17.1001 105.1C17.1001 105.8 16.6001 106.3 15.9001 106.3C15.2001 106.3 14.6001 105.8 14.6001 105.1C14.6001 104.3 15.2001 103.8 15.9001 103.8Z" fill="#0A165E" fill-opacity="0.2"/>
<path d="M1.49994 68.8C2.19994 68.8 2.69995 69.4001 2.69995 70.1001C2.69995 70.8001 2.19994 71.4 1.49994 71.4C0.799939 71.4 0.199951 70.8001 0.199951 70.1001C0.199951 69.4001 0.799939 68.8 1.49994 68.8Z" fill="#0A165E" fill-opacity="0.2"/>
<path d="M1.49994 80.5C2.19994 80.5 2.69995 81 2.69995 81.7C2.69995 82.4 2.19994 83 1.49994 83C0.799939 83 0.199951 82.4 0.199951 81.7C0.199951 81 0.799939 80.5 1.49994 80.5Z" fill="#0A165E" fill-opacity="0.2"/>
<path d="M1.49994 92.1C2.19994 92.1 2.69995 92.7 2.69995 93.4C2.69995 94.1 2.19994 94.7 1.49994 94.7C0.799939 94.7 0.199951 94.1 0.199951 93.4C0.199951 92.7 0.799939 92.1 1.49994 92.1Z" fill="#0A165E" fill-opacity="0.2"/>
<path d="M1.49994 103.8C2.19994 103.8 2.69995 104.3 2.69995 105.1C2.69995 105.8 2.19994 106.3 1.49994 106.3C0.799939 106.3 0.199951 105.8 0.199951 105.1C0.199951 104.3 0.799939 103.8 1.49994 103.8Z" fill="#0A165E" fill-opacity="0.2"/>
<path d="M131.8 46.7C132.5 46.7 133 47.1999 133 47.8999C133 48.6999 132.5 49.2 131.8 49.2C131.1 49.2 130.5 48.6999 130.5 47.8999C130.5 47.1999 131.1 46.7 131.8 46.7Z" fill="#0A165E" fill-opacity="0.2"/>
<path d="M131.8 58.3C132.5 58.3 133 58.9001 133 59.6001C133 60.3001 132.5 60.9 131.8 60.9C131.1 60.9 130.5 60.3001 130.5 59.6001C130.5 58.9001 131.1 58.3 131.8 58.3Z" fill="#0A165E" fill-opacity="0.2"/>
<path d="M117.4 46.7C118.1 46.7 118.6 47.1999 118.6 47.8999C118.6 48.6999 118.1 49.2 117.4 49.2C116.7 49.2 116.1 48.6999 116.1 47.8999C116.1 47.1999 116.7 46.7 117.4 46.7Z" fill="#0A165E" fill-opacity="0.2"/>
<path d="M117.4 58.3C118.1 58.3 118.6 58.9001 118.6 59.6001C118.6 60.3001 118.1 60.9 117.4 60.9C116.7 60.9 116.1 60.3001 116.1 59.6001C116.1 58.9001 116.7 58.3 117.4 58.3Z" fill="#0A165E" fill-opacity="0.2"/>
<path d="M103 46.7C103.7 46.7 104.2 47.1999 104.2 47.8999C104.2 48.6999 103.7 49.2 103 49.2C102.3 49.2 101.7 48.6999 101.7 47.8999C101.7 47.1999 102.3 46.7 103 46.7Z" fill="#0A165E" fill-opacity="0.2"/>
<path d="M103 58.3C103.7 58.3 104.2 58.9001 104.2 59.6001C104.2 60.3001 103.7 60.9 103 60.9C102.3 60.9 101.7 60.3001 101.7 59.6001C101.7 58.9001 102.3 58.3 103 58.3Z" fill="#0A165E" fill-opacity="0.2"/>
<path d="M88.5999 46.7C89.2999 46.7 89.8999 47.1999 89.8999 47.8999C89.8999 48.6999 89.2999 49.2 88.5999 49.2C87.8999 49.2 87.2999 48.6999 87.2999 47.8999C87.2999 47.1999 87.8999 46.7 88.5999 46.7Z" fill="#0A165E" fill-opacity="0.2"/>
<path d="M88.5999 58.3C89.2999 58.3 89.8999 58.9001 89.8999 59.6001C89.8999 60.3001 89.2999 60.9 88.5999 60.9C87.8999 60.9 87.2999 60.3001 87.2999 59.6001C87.2999 58.9001 87.8999 58.3 88.5999 58.3Z" fill="#0A165E" fill-opacity="0.2"/>
<path d="M74.2 0C74.9 0 75.5 0.600003 75.5 1.3C75.5 2 74.9 2.60001 74.2 2.60001C73.5 2.60001 72.9 2 72.9 1.3C72.9 0.600003 73.5 0 74.2 0Z" fill="#0A165E" fill-opacity="0.2"/>
<path d="M74.2 11.7C74.9 11.7 75.5 12.3 75.5 13C75.5 13.7 74.9 14.3 74.2 14.3C73.5 14.3 72.9 13.7 72.9 13C72.9 12.3 73.5 11.7 74.2 11.7Z" fill="#0A165E" fill-opacity="0.2"/>
<path d="M74.2 23.3C74.9 23.3 75.5 23.9001 75.5 24.6001C75.5 25.3001 74.9 25.9 74.2 25.9C73.5 25.9 72.9 25.3001 72.9 24.6001C72.9 23.9001 73.5 23.3 74.2 23.3Z" fill="#0A165E" fill-opacity="0.2"/>
<path d="M74.2 35C74.9 35 75.5 35.6 75.5 36.3C75.5 37 74.9 37.6 74.2 37.6C73.5 37.6 72.9 37 72.9 36.3C72.9 35.6 73.5 35 74.2 35Z" fill="#0A165E" fill-opacity="0.2"/>
<path d="M74.2 46.7C74.9 46.7 75.5 47.1999 75.5 47.8999C75.5 48.6999 74.9 49.2 74.2 49.2C73.5 49.2 72.9 48.6999 72.9 47.8999C72.9 47.1999 73.5 46.7 74.2 46.7Z" fill="#0A165E" fill-opacity="0.2"/>
<path d="M74.2 58.3C74.9 58.3 75.5 58.9001 75.5 59.6001C75.5 60.3001 74.9 60.9 74.2 60.9C73.5 60.9 72.9 60.3001 72.9 59.6001C72.9 58.9001 73.5 58.3 74.2 58.3Z" fill="#0A165E" fill-opacity="0.2"/>
<path d="M59.0001 0C59.7001 0 60.3 0.600003 60.3 1.3C60.3 2 59.7001 2.60001 59.0001 2.60001C58.3001 2.60001 57.8 2 57.8 1.3C57.8 0.600003 58.3001 0 59.0001 0Z" fill="#0A165E" fill-opacity="0.2"/>
<path d="M59.0001 11.7C59.7001 11.7 60.3 12.3 60.3 13C60.3 13.7 59.7001 14.3 59.0001 14.3C58.3001 14.3 57.8 13.7 57.8 13C57.8 12.3 58.3001 11.7 59.0001 11.7Z" fill="#0A165E" fill-opacity="0.2"/>
<path d="M59.0001 23.3C59.7001 23.3 60.3 23.9001 60.3 24.6001C60.3 25.3001 59.7001 25.9 59.0001 25.9C58.3001 25.9 57.8 25.3001 57.8 24.6001C57.8 23.9001 58.3001 23.3 59.0001 23.3Z" fill="#0A165E" fill-opacity="0.2"/>
<path d="M59.0001 35C59.7001 35 60.3 35.6 60.3 36.3C60.3 37 59.7001 37.6 59.0001 37.6C58.3001 37.6 57.8 37 57.8 36.3C57.8 35.6 58.3001 35 59.0001 35Z" fill="#0A165E" fill-opacity="0.2"/>
<path d="M59.0001 46.7C59.7001 46.7 60.3 47.1999 60.3 47.8999C60.3 48.6999 59.7001 49.2 59.0001 49.2C58.3001 49.2 57.8 48.6999 57.8 47.8999C57.8 47.1999 58.3001 46.7 59.0001 46.7Z" fill="#0A165E" fill-opacity="0.2"/>
<path d="M59.0001 58.3C59.7001 58.3 60.3 58.9001 60.3 59.6001C60.3 60.3001 59.7001 60.9 59.0001 60.9C58.3001 60.9 57.8 60.3001 57.8 59.6001C57.8 58.9001 58.3001 58.3 59.0001 58.3Z" fill="#0A165E" fill-opacity="0.2"/>
<path d="M44.5999 23.3C45.2999 23.3 45.8999 23.9001 45.8999 24.6001C45.8999 25.3001 45.2999 25.9 44.5999 25.9C43.8999 25.9 43.3999 25.3001 43.3999 24.6001C43.3999 23.9001 43.8999 23.3 44.5999 23.3Z" fill="#0A165E" fill-opacity="0.2"/>
<path d="M44.5999 35C45.2999 35 45.8999 35.6 45.8999 36.3C45.8999 37 45.2999 37.6 44.5999 37.6C43.8999 37.6 43.3999 37 43.3999 36.3C43.3999 35.6 43.8999 35 44.5999 35Z" fill="#0A165E" fill-opacity="0.2"/>
<path d="M44.5999 46.7C45.2999 46.7 45.8999 47.1999 45.8999 47.8999C45.8999 48.6999 45.2999 49.2 44.5999 49.2C43.8999 49.2 43.3999 48.6999 43.3999 47.8999C43.3999 47.1999 43.8999 46.7 44.5999 46.7Z" fill="#0A165E" fill-opacity="0.2"/>
<path d="M44.5999 58.3C45.2999 58.3 45.8999 58.9001 45.8999 59.6001C45.8999 60.3001 45.2999 60.9 44.5999 60.9C43.8999 60.9 43.3999 60.3001 43.3999 59.6001C43.3999 58.9001 43.8999 58.3 44.5999 58.3Z" fill="#0A165E" fill-opacity="0.2"/>
<path d="M30.3 23.3C31 23.3 31.5 23.9001 31.5 24.6001C31.5 25.3001 31 25.9 30.3 25.9C29.6 25.9 29 25.3001 29 24.6001C29 23.9001 29.6 23.3 30.3 23.3Z" fill="#0A165E" fill-opacity="0.2"/>
<path d="M30.3 35C31 35 31.5 35.6 31.5 36.3C31.5 37 31 37.6 30.3 37.6C29.6 37.6 29 37 29 36.3C29 35.6 29.6 35 30.3 35Z" fill="#0A165E" fill-opacity="0.2"/>
<path d="M30.3 46.7C31 46.7 31.5 47.1999 31.5 47.8999C31.5 48.6999 31 49.2 30.3 49.2C29.6 49.2 29 48.6999 29 47.8999C29 47.1999 29.6 46.7 30.3 46.7Z" fill="#0A165E" fill-opacity="0.2"/>
<path d="M30.3 58.3C31 58.3 31.5 58.9001 31.5 59.6001C31.5 60.3001 31 60.9 30.3 60.9C29.6 60.9 29 60.3001 29 59.6001C29 58.9001 29.6 58.3 30.3 58.3Z" fill="#0A165E" fill-opacity="0.2"/>
<path d="M15.9001 23.3C16.6001 23.3 17.1001 23.9001 17.1001 24.6001C17.1001 25.3001 16.6001 25.9 15.9001 25.9C15.2001 25.9 14.6001 25.3001 14.6001 24.6001C14.6001 23.9001 15.2001 23.3 15.9001 23.3Z" fill="#0A165E" fill-opacity="0.2"/>
<path d="M15.9001 35C16.6001 35 17.1001 35.6 17.1001 36.3C17.1001 37 16.6001 37.6 15.9001 37.6C15.2001 37.6 14.6001 37 14.6001 36.3C14.6001 35.6 15.2001 35 15.9001 35Z" fill="#0A165E" fill-opacity="0.2"/>
<path d="M15.9001 46.7C16.6001 46.7 17.1001 47.1999 17.1001 47.8999C17.1001 48.6999 16.6001 49.2 15.9001 49.2C15.2001 49.2 14.6001 48.6999 14.6001 47.8999C14.6001 47.1999 15.2001 46.7 15.9001 46.7Z" fill="#0A165E" fill-opacity="0.2"/>
<path d="M15.9001 58.3C16.6001 58.3 17.1001 58.9001 17.1001 59.6001C17.1001 60.3001 16.6001 60.9 15.9001 60.9C15.2001 60.9 14.6001 60.3001 14.6001 59.6001C14.6001 58.9001 15.2001 58.3 15.9001 58.3Z" fill="#0A165E" fill-opacity="0.2"/>
<path d="M1.49994 23.3C2.19994 23.3 2.69995 23.9001 2.69995 24.6001C2.69995 25.3001 2.19994 25.9 1.49994 25.9C0.799939 25.9 0.199951 25.3001 0.199951 24.6001C0.199951 23.9001 0.799939 23.3 1.49994 23.3Z" fill="#0A165E" fill-opacity="0.2"/>
<path d="M1.49994 35C2.19994 35 2.69995 35.6 2.69995 36.3C2.69995 37 2.19994 37.6 1.49994 37.6C0.799939 37.6 0.199951 37 0.199951 36.3C0.199951 35.6 0.799939 35 1.49994 35Z" fill="#0A165E" fill-opacity="0.2"/>
<path d="M1.49994 46.7C2.19994 46.7 2.69995 47.1999 2.69995 47.8999C2.69995 48.6999 2.19994 49.2 1.49994 49.2C0.799939 49.2 0.199951 48.6999 0.199951 47.8999C0.199951 47.1999 0.799939 46.7 1.49994 46.7Z" fill="#0A165E" fill-opacity="0.2"/>
<path d="M1.49994 58.3C2.19994 58.3 2.69995 58.9001 2.69995 59.6001C2.69995 60.3001 2.19994 60.9 1.49994 60.9C0.799939 60.9 0.199951 60.3001 0.199951 59.6001C0.199951 58.9001 0.799939 58.3 1.49994 58.3Z" fill="#0A165E" fill-opacity="0.2"/>
<path d="M131.8 68.8C132.5 68.8 133 69.4001 133 70.1001C133 70.8001 132.5 71.4 131.8 71.4C131.1 71.4 130.5 70.8001 130.5 70.1001C130.5 69.4001 131.1 68.8 131.8 68.8Z" fill="#0A165E" fill-opacity="0.4"/>
<path d="M131.8 80.5C132.5 80.5 133 81 133 81.7C133 82.4 132.5 83 131.8 83C131.1 83 130.5 82.4 130.5 81.7C130.5 81 131.1 80.5 131.8 80.5Z" fill="#0A165E" fill-opacity="0.4"/>
<path d="M117.4 68.8C118.1 68.8 118.6 69.4001 118.6 70.1001C118.6 70.8001 118.1 71.4 117.4 71.4C116.7 71.4 116.1 70.8001 116.1 70.1001C116.1 69.4001 116.7 68.8 117.4 68.8Z" fill="#0A165E" fill-opacity="0.4"/>
<path d="M117.4 80.5C118.1 80.5 118.6 81 118.6 81.7C118.6 82.4 118.1 83 117.4 83C116.7 83 116.1 82.4 116.1 81.7C116.1 81 116.7 80.5 117.4 80.5Z" fill="#0A165E" fill-opacity="0.4"/>
<path d="M103 68.8C103.7 68.8 104.2 69.4001 104.2 70.1001C104.2 70.8001 103.7 71.4 103 71.4C102.3 71.4 101.7 70.8001 101.7 70.1001C101.7 69.4001 102.3 68.8 103 68.8Z" fill="#0A165E" fill-opacity="0.4"/>
<path d="M103 80.5C103.7 80.5 104.2 81 104.2 81.7C104.2 82.4 103.7 83 103 83C102.3 83 101.7 82.4 101.7 81.7C101.7 81 102.3 80.5 103 80.5Z" fill="#0A165E" fill-opacity="0.4"/>
<path d="M88.5999 68.8C89.2999 68.8 89.8999 69.4001 89.8999 70.1001C89.8999 70.8001 89.2999 71.4 88.5999 71.4C87.8999 71.4 87.2999 70.8001 87.2999 70.1001C87.2999 69.4001 87.8999 68.8 88.5999 68.8Z" fill="#0A165E" fill-opacity="0.4"/>
<path d="M88.5999 80.5C89.2999 80.5 89.8999 81 89.8999 81.7C89.8999 82.4 89.2999 83 88.5999 83C87.8999 83 87.2999 82.4 87.2999 81.7C87.2999 81 87.8999 80.5 88.5999 80.5Z" fill="#0A165E" fill-opacity="0.4"/>
<path d="M74.2 68.8C74.9 68.8 75.5 69.4001 75.5 70.1001C75.5 70.8001 74.9 71.4 74.2 71.4C73.5 71.4 72.9 70.8001 72.9 70.1001C72.9 69.4001 73.5 68.8 74.2 68.8Z" fill="#0A165E" fill-opacity="0.4"/>
<path d="M74.2 80.5C74.9 80.5 75.5 81 75.5 81.7C75.5 82.4 74.9 83 74.2 83C73.5 83 72.9 82.4 72.9 81.7C72.9 81 73.5 80.5 74.2 80.5Z" fill="#0A165E" fill-opacity="0.4"/>
<path d="M30.3 173.8C31 173.8 31.5 174.4 31.5 175.1C31.5 175.8 31 176.4 30.3 176.4C29.6 176.4 29 175.8 29 175.1C29 174.4 29.6 173.8 30.3 173.8Z" fill="#0A165E" fill-opacity="0.4"/>
<path d="M30.3 185.5C31 185.5 31.5 186 31.5 186.8C31.5 187.5 31 188 30.3 188C29.6 188 29 187.5 29 186.8C29 186 29.6 185.5 30.3 185.5Z" fill="#0A165E" fill-opacity="0.4"/>
<path d="M30.3 197.1C31 197.1 31.5 197.7 31.5 198.4C31.5 199.1 31 199.7 30.3 199.7C29.6 199.7 29 199.1 29 198.4C29 197.7 29.6 197.1 30.3 197.1Z" fill="#0A165E" fill-opacity="0.4"/>
<path d="M15.9001 173.8C16.6001 173.8 17.1001 174.4 17.1001 175.1C17.1001 175.8 16.6001 176.4 15.9001 176.4C15.2001 176.4 14.6001 175.8 14.6001 175.1C14.6001 174.4 15.2001 173.8 15.9001 173.8Z" fill="#0A165E" fill-opacity="0.4"/>
<path d="M15.9001 185.5C16.6001 185.5 17.1001 186 17.1001 186.8C17.1001 187.5 16.6001 188 15.9001 188C15.2001 188 14.6001 187.5 14.6001 186.8C14.6001 186 15.2001 185.5 15.9001 185.5Z" fill="#0A165E" fill-opacity="0.4"/>
<path d="M15.9001 197.1C16.6001 197.1 17.1001 197.7 17.1001 198.4C17.1001 199.1 16.6001 199.7 15.9001 199.7C15.2001 199.7 14.6001 199.1 14.6001 198.4C14.6001 197.7 15.2001 197.1 15.9001 197.1Z" fill="#0A165E" fill-opacity="0.4"/>
<path d="M1.49994 173.8C2.19994 173.8 2.69995 174.4 2.69995 175.1C2.69995 175.8 2.19994 176.4 1.49994 176.4C0.799939 176.4 0.199951 175.8 0.199951 175.1C0.199951 174.4 0.799939 173.8 1.49994 173.8Z" fill="#0A165E" fill-opacity="0.4"/>
<path d="M1.49994 185.5C2.19994 185.5 2.69995 186 2.69995 186.8C2.69995 187.5 2.19994 188 1.49994 188C0.799939 188 0.199951 187.5 0.199951 186.8C0.199951 186 0.799939 185.5 1.49994 185.5Z" fill="#0A165E" fill-opacity="0.4"/>
<path d="M1.49994 197.1C2.19994 197.1 2.69995 197.7 2.69995 198.4C2.69995 199.1 2.19994 199.7 1.49994 199.7C0.799939 199.7 0.199951 199.1 0.199951 198.4C0.199951 197.7 0.799939 197.1 1.49994 197.1Z" fill="#0A165E" fill-opacity="0.4"/>
<path d="M59.0001 68.8C59.7001 68.8 60.3 69.4001 60.3 70.1001C60.3 70.8001 59.7001 71.4 59.0001 71.4C58.3001 71.4 57.8 70.8001 57.8 70.1001C57.8 69.4001 58.3001 68.8 59.0001 68.8Z" fill="#0A165E" fill-opacity="0.4"/>
<path d="M59.0001 80.5C59.7001 80.5 60.3 81 60.3 81.7C60.3 82.4 59.7001 83 59.0001 83C58.3001 83 57.8 82.4 57.8 81.7C57.8 81 58.3001 80.5 59.0001 80.5Z" fill="#0A165E" fill-opacity="0.4"/>
<path d="M59.0001 92.1001C59.7001 92.1001 60.3 92.7001 60.3 93.4001C60.3 94.1001 59.7001 94.7001 59.0001 94.7001C58.3001 94.7001 57.8 94.1001 57.8 93.4001C57.8 92.7001 58.3001 92.1001 59.0001 92.1001Z" fill="#0A165E" fill-opacity="0.4"/>
<path d="M59.0001 103.8C59.7001 103.8 60.3 104.3 60.3 105.1C60.3 105.8 59.7001 106.3 59.0001 106.3C58.3001 106.3 57.8 105.8 57.8 105.1C57.8 104.3 58.3001 103.8 59.0001 103.8Z" fill="#0A165E" fill-opacity="0.4"/>
<path d="M59.0001 115.4C59.7001 115.4 60.3 116 60.3 116.7C60.3 117.4 59.7001 118 59.0001 118C58.3001 118 57.8 117.4 57.8 116.7C57.8 116 58.3001 115.4 59.0001 115.4Z" fill="#0A165E" fill-opacity="0.4"/>
<path d="M59.0001 127.1C59.7001 127.1 60.3 127.7 60.3 128.4C60.3 129.1 59.7001 129.7 59.0001 129.7C58.3001 129.7 57.8 129.1 57.8 128.4C57.8 127.7 58.3001 127.1 59.0001 127.1Z" fill="#0A165E" fill-opacity="0.4"/>
<path d="M44.5999 68.8C45.2999 68.8 45.8999 69.4001 45.8999 70.1001C45.8999 70.8001 45.2999 71.4 44.5999 71.4C43.8999 71.4 43.3999 70.8001 43.3999 70.1001C43.3999 69.4001 43.8999 68.8 44.5999 68.8Z" fill="#0A165E" fill-opacity="0.4"/>
<path d="M44.5999 80.5C45.2999 80.5 45.8999 81 45.8999 81.7C45.8999 82.4 45.2999 83 44.5999 83C43.8999 83 43.3999 82.4 43.3999 81.7C43.3999 81 43.8999 80.5 44.5999 80.5Z" fill="#0A165E" fill-opacity="0.4"/>
<path d="M44.5999 92.1001C45.2999 92.1001 45.8999 92.7001 45.8999 93.4001C45.8999 94.1001 45.2999 94.7001 44.5999 94.7001C43.8999 94.7001 43.3999 94.1001 43.3999 93.4001C43.3999 92.7001 43.8999 92.1001 44.5999 92.1001Z" fill="#0A165E" fill-opacity="0.4"/>
<path d="M44.5999 103.8C45.2999 103.8 45.8999 104.3 45.8999 105.1C45.8999 105.8 45.2999 106.3 44.5999 106.3C43.8999 106.3 43.3999 105.8 43.3999 105.1C43.3999 104.3 43.8999 103.8 44.5999 103.8Z" fill="#0A165E" fill-opacity="0.4"/>
<path d="M44.5999 115.4C45.2999 115.4 45.8999 116 45.8999 116.7C45.8999 117.4 45.2999 118 44.5999 118C43.8999 118 43.3999 117.4 43.3999 116.7C43.3999 116 43.8999 115.4 44.5999 115.4Z" fill="#0A165E" fill-opacity="0.4"/>
<path d="M44.5999 127.1C45.2999 127.1 45.8999 127.7 45.8999 128.4C45.8999 129.1 45.2999 129.7 44.5999 129.7C43.8999 129.7 43.3999 129.1 43.3999 128.4C43.3999 127.7 43.8999 127.1 44.5999 127.1Z" fill="#0A165E" fill-opacity="0.4"/>
<path d="M30.3 68.8C31 68.8 31.5 69.4001 31.5 70.1001C31.5 70.8001 31 71.4 30.3 71.4C29.6 71.4 29 70.8001 29 70.1001C29 69.4001 29.6 68.8 30.3 68.8Z" fill="#0A165E" fill-opacity="0.4"/>
<path d="M30.3 80.5C31 80.5 31.5 81 31.5 81.7C31.5 82.4 31 83 30.3 83C29.6 83 29 82.4 29 81.7C29 81 29.6 80.5 30.3 80.5Z" fill="#0A165E" fill-opacity="0.4"/>
<path d="M30.3 92.1001C31 92.1001 31.5 92.7001 31.5 93.4001C31.5 94.1001 31 94.7001 30.3 94.7001C29.6 94.7001 29 94.1001 29 93.4001C29 92.7001 29.6 92.1001 30.3 92.1001Z" fill="#0A165E" fill-opacity="0.4"/>
<path d="M30.3 103.8C31 103.8 31.5 104.3 31.5 105.1C31.5 105.8 31 106.3 30.3 106.3C29.6 106.3 29 105.8 29 105.1C29 104.3 29.6 103.8 30.3 103.8Z" fill="#0A165E" fill-opacity="0.4"/>
<path d="M15.9001 68.8C16.6001 68.8 17.1001 69.4001 17.1001 70.1001C17.1001 70.8001 16.6001 71.4 15.9001 71.4C15.2001 71.4 14.6001 70.8001 14.6001 70.1001C14.6001 69.4001 15.2001 68.8 15.9001 68.8Z" fill="#0A165E" fill-opacity="0.4"/>
<path d="M15.9001 80.5C16.6001 80.5 17.1001 81 17.1001 81.7C17.1001 82.4 16.6001 83 15.9001 83C15.2001 83 14.6001 82.4 14.6001 81.7C14.6001 81 15.2001 80.5 15.9001 80.5Z" fill="#0A165E" fill-opacity="0.4"/>
<path d="M15.9001 92.1001C16.6001 92.1001 17.1001 92.7001 17.1001 93.4001C17.1001 94.1001 16.6001 94.7001 15.9001 94.7001C15.2001 94.7001 14.6001 94.1001 14.6001 93.4001C14.6001 92.7001 15.2001 92.1001 15.9001 92.1001Z" fill="#0A165E" fill-opacity="0.4"/>
<path d="M15.9001 103.8C16.6001 103.8 17.1001 104.3 17.1001 105.1C17.1001 105.8 16.6001 106.3 15.9001 106.3C15.2001 106.3 14.6001 105.8 14.6001 105.1C14.6001 104.3 15.2001 103.8 15.9001 103.8Z" fill="#0A165E" fill-opacity="0.4"/>
<path d="M1.49994 68.8C2.19994 68.8 2.69995 69.4001 2.69995 70.1001C2.69995 70.8001 2.19994 71.4 1.49994 71.4C0.799939 71.4 0.199951 70.8001 0.199951 70.1001C0.199951 69.4001 0.799939 68.8 1.49994 68.8Z" fill="#0A165E" fill-opacity="0.4"/>
<path d="M1.49994 80.5C2.19994 80.5 2.69995 81 2.69995 81.7C2.69995 82.4 2.19994 83 1.49994 83C0.799939 83 0.199951 82.4 0.199951 81.7C0.199951 81 0.799939 80.5 1.49994 80.5Z" fill="#0A165E" fill-opacity="0.4"/>
<path d="M1.49994 92.1001C2.19994 92.1001 2.69995 92.7001 2.69995 93.4001C2.69995 94.1001 2.19994 94.7001 1.49994 94.7001C0.799939 94.7001 0.199951 94.1001 0.199951 93.4001C0.199951 92.7001 0.799939 92.1001 1.49994 92.1001Z" fill="#0A165E" fill-opacity="0.4"/>
<path d="M1.49994 103.8C2.19994 103.8 2.69995 104.3 2.69995 105.1C2.69995 105.8 2.19994 106.3 1.49994 106.3C0.799939 106.3 0.199951 105.8 0.199951 105.1C0.199951 104.3 0.799939 103.8 1.49994 103.8Z" fill="#0A165E" fill-opacity="0.4"/>
<path d="M131.8 46.7001C132.5 46.7001 133 47.2001 133 47.9001C133 48.7001 132.5 49.2001 131.8 49.2001C131.1 49.2001 130.5 48.7001 130.5 47.9001C130.5 47.2001 131.1 46.7001 131.8 46.7001Z" fill="#0A165E" fill-opacity="0.4"/>
<path d="M131.8 58.3C132.5 58.3 133 58.9001 133 59.6001C133 60.3001 132.5 60.9 131.8 60.9C131.1 60.9 130.5 60.3001 130.5 59.6001C130.5 58.9001 131.1 58.3 131.8 58.3Z" fill="#0A165E" fill-opacity="0.4"/>
<path d="M117.4 46.7001C118.1 46.7001 118.6 47.2001 118.6 47.9001C118.6 48.7001 118.1 49.2001 117.4 49.2001C116.7 49.2001 116.1 48.7001 116.1 47.9001C116.1 47.2001 116.7 46.7001 117.4 46.7001Z" fill="#0A165E" fill-opacity="0.4"/>
<path d="M117.4 58.3C118.1 58.3 118.6 58.9001 118.6 59.6001C118.6 60.3001 118.1 60.9 117.4 60.9C116.7 60.9 116.1 60.3001 116.1 59.6001C116.1 58.9001 116.7 58.3 117.4 58.3Z" fill="#0A165E" fill-opacity="0.4"/>
<path d="M103 46.7001C103.7 46.7001 104.2 47.2001 104.2 47.9001C104.2 48.7001 103.7 49.2001 103 49.2001C102.3 49.2001 101.7 48.7001 101.7 47.9001C101.7 47.2001 102.3 46.7001 103 46.7001Z" fill="#0A165E" fill-opacity="0.4"/>
<path d="M103 58.3C103.7 58.3 104.2 58.9001 104.2 59.6001C104.2 60.3001 103.7 60.9 103 60.9C102.3 60.9 101.7 60.3001 101.7 59.6001C101.7 58.9001 102.3 58.3 103 58.3Z" fill="#0A165E" fill-opacity="0.4"/>
<path d="M44.5999 23.3C45.2999 23.3 45.8999 23.9001 45.8999 24.6001C45.8999 25.3001 45.2999 25.9 44.5999 25.9C43.8999 25.9 43.3999 25.3001 43.3999 24.6001C43.3999 23.9001 43.8999 23.3 44.5999 23.3Z" fill="#0A165E" fill-opacity="0.4"/>
<path d="M44.5999 35C45.2999 35 45.8999 35.6 45.8999 36.3C45.8999 37 45.2999 37.6 44.5999 37.6C43.8999 37.6 43.3999 37 43.3999 36.3C43.3999 35.6 43.8999 35 44.5999 35Z" fill="#0A165E" fill-opacity="0.4"/>
<path d="M44.5999 46.7001C45.2999 46.7001 45.8999 47.2001 45.8999 47.9001C45.8999 48.7001 45.2999 49.2001 44.5999 49.2001C43.8999 49.2001 43.3999 48.7001 43.3999 47.9001C43.3999 47.2001 43.8999 46.7001 44.5999 46.7001Z" fill="#0A165E" fill-opacity="0.4"/>
<path d="M44.5999 58.3C45.2999 58.3 45.8999 58.9001 45.8999 59.6001C45.8999 60.3001 45.2999 60.9 44.5999 60.9C43.8999 60.9 43.3999 60.3001 43.3999 59.6001C43.3999 58.9001 43.8999 58.3 44.5999 58.3Z" fill="#0A165E" fill-opacity="0.4"/>
<path d="M30.3 23.3C31 23.3 31.5 23.9001 31.5 24.6001C31.5 25.3001 31 25.9 30.3 25.9C29.6 25.9 29 25.3001 29 24.6001C29 23.9001 29.6 23.3 30.3 23.3Z" fill="#0A165E" fill-opacity="0.4"/>
<path d="M30.3 35C31 35 31.5 35.6 31.5 36.3C31.5 37 31 37.6 30.3 37.6C29.6 37.6 29 37 29 36.3C29 35.6 29.6 35 30.3 35Z" fill="#0A165E" fill-opacity="0.4"/>
<path d="M30.3 46.7001C31 46.7001 31.5 47.2001 31.5 47.9001C31.5 48.7001 31 49.2001 30.3 49.2001C29.6 49.2001 29 48.7001 29 47.9001C29 47.2001 29.6 46.7001 30.3 46.7001Z" fill="#0A165E" fill-opacity="0.4"/>
<path d="M30.3 58.3C31 58.3 31.5 58.9001 31.5 59.6001C31.5 60.3001 31 60.9 30.3 60.9C29.6 60.9 29 60.3001 29 59.6001C29 58.9001 29.6 58.3 30.3 58.3Z" fill="#0A165E" fill-opacity="0.4"/>
</svg>
