<svg width="133" height="200" viewBox="0 0 133 200" fill="none" xmlns="http://www.w3.org/2000/svg">
<path d="M1.20001 68.8C0.500012 68.8 0 69.4001 0 70.1001C0 70.8001 0.500012 71.4 1.20001 71.4C1.90001 71.4 2.5 70.8001 2.5 70.1001C2.5 69.4001 1.90001 68.8 1.20001 68.8Z" fill="#0A165E" fill-opacity="0.2"/>
<path d="M1.20001 80.5C0.500012 80.5 0 81 0 81.7C0 82.4 0.500012 83 1.20001 83C1.90001 83 2.5 82.4 2.5 81.7C2.5 81 1.90001 80.5 1.20001 80.5Z" fill="#0A165E" fill-opacity="0.2"/>
<path d="M15.6 68.8C14.9 68.8 14.4 69.4001 14.4 70.1001C14.4 70.8001 14.9 71.4 15.6 71.4C16.3 71.4 16.9 70.8001 16.9 70.1001C16.9 69.4001 16.3 68.8 15.6 68.8Z" fill="#0A165E" fill-opacity="0.2"/>
<path d="M15.6 80.5C14.9 80.5 14.4 81 14.4 81.7C14.4 82.4 14.9 83 15.6 83C16.3 83 16.9 82.4 16.9 81.7C16.9 81 16.3 80.5 15.6 80.5Z" fill="#0A165E" fill-opacity="0.2"/>
<path d="M30.0001 68.8C29.3001 68.8 28.8 69.4001 28.8 70.1001C28.8 70.8001 29.3001 71.4 30.0001 71.4C30.7001 71.4 31.3 70.8001 31.3 70.1001C31.3 69.4001 30.7001 68.8 30.0001 68.8Z" fill="#0A165E" fill-opacity="0.2"/>
<path d="M30.0001 80.5C29.3001 80.5 28.8 81 28.8 81.7C28.8 82.4 29.3001 83 30.0001 83C30.7001 83 31.3 82.4 31.3 81.7C31.3 81 30.7001 80.5 30.0001 80.5Z" fill="#0A165E" fill-opacity="0.2"/>
<path d="M44.4 68.8C43.7 68.8 43.1 69.4001 43.1 70.1001C43.1 70.8001 43.7 71.4 44.4 71.4C45.1 71.4 45.7 70.8001 45.7 70.1001C45.7 69.4001 45.1 68.8 44.4 68.8Z" fill="#0A165E" fill-opacity="0.2"/>
<path d="M44.4 80.5C43.7 80.5 43.1 81 43.1 81.7C43.1 82.4 43.7 83 44.4 83C45.1 83 45.7 82.4 45.7 81.7C45.7 81 45.1 80.5 44.4 80.5Z" fill="#0A165E" fill-opacity="0.2"/>
<path d="M58.8 68.8C58.1 68.8 57.5 69.4001 57.5 70.1001C57.5 70.8001 58.1 71.4 58.8 71.4C59.5 71.4 60.1 70.8001 60.1 70.1001C60.1 69.4001 59.5 68.8 58.8 68.8Z" fill="#0A165E" fill-opacity="0.2"/>
<path d="M58.8 80.5C58.1 80.5 57.5 81 57.5 81.7C57.5 82.4 58.1 83 58.8 83C59.5 83 60.1 82.4 60.1 81.7C60.1 81 59.5 80.5 58.8 80.5Z" fill="#0A165E" fill-opacity="0.2"/>
<path d="M73.9999 138.8C73.2999 138.8 72.7 139.4 72.7 140.1C72.7 140.8 73.2999 141.4 73.9999 141.4C74.6999 141.4 75.2 140.8 75.2 140.1C75.2 139.4 74.6999 138.8 73.9999 138.8Z" fill="#0A165E" fill-opacity="0.2"/>
<path d="M73.9999 150.5C73.2999 150.5 72.7 151.1 72.7 151.8C72.7 152.5 73.2999 153.1 73.9999 153.1C74.6999 153.1 75.2 152.5 75.2 151.8C75.2 151.1 74.6999 150.5 73.9999 150.5Z" fill="#0A165E" fill-opacity="0.2"/>
<path d="M73.9999 162.2C73.2999 162.2 72.7 162.7 72.7 163.4C72.7 164.1 73.2999 164.7 73.9999 164.7C74.6999 164.7 75.2 164.1 75.2 163.4C75.2 162.7 74.6999 162.2 73.9999 162.2Z" fill="#0A165E" fill-opacity="0.2"/>
<path d="M73.9999 173.8C73.2999 173.8 72.7 174.4 72.7 175.1C72.7 175.8 73.2999 176.4 73.9999 176.4C74.6999 176.4 75.2 175.8 75.2 175.1C75.2 174.4 74.6999 173.8 73.9999 173.8Z" fill="#0A165E" fill-opacity="0.2"/>
<path d="M73.9999 185.5C73.2999 185.5 72.7 186 72.7 186.8C72.7 187.5 73.2999 188 73.9999 188C74.6999 188 75.2 187.5 75.2 186.8C75.2 186 74.6999 185.5 73.9999 185.5Z" fill="#0A165E" fill-opacity="0.2"/>
<path d="M73.9999 197.1C73.2999 197.1 72.7 197.7 72.7 198.4C72.7 199.1 73.2999 199.7 73.9999 199.7C74.6999 199.7 75.2 199.1 75.2 198.4C75.2 197.7 74.6999 197.1 73.9999 197.1Z" fill="#0A165E" fill-opacity="0.2"/>
<path d="M88.4 138.8C87.7 138.8 87.1 139.4 87.1 140.1C87.1 140.8 87.7 141.4 88.4 141.4C89.1 141.4 89.6 140.8 89.6 140.1C89.6 139.4 89.1 138.8 88.4 138.8Z" fill="#0A165E" fill-opacity="0.2"/>
<path d="M88.4 150.5C87.7 150.5 87.1 151.1 87.1 151.8C87.1 152.5 87.7 153.1 88.4 153.1C89.1 153.1 89.6 152.5 89.6 151.8C89.6 151.1 89.1 150.5 88.4 150.5Z" fill="#0A165E" fill-opacity="0.2"/>
<path d="M88.4 162.2C87.7 162.2 87.1 162.7 87.1 163.4C87.1 164.1 87.7 164.7 88.4 164.7C89.1 164.7 89.6 164.1 89.6 163.4C89.6 162.7 89.1 162.2 88.4 162.2Z" fill="#0A165E" fill-opacity="0.2"/>
<path d="M88.4 173.8C87.7 173.8 87.1 174.4 87.1 175.1C87.1 175.8 87.7 176.4 88.4 176.4C89.1 176.4 89.6 175.8 89.6 175.1C89.6 174.4 89.1 173.8 88.4 173.8Z" fill="#0A165E" fill-opacity="0.2"/>
<path d="M88.4 185.5C87.7 185.5 87.1 186 87.1 186.8C87.1 187.5 87.7 188 88.4 188C89.1 188 89.6 187.5 89.6 186.8C89.6 186 89.1 185.5 88.4 185.5Z" fill="#0A165E" fill-opacity="0.2"/>
<path d="M88.4 197.1C87.7 197.1 87.1 197.7 87.1 198.4C87.1 199.1 87.7 199.7 88.4 199.7C89.1 199.7 89.6 199.1 89.6 198.4C89.6 197.7 89.1 197.1 88.4 197.1Z" fill="#0A165E" fill-opacity="0.2"/>
<path d="M102.7 173.8C102 173.8 101.5 174.4 101.5 175.1C101.5 175.8 102 176.4 102.7 176.4C103.4 176.4 104 175.8 104 175.1C104 174.4 103.4 173.8 102.7 173.8Z" fill="#0A165E" fill-opacity="0.2"/>
<path d="M102.7 185.5C102 185.5 101.5 186 101.5 186.8C101.5 187.5 102 188 102.7 188C103.4 188 104 187.5 104 186.8C104 186 103.4 185.5 102.7 185.5Z" fill="#0A165E" fill-opacity="0.2"/>
<path d="M102.7 197.1C102 197.1 101.5 197.7 101.5 198.4C101.5 199.1 102 199.7 102.7 199.7C103.4 199.7 104 199.1 104 198.4C104 197.7 103.4 197.1 102.7 197.1Z" fill="#0A165E" fill-opacity="0.2"/>
<path d="M117.1 173.8C116.4 173.8 115.9 174.4 115.9 175.1C115.9 175.8 116.4 176.4 117.1 176.4C117.8 176.4 118.4 175.8 118.4 175.1C118.4 174.4 117.8 173.8 117.1 173.8Z" fill="#0A165E" fill-opacity="0.2"/>
<path d="M117.1 185.5C116.4 185.5 115.9 186 115.9 186.8C115.9 187.5 116.4 188 117.1 188C117.8 188 118.4 187.5 118.4 186.8C118.4 186 117.8 185.5 117.1 185.5Z" fill="#0A165E" fill-opacity="0.2"/>
<path d="M117.1 197.1C116.4 197.1 115.9 197.7 115.9 198.4C115.9 199.1 116.4 199.7 117.1 199.7C117.8 199.7 118.4 199.1 118.4 198.4C118.4 197.7 117.8 197.1 117.1 197.1Z" fill="#0A165E" fill-opacity="0.2"/>
<path d="M131.5 173.8C130.8 173.8 130.3 174.4 130.3 175.1C130.3 175.8 130.8 176.4 131.5 176.4C132.2 176.4 132.8 175.8 132.8 175.1C132.8 174.4 132.2 173.8 131.5 173.8Z" fill="#0A165E" fill-opacity="0.2"/>
<path d="M131.5 185.5C130.8 185.5 130.3 186 130.3 186.8C130.3 187.5 130.8 188 131.5 188C132.2 188 132.8 187.5 132.8 186.8C132.8 186 132.2 185.5 131.5 185.5Z" fill="#0A165E" fill-opacity="0.2"/>
<path d="M131.5 197.1C130.8 197.1 130.3 197.7 130.3 198.4C130.3 199.1 130.8 199.7 131.5 199.7C132.2 199.7 132.8 199.1 132.8 198.4C132.8 197.7 132.2 197.1 131.5 197.1Z" fill="#0A165E" fill-opacity="0.2"/>
<path d="M73.9999 68.8C73.2999 68.8 72.7 69.4001 72.7 70.1001C72.7 70.8001 73.2999 71.4 73.9999 71.4C74.6999 71.4 75.2 70.8001 75.2 70.1001C75.2 69.4001 74.6999 68.8 73.9999 68.8Z" fill="#0A165E" fill-opacity="0.2"/>
<path d="M73.9999 80.5C73.2999 80.5 72.7 81 72.7 81.7C72.7 82.4 73.2999 83 73.9999 83C74.6999 83 75.2 82.4 75.2 81.7C75.2 81 74.6999 80.5 73.9999 80.5Z" fill="#0A165E" fill-opacity="0.2"/>
<path d="M73.9999 92.1001C73.2999 92.1001 72.7 92.7001 72.7 93.4001C72.7 94.1001 73.2999 94.7001 73.9999 94.7001C74.6999 94.7001 75.2 94.1001 75.2 93.4001C75.2 92.7001 74.6999 92.1001 73.9999 92.1001Z" fill="#0A165E" fill-opacity="0.2"/>
<path d="M73.9999 103.8C73.2999 103.8 72.7 104.3 72.7 105.1C72.7 105.8 73.2999 106.3 73.9999 106.3C74.6999 106.3 75.2 105.8 75.2 105.1C75.2 104.3 74.6999 103.8 73.9999 103.8Z" fill="#0A165E" fill-opacity="0.2"/>
<path d="M73.9999 115.4C73.2999 115.4 72.7 116 72.7 116.7C72.7 117.4 73.2999 118 73.9999 118C74.6999 118 75.2 117.4 75.2 116.7C75.2 116 74.6999 115.4 73.9999 115.4Z" fill="#0A165E" fill-opacity="0.2"/>
<path d="M73.9999 127.1C73.2999 127.1 72.7 127.7 72.7 128.4C72.7 129.1 73.2999 129.7 73.9999 129.7C74.6999 129.7 75.2 129.1 75.2 128.4C75.2 127.7 74.6999 127.1 73.9999 127.1Z" fill="#0A165E" fill-opacity="0.2"/>
<path d="M88.4 68.8C87.7 68.8 87.1 69.4001 87.1 70.1001C87.1 70.8001 87.7 71.4 88.4 71.4C89.1 71.4 89.6 70.8001 89.6 70.1001C89.6 69.4001 89.1 68.8 88.4 68.8Z" fill="#0A165E" fill-opacity="0.2"/>
<path d="M88.4 80.5C87.7 80.5 87.1 81 87.1 81.7C87.1 82.4 87.7 83 88.4 83C89.1 83 89.6 82.4 89.6 81.7C89.6 81 89.1 80.5 88.4 80.5Z" fill="#0A165E" fill-opacity="0.2"/>
<path d="M88.4 92.1001C87.7 92.1001 87.1 92.7001 87.1 93.4001C87.1 94.1001 87.7 94.7001 88.4 94.7001C89.1 94.7001 89.6 94.1001 89.6 93.4001C89.6 92.7001 89.1 92.1001 88.4 92.1001Z" fill="#0A165E" fill-opacity="0.2"/>
<path d="M88.4 103.8C87.7 103.8 87.1 104.3 87.1 105.1C87.1 105.8 87.7 106.3 88.4 106.3C89.1 106.3 89.6 105.8 89.6 105.1C89.6 104.3 89.1 103.8 88.4 103.8Z" fill="#0A165E" fill-opacity="0.2"/>
<path d="M88.4 115.4C87.7 115.4 87.1 116 87.1 116.7C87.1 117.4 87.7 118 88.4 118C89.1 118 89.6 117.4 89.6 116.7C89.6 116 89.1 115.4 88.4 115.4Z" fill="#0A165E" fill-opacity="0.2"/>
<path d="M88.4 127.1C87.7 127.1 87.1 127.7 87.1 128.4C87.1 129.1 87.7 129.7 88.4 129.7C89.1 129.7 89.6 129.1 89.6 128.4C89.6 127.7 89.1 127.1 88.4 127.1Z" fill="#0A165E" fill-opacity="0.2"/>
<path d="M102.7 68.8C102 68.8 101.5 69.4001 101.5 70.1001C101.5 70.8001 102 71.4 102.7 71.4C103.4 71.4 104 70.8001 104 70.1001C104 69.4001 103.4 68.8 102.7 68.8Z" fill="#0A165E" fill-opacity="0.2"/>
<path d="M102.7 80.5C102 80.5 101.5 81 101.5 81.7C101.5 82.4 102 83 102.7 83C103.4 83 104 82.4 104 81.7C104 81 103.4 80.5 102.7 80.5Z" fill="#0A165E" fill-opacity="0.2"/>
<path d="M102.7 92.1001C102 92.1001 101.5 92.7001 101.5 93.4001C101.5 94.1001 102 94.7001 102.7 94.7001C103.4 94.7001 104 94.1001 104 93.4001C104 92.7001 103.4 92.1001 102.7 92.1001Z" fill="#0A165E" fill-opacity="0.2"/>
<path d="M102.7 103.8C102 103.8 101.5 104.3 101.5 105.1C101.5 105.8 102 106.3 102.7 106.3C103.4 106.3 104 105.8 104 105.1C104 104.3 103.4 103.8 102.7 103.8Z" fill="#0A165E" fill-opacity="0.2"/>
<path d="M117.1 68.8C116.4 68.8 115.9 69.4001 115.9 70.1001C115.9 70.8001 116.4 71.4 117.1 71.4C117.8 71.4 118.4 70.8001 118.4 70.1001C118.4 69.4001 117.8 68.8 117.1 68.8Z" fill="#0A165E" fill-opacity="0.2"/>
<path d="M117.1 80.5C116.4 80.5 115.9 81 115.9 81.7C115.9 82.4 116.4 83 117.1 83C117.8 83 118.4 82.4 118.4 81.7C118.4 81 117.8 80.5 117.1 80.5Z" fill="#0A165E" fill-opacity="0.2"/>
<path d="M117.1 92.1001C116.4 92.1001 115.9 92.7001 115.9 93.4001C115.9 94.1001 116.4 94.7001 117.1 94.7001C117.8 94.7001 118.4 94.1001 118.4 93.4001C118.4 92.7001 117.8 92.1001 117.1 92.1001Z" fill="#0A165E" fill-opacity="0.2"/>
<path d="M117.1 103.8C116.4 103.8 115.9 104.3 115.9 105.1C115.9 105.8 116.4 106.3 117.1 106.3C117.8 106.3 118.4 105.8 118.4 105.1C118.4 104.3 117.8 103.8 117.1 103.8Z" fill="#0A165E" fill-opacity="0.2"/>
<path d="M131.5 68.8C130.8 68.8 130.3 69.4001 130.3 70.1001C130.3 70.8001 130.8 71.4 131.5 71.4C132.2 71.4 132.8 70.8001 132.8 70.1001C132.8 69.4001 132.2 68.8 131.5 68.8Z" fill="#0A165E" fill-opacity="0.2"/>
<path d="M131.5 80.5C130.8 80.5 130.3 81 130.3 81.7C130.3 82.4 130.8 83 131.5 83C132.2 83 132.8 82.4 132.8 81.7C132.8 81 132.2 80.5 131.5 80.5Z" fill="#0A165E" fill-opacity="0.2"/>
<path d="M131.5 92.1001C130.8 92.1001 130.3 92.7001 130.3 93.4001C130.3 94.1001 130.8 94.7001 131.5 94.7001C132.2 94.7001 132.8 94.1001 132.8 93.4001C132.8 92.7001 132.2 92.1001 131.5 92.1001Z" fill="#0A165E" fill-opacity="0.2"/>
<path d="M131.5 103.8C130.8 103.8 130.3 104.3 130.3 105.1C130.3 105.8 130.8 106.3 131.5 106.3C132.2 106.3 132.8 105.8 132.8 105.1C132.8 104.3 132.2 103.8 131.5 103.8Z" fill="#0A165E" fill-opacity="0.2"/>
<path d="M1.20001 46.7C0.500012 46.7 0 47.1999 0 47.8999C0 48.6999 0.500012 49.2 1.20001 49.2C1.90001 49.2 2.5 48.6999 2.5 47.8999C2.5 47.1999 1.90001 46.7 1.20001 46.7Z" fill="#0A165E" fill-opacity="0.2"/>
<path d="M1.20001 58.3C0.500012 58.3 0 58.9001 0 59.6001C0 60.3001 0.500012 60.9 1.20001 60.9C1.90001 60.9 2.5 60.3001 2.5 59.6001C2.5 58.9001 1.90001 58.3 1.20001 58.3Z" fill="#0A165E" fill-opacity="0.2"/>
<path d="M15.6 46.7C14.9 46.7 14.4 47.1999 14.4 47.8999C14.4 48.6999 14.9 49.2 15.6 49.2C16.3 49.2 16.9 48.6999 16.9 47.8999C16.9 47.1999 16.3 46.7 15.6 46.7Z" fill="#0A165E" fill-opacity="0.2"/>
<path d="M15.6 58.3C14.9 58.3 14.4 58.9001 14.4 59.6001C14.4 60.3001 14.9 60.9 15.6 60.9C16.3 60.9 16.9 60.3001 16.9 59.6001C16.9 58.9001 16.3 58.3 15.6 58.3Z" fill="#0A165E" fill-opacity="0.2"/>
<path d="M30.0001 46.7C29.3001 46.7 28.8 47.1999 28.8 47.8999C28.8 48.6999 29.3001 49.2 30.0001 49.2C30.7001 49.2 31.3 48.6999 31.3 47.8999C31.3 47.1999 30.7001 46.7 30.0001 46.7Z" fill="#0A165E" fill-opacity="0.2"/>
<path d="M30.0001 58.3C29.3001 58.3 28.8 58.9001 28.8 59.6001C28.8 60.3001 29.3001 60.9 30.0001 60.9C30.7001 60.9 31.3 60.3001 31.3 59.6001C31.3 58.9001 30.7001 58.3 30.0001 58.3Z" fill="#0A165E" fill-opacity="0.2"/>
<path d="M44.4 46.7C43.7 46.7 43.1 47.1999 43.1 47.8999C43.1 48.6999 43.7 49.2 44.4 49.2C45.1 49.2 45.7 48.6999 45.7 47.8999C45.7 47.1999 45.1 46.7 44.4 46.7Z" fill="#0A165E" fill-opacity="0.2"/>
<path d="M44.4 58.3C43.7 58.3 43.1 58.9001 43.1 59.6001C43.1 60.3001 43.7 60.9 44.4 60.9C45.1 60.9 45.7 60.3001 45.7 59.6001C45.7 58.9001 45.1 58.3 44.4 58.3Z" fill="#0A165E" fill-opacity="0.2"/>
<path d="M58.8 0C58.1 0 57.5 0.600003 57.5 1.3C57.5 2 58.1 2.60001 58.8 2.60001C59.5 2.60001 60.1 2 60.1 1.3C60.1 0.600003 59.5 0 58.8 0Z" fill="#0A165E" fill-opacity="0.2"/>
<path d="M58.8 11.7C58.1 11.7 57.5 12.3 57.5 13C57.5 13.7 58.1 14.3 58.8 14.3C59.5 14.3 60.1 13.7 60.1 13C60.1 12.3 59.5 11.7 58.8 11.7Z" fill="#0A165E" fill-opacity="0.2"/>
<path d="M58.8 23.3C58.1 23.3 57.5 23.9001 57.5 24.6001C57.5 25.3001 58.1 25.9 58.8 25.9C59.5 25.9 60.1 25.3001 60.1 24.6001C60.1 23.9001 59.5 23.3 58.8 23.3Z" fill="#0A165E" fill-opacity="0.2"/>
<path d="M58.8 35C58.1 35 57.5 35.6 57.5 36.3C57.5 37 58.1 37.6 58.8 37.6C59.5 37.6 60.1 37 60.1 36.3C60.1 35.6 59.5 35 58.8 35Z" fill="#0A165E" fill-opacity="0.2"/>
<path d="M58.8 46.7C58.1 46.7 57.5 47.1999 57.5 47.8999C57.5 48.6999 58.1 49.2 58.8 49.2C59.5 49.2 60.1 48.6999 60.1 47.8999C60.1 47.1999 59.5 46.7 58.8 46.7Z" fill="#0A165E" fill-opacity="0.2"/>
<path d="M58.8 58.3C58.1 58.3 57.5 58.9001 57.5 59.6001C57.5 60.3001 58.1 60.9 58.8 60.9C59.5 60.9 60.1 60.3001 60.1 59.6001C60.1 58.9001 59.5 58.3 58.8 58.3Z" fill="#0A165E" fill-opacity="0.2"/>
<path d="M73.9999 0C73.2999 0 72.7 0.600003 72.7 1.3C72.7 2 73.2999 2.60001 73.9999 2.60001C74.6999 2.60001 75.2 2 75.2 1.3C75.2 0.600003 74.6999 0 73.9999 0Z" fill="#0A165E" fill-opacity="0.2"/>
<path d="M73.9999 11.7C73.2999 11.7 72.7 12.3 72.7 13C72.7 13.7 73.2999 14.3 73.9999 14.3C74.6999 14.3 75.2 13.7 75.2 13C75.2 12.3 74.6999 11.7 73.9999 11.7Z" fill="#0A165E" fill-opacity="0.2"/>
<path d="M73.9999 23.3C73.2999 23.3 72.7 23.9001 72.7 24.6001C72.7 25.3001 73.2999 25.9 73.9999 25.9C74.6999 25.9 75.2 25.3001 75.2 24.6001C75.2 23.9001 74.6999 23.3 73.9999 23.3Z" fill="#0A165E" fill-opacity="0.2"/>
<path d="M73.9999 35C73.2999 35 72.7 35.6 72.7 36.3C72.7 37 73.2999 37.6 73.9999 37.6C74.6999 37.6 75.2 37 75.2 36.3C75.2 35.6 74.6999 35 73.9999 35Z" fill="#0A165E" fill-opacity="0.2"/>
<path d="M73.9999 46.7C73.2999 46.7 72.7 47.1999 72.7 47.8999C72.7 48.6999 73.2999 49.2 73.9999 49.2C74.6999 49.2 75.2 48.6999 75.2 47.8999C75.2 47.1999 74.6999 46.7 73.9999 46.7Z" fill="#0A165E" fill-opacity="0.2"/>
<path d="M73.9999 58.3C73.2999 58.3 72.7 58.9001 72.7 59.6001C72.7 60.3001 73.2999 60.9 73.9999 60.9C74.6999 60.9 75.2 60.3001 75.2 59.6001C75.2 58.9001 74.6999 58.3 73.9999 58.3Z" fill="#0A165E" fill-opacity="0.2"/>
<path d="M88.4 23.3C87.7 23.3 87.1 23.9001 87.1 24.6001C87.1 25.3001 87.7 25.9 88.4 25.9C89.1 25.9 89.6 25.3001 89.6 24.6001C89.6 23.9001 89.1 23.3 88.4 23.3Z" fill="#0A165E" fill-opacity="0.2"/>
<path d="M88.4 35C87.7 35 87.1 35.6 87.1 36.3C87.1 37 87.7 37.6 88.4 37.6C89.1 37.6 89.6 37 89.6 36.3C89.6 35.6 89.1 35 88.4 35Z" fill="#0A165E" fill-opacity="0.2"/>
<path d="M88.4 46.7C87.7 46.7 87.1 47.1999 87.1 47.8999C87.1 48.6999 87.7 49.2 88.4 49.2C89.1 49.2 89.6 48.6999 89.6 47.8999C89.6 47.1999 89.1 46.7 88.4 46.7Z" fill="#0A165E" fill-opacity="0.2"/>
<path d="M88.4 58.3C87.7 58.3 87.1 58.9001 87.1 59.6001C87.1 60.3001 87.7 60.9 88.4 60.9C89.1 60.9 89.6 60.3001 89.6 59.6001C89.6 58.9001 89.1 58.3 88.4 58.3Z" fill="#0A165E" fill-opacity="0.2"/>
<path d="M102.7 23.3C102 23.3 101.5 23.9001 101.5 24.6001C101.5 25.3001 102 25.9 102.7 25.9C103.4 25.9 104 25.3001 104 24.6001C104 23.9001 103.4 23.3 102.7 23.3Z" fill="#0A165E" fill-opacity="0.2"/>
<path d="M102.7 35C102 35 101.5 35.6 101.5 36.3C101.5 37 102 37.6 102.7 37.6C103.4 37.6 104 37 104 36.3C104 35.6 103.4 35 102.7 35Z" fill="#0A165E" fill-opacity="0.2"/>
<path d="M102.7 46.7C102 46.7 101.5 47.1999 101.5 47.8999C101.5 48.6999 102 49.2 102.7 49.2C103.4 49.2 104 48.6999 104 47.8999C104 47.1999 103.4 46.7 102.7 46.7Z" fill="#0A165E" fill-opacity="0.2"/>
<path d="M102.7 58.3C102 58.3 101.5 58.9001 101.5 59.6001C101.5 60.3001 102 60.9 102.7 60.9C103.4 60.9 104 60.3001 104 59.6001C104 58.9001 103.4 58.3 102.7 58.3Z" fill="#0A165E" fill-opacity="0.2"/>
<path d="M117.1 23.3C116.4 23.3 115.9 23.9001 115.9 24.6001C115.9 25.3001 116.4 25.9 117.1 25.9C117.8 25.9 118.4 25.3001 118.4 24.6001C118.4 23.9001 117.8 23.3 117.1 23.3Z" fill="#0A165E" fill-opacity="0.2"/>
<path d="M117.1 35C116.4 35 115.9 35.6 115.9 36.3C115.9 37 116.4 37.6 117.1 37.6C117.8 37.6 118.4 37 118.4 36.3C118.4 35.6 117.8 35 117.1 35Z" fill="#0A165E" fill-opacity="0.2"/>
<path d="M117.1 46.7C116.4 46.7 115.9 47.1999 115.9 47.8999C115.9 48.6999 116.4 49.2 117.1 49.2C117.8 49.2 118.4 48.6999 118.4 47.8999C118.4 47.1999 117.8 46.7 117.1 46.7Z" fill="#0A165E" fill-opacity="0.2"/>
<path d="M117.1 58.3C116.4 58.3 115.9 58.9001 115.9 59.6001C115.9 60.3001 116.4 60.9 117.1 60.9C117.8 60.9 118.4 60.3001 118.4 59.6001C118.4 58.9001 117.8 58.3 117.1 58.3Z" fill="#0A165E" fill-opacity="0.2"/>
<path d="M131.5 23.3C130.8 23.3 130.3 23.9001 130.3 24.6001C130.3 25.3001 130.8 25.9 131.5 25.9C132.2 25.9 132.8 25.3001 132.8 24.6001C132.8 23.9001 132.2 23.3 131.5 23.3Z" fill="#0A165E" fill-opacity="0.2"/>
<path d="M131.5 35C130.8 35 130.3 35.6 130.3 36.3C130.3 37 130.8 37.6 131.5 37.6C132.2 37.6 132.8 37 132.8 36.3C132.8 35.6 132.2 35 131.5 35Z" fill="#0A165E" fill-opacity="0.2"/>
<path d="M131.5 46.7C130.8 46.7 130.3 47.1999 130.3 47.8999C130.3 48.6999 130.8 49.2 131.5 49.2C132.2 49.2 132.8 48.6999 132.8 47.8999C132.8 47.1999 132.2 46.7 131.5 46.7Z" fill="#0A165E" fill-opacity="0.2"/>
<path d="M131.5 58.3C130.8 58.3 130.3 58.9001 130.3 59.6001C130.3 60.3001 130.8 60.9 131.5 60.9C132.2 60.9 132.8 60.3001 132.8 59.6001C132.8 58.9001 132.2 58.3 131.5 58.3Z" fill="#0A165E" fill-opacity="0.2"/>
<path d="M1.20001 68.8C0.500012 68.8 0 69.4001 0 70.1001C0 70.8001 0.500012 71.4 1.20001 71.4C1.90001 71.4 2.5 70.8001 2.5 70.1001C2.5 69.4001 1.90001 68.8 1.20001 68.8Z" fill="#0A165E" fill-opacity="0.4"/>
<path d="M1.20001 80.5C0.500012 80.5 0 81 0 81.7C0 82.4 0.500012 83 1.20001 83C1.90001 83 2.5 82.4 2.5 81.7C2.5 81 1.90001 80.5 1.20001 80.5Z" fill="#0A165E" fill-opacity="0.4"/>
<path d="M15.6 68.8C14.9 68.8 14.4 69.4001 14.4 70.1001C14.4 70.8001 14.9 71.4 15.6 71.4C16.3 71.4 16.9 70.8001 16.9 70.1001C16.9 69.4001 16.3 68.8 15.6 68.8Z" fill="#0A165E" fill-opacity="0.4"/>
<path d="M15.6 80.5C14.9 80.5 14.4 81 14.4 81.7C14.4 82.4 14.9 83 15.6 83C16.3 83 16.9 82.4 16.9 81.7C16.9 81 16.3 80.5 15.6 80.5Z" fill="#0A165E" fill-opacity="0.4"/>
<path d="M30.0001 68.8C29.3001 68.8 28.8 69.4001 28.8 70.1001C28.8 70.8001 29.3001 71.4 30.0001 71.4C30.7001 71.4 31.3 70.8001 31.3 70.1001C31.3 69.4001 30.7001 68.8 30.0001 68.8Z" fill="#0A165E" fill-opacity="0.4"/>
<path d="M30.0001 80.5C29.3001 80.5 28.8 81 28.8 81.7C28.8 82.4 29.3001 83 30.0001 83C30.7001 83 31.3 82.4 31.3 81.7C31.3 81 30.7001 80.5 30.0001 80.5Z" fill="#0A165E" fill-opacity="0.4"/>
<path d="M44.4 68.8C43.7 68.8 43.1 69.4001 43.1 70.1001C43.1 70.8001 43.7 71.4 44.4 71.4C45.1 71.4 45.7 70.8001 45.7 70.1001C45.7 69.4001 45.1 68.8 44.4 68.8Z" fill="#0A165E" fill-opacity="0.4"/>
<path d="M44.4 80.5C43.7 80.5 43.1 81 43.1 81.7C43.1 82.4 43.7 83 44.4 83C45.1 83 45.7 82.4 45.7 81.7C45.7 81 45.1 80.5 44.4 80.5Z" fill="#0A165E" fill-opacity="0.4"/>
<path d="M58.8 68.8C58.1 68.8 57.5 69.4001 57.5 70.1001C57.5 70.8001 58.1 71.4 58.8 71.4C59.5 71.4 60.1 70.8001 60.1 70.1001C60.1 69.4001 59.5 68.8 58.8 68.8Z" fill="#0A165E" fill-opacity="0.4"/>
<path d="M58.8 80.5C58.1 80.5 57.5 81 57.5 81.7C57.5 82.4 58.1 83 58.8 83C59.5 83 60.1 82.4 60.1 81.7C60.1 81 59.5 80.5 58.8 80.5Z" fill="#0A165E" fill-opacity="0.4"/>
<path d="M102.7 173.8C102 173.8 101.5 174.4 101.5 175.1C101.5 175.8 102 176.4 102.7 176.4C103.4 176.4 104 175.8 104 175.1C104 174.4 103.4 173.8 102.7 173.8Z" fill="#0A165E" fill-opacity="0.4"/>
<path d="M102.7 185.5C102 185.5 101.5 186 101.5 186.8C101.5 187.5 102 188 102.7 188C103.4 188 104 187.5 104 186.8C104 186 103.4 185.5 102.7 185.5Z" fill="#0A165E" fill-opacity="0.4"/>
<path d="M102.7 197.1C102 197.1 101.5 197.7 101.5 198.4C101.5 199.1 102 199.7 102.7 199.7C103.4 199.7 104 199.1 104 198.4C104 197.7 103.4 197.1 102.7 197.1Z" fill="#0A165E" fill-opacity="0.4"/>
<path d="M117.1 173.8C116.4 173.8 115.9 174.4 115.9 175.1C115.9 175.8 116.4 176.4 117.1 176.4C117.8 176.4 118.4 175.8 118.4 175.1C118.4 174.4 117.8 173.8 117.1 173.8Z" fill="#0A165E" fill-opacity="0.4"/>
<path d="M117.1 185.5C116.4 185.5 115.9 186 115.9 186.8C115.9 187.5 116.4 188 117.1 188C117.8 188 118.4 187.5 118.4 186.8C118.4 186 117.8 185.5 117.1 185.5Z" fill="#0A165E" fill-opacity="0.4"/>
<path d="M117.1 197.1C116.4 197.1 115.9 197.7 115.9 198.4C115.9 199.1 116.4 199.7 117.1 199.7C117.8 199.7 118.4 199.1 118.4 198.4C118.4 197.7 117.8 197.1 117.1 197.1Z" fill="#0A165E" fill-opacity="0.4"/>
<path d="M131.5 173.8C130.8 173.8 130.3 174.4 130.3 175.1C130.3 175.8 130.8 176.4 131.5 176.4C132.2 176.4 132.8 175.8 132.8 175.1C132.8 174.4 132.2 173.8 131.5 173.8Z" fill="#0A165E" fill-opacity="0.4"/>
<path d="M131.5 185.5C130.8 185.5 130.3 186 130.3 186.8C130.3 187.5 130.8 188 131.5 188C132.2 188 132.8 187.5 132.8 186.8C132.8 186 132.2 185.5 131.5 185.5Z" fill="#0A165E" fill-opacity="0.4"/>
<path d="M131.5 197.1C130.8 197.1 130.3 197.7 130.3 198.4C130.3 199.1 130.8 199.7 131.5 199.7C132.2 199.7 132.8 199.1 132.8 198.4C132.8 197.7 132.2 197.1 131.5 197.1Z" fill="#0A165E" fill-opacity="0.4"/>
<path d="M73.9999 68.8C73.2999 68.8 72.7 69.4001 72.7 70.1001C72.7 70.8001 73.2999 71.4 73.9999 71.4C74.6999 71.4 75.2 70.8001 75.2 70.1001C75.2 69.4001 74.6999 68.8 73.9999 68.8Z" fill="#0A165E" fill-opacity="0.4"/>
<path d="M73.9999 80.5C73.2999 80.5 72.7 81 72.7 81.7C72.7 82.4 73.2999 83 73.9999 83C74.6999 83 75.2 82.4 75.2 81.7C75.2 81 74.6999 80.5 73.9999 80.5Z" fill="#0A165E" fill-opacity="0.4"/>
<path d="M73.9999 92.1001C73.2999 92.1001 72.7 92.7001 72.7 93.4001C72.7 94.1001 73.2999 94.7001 73.9999 94.7001C74.6999 94.7001 75.2 94.1001 75.2 93.4001C75.2 92.7001 74.6999 92.1001 73.9999 92.1001Z" fill="#0A165E" fill-opacity="0.4"/>
<path d="M73.9999 103.8C73.2999 103.8 72.7 104.3 72.7 105.1C72.7 105.8 73.2999 106.3 73.9999 106.3C74.6999 106.3 75.2 105.8 75.2 105.1C75.2 104.3 74.6999 103.8 73.9999 103.8Z" fill="#0A165E" fill-opacity="0.4"/>
<path d="M73.9999 115.4C73.2999 115.4 72.7 116 72.7 116.7C72.7 117.4 73.2999 118 73.9999 118C74.6999 118 75.2 117.4 75.2 116.7C75.2 116 74.6999 115.4 73.9999 115.4Z" fill="#0A165E" fill-opacity="0.4"/>
<path d="M73.9999 127.1C73.2999 127.1 72.7 127.7 72.7 128.4C72.7 129.1 73.2999 129.7 73.9999 129.7C74.6999 129.7 75.2 129.1 75.2 128.4C75.2 127.7 74.6999 127.1 73.9999 127.1Z" fill="#0A165E" fill-opacity="0.4"/>
<path d="M88.4 68.8C87.7 68.8 87.1 69.4001 87.1 70.1001C87.1 70.8001 87.7 71.4 88.4 71.4C89.1 71.4 89.6 70.8001 89.6 70.1001C89.6 69.4001 89.1 68.8 88.4 68.8Z" fill="#0A165E" fill-opacity="0.4"/>
<path d="M88.4 80.5C87.7 80.5 87.1 81 87.1 81.7C87.1 82.4 87.7 83 88.4 83C89.1 83 89.6 82.4 89.6 81.7C89.6 81 89.1 80.5 88.4 80.5Z" fill="#0A165E" fill-opacity="0.4"/>
<path d="M88.4 92.1001C87.7 92.1001 87.1 92.7001 87.1 93.4001C87.1 94.1001 87.7 94.7001 88.4 94.7001C89.1 94.7001 89.6 94.1001 89.6 93.4001C89.6 92.7001 89.1 92.1001 88.4 92.1001Z" fill="#0A165E" fill-opacity="0.4"/>
<path d="M88.4 103.8C87.7 103.8 87.1 104.3 87.1 105.1C87.1 105.8 87.7 106.3 88.4 106.3C89.1 106.3 89.6 105.8 89.6 105.1C89.6 104.3 89.1 103.8 88.4 103.8Z" fill="#0A165E" fill-opacity="0.4"/>
<path d="M88.4 115.4C87.7 115.4 87.1 116 87.1 116.7C87.1 117.4 87.7 118 88.4 118C89.1 118 89.6 117.4 89.6 116.7C89.6 116 89.1 115.4 88.4 115.4Z" fill="#0A165E" fill-opacity="0.4"/>
<path d="M88.4 127.1C87.7 127.1 87.1 127.7 87.1 128.4C87.1 129.1 87.7 129.7 88.4 129.7C89.1 129.7 89.6 129.1 89.6 128.4C89.6 127.7 89.1 127.1 88.4 127.1Z" fill="#0A165E" fill-opacity="0.4"/>
<path d="M102.7 68.8C102 68.8 101.5 69.4001 101.5 70.1001C101.5 70.8001 102 71.4 102.7 71.4C103.4 71.4 104 70.8001 104 70.1001C104 69.4001 103.4 68.8 102.7 68.8Z" fill="#0A165E" fill-opacity="0.4"/>
<path d="M102.7 80.5C102 80.5 101.5 81 101.5 81.7C101.5 82.4 102 83 102.7 83C103.4 83 104 82.4 104 81.7C104 81 103.4 80.5 102.7 80.5Z" fill="#0A165E" fill-opacity="0.4"/>
<path d="M102.7 92.1001C102 92.1001 101.5 92.7001 101.5 93.4001C101.5 94.1001 102 94.7001 102.7 94.7001C103.4 94.7001 104 94.1001 104 93.4001C104 92.7001 103.4 92.1001 102.7 92.1001Z" fill="#0A165E" fill-opacity="0.4"/>
<path d="M102.7 103.8C102 103.8 101.5 104.3 101.5 105.1C101.5 105.8 102 106.3 102.7 106.3C103.4 106.3 104 105.8 104 105.1C104 104.3 103.4 103.8 102.7 103.8Z" fill="#0A165E" fill-opacity="0.4"/>
<path d="M117.1 68.8C116.4 68.8 115.9 69.4001 115.9 70.1001C115.9 70.8001 116.4 71.4 117.1 71.4C117.8 71.4 118.4 70.8001 118.4 70.1001C118.4 69.4001 117.8 68.8 117.1 68.8Z" fill="#0A165E" fill-opacity="0.4"/>
<path d="M117.1 80.5C116.4 80.5 115.9 81 115.9 81.7C115.9 82.4 116.4 83 117.1 83C117.8 83 118.4 82.4 118.4 81.7C118.4 81 117.8 80.5 117.1 80.5Z" fill="#0A165E" fill-opacity="0.4"/>
<path d="M117.1 92.1001C116.4 92.1001 115.9 92.7001 115.9 93.4001C115.9 94.1001 116.4 94.7001 117.1 94.7001C117.8 94.7001 118.4 94.1001 118.4 93.4001C118.4 92.7001 117.8 92.1001 117.1 92.1001Z" fill="#0A165E" fill-opacity="0.4"/>
<path d="M117.1 103.8C116.4 103.8 115.9 104.3 115.9 105.1C115.9 105.8 116.4 106.3 117.1 106.3C117.8 106.3 118.4 105.8 118.4 105.1C118.4 104.3 117.8 103.8 117.1 103.8Z" fill="#0A165E" fill-opacity="0.4"/>
<path d="M131.5 68.8C130.8 68.8 130.3 69.4001 130.3 70.1001C130.3 70.8001 130.8 71.4 131.5 71.4C132.2 71.4 132.8 70.8001 132.8 70.1001C132.8 69.4001 132.2 68.8 131.5 68.8Z" fill="#0A165E" fill-opacity="0.4"/>
<path d="M131.5 80.5C130.8 80.5 130.3 81 130.3 81.7C130.3 82.4 130.8 83 131.5 83C132.2 83 132.8 82.4 132.8 81.7C132.8 81 132.2 80.5 131.5 80.5Z" fill="#0A165E" fill-opacity="0.4"/>
<path d="M131.5 92.1001C130.8 92.1001 130.3 92.7001 130.3 93.4001C130.3 94.1001 130.8 94.7001 131.5 94.7001C132.2 94.7001 132.8 94.1001 132.8 93.4001C132.8 92.7001 132.2 92.1001 131.5 92.1001Z" fill="#0A165E" fill-opacity="0.4"/>
<path d="M131.5 103.8C130.8 103.8 130.3 104.3 130.3 105.1C130.3 105.8 130.8 106.3 131.5 106.3C132.2 106.3 132.8 105.8 132.8 105.1C132.8 104.3 132.2 103.8 131.5 103.8Z" fill="#0A165E" fill-opacity="0.4"/>
<path d="M1.20001 46.7C0.500012 46.7 0 47.1999 0 47.8999C0 48.6999 0.500012 49.2 1.20001 49.2C1.90001 49.2 2.5 48.6999 2.5 47.8999C2.5 47.1999 1.90001 46.7 1.20001 46.7Z" fill="#0A165E" fill-opacity="0.4"/>
<path d="M1.20001 58.3C0.500012 58.3 0 58.9001 0 59.6001C0 60.3001 0.500012 60.9 1.20001 60.9C1.90001 60.9 2.5 60.3001 2.5 59.6001C2.5 58.9001 1.90001 58.3 1.20001 58.3Z" fill="#0A165E" fill-opacity="0.4"/>
<path d="M15.6 46.7C14.9 46.7 14.4 47.1999 14.4 47.8999C14.4 48.6999 14.9 49.2 15.6 49.2C16.3 49.2 16.9 48.6999 16.9 47.8999C16.9 47.1999 16.3 46.7 15.6 46.7Z" fill="#0A165E" fill-opacity="0.4"/>
<path d="M15.6 58.3C14.9 58.3 14.4 58.9001 14.4 59.6001C14.4 60.3001 14.9 60.9 15.6 60.9C16.3 60.9 16.9 60.3001 16.9 59.6001C16.9 58.9001 16.3 58.3 15.6 58.3Z" fill="#0A165E" fill-opacity="0.4"/>
<path d="M30.0001 46.7C29.3001 46.7 28.8 47.1999 28.8 47.8999C28.8 48.6999 29.3001 49.2 30.0001 49.2C30.7001 49.2 31.3 48.6999 31.3 47.8999C31.3 47.1999 30.7001 46.7 30.0001 46.7Z" fill="#0A165E" fill-opacity="0.4"/>
<path d="M30.0001 58.3C29.3001 58.3 28.8 58.9001 28.8 59.6001C28.8 60.3001 29.3001 60.9 30.0001 60.9C30.7001 60.9 31.3 60.3001 31.3 59.6001C31.3 58.9001 30.7001 58.3 30.0001 58.3Z" fill="#0A165E" fill-opacity="0.4"/>
<path d="M88.4 23.3C87.7 23.3 87.1 23.9001 87.1 24.6001C87.1 25.3001 87.7 25.9 88.4 25.9C89.1 25.9 89.6 25.3001 89.6 24.6001C89.6 23.9001 89.1 23.3 88.4 23.3Z" fill="#0A165E" fill-opacity="0.4"/>
<path d="M88.4 35C87.7 35 87.1 35.6 87.1 36.3C87.1 37 87.7 37.6 88.4 37.6C89.1 37.6 89.6 37 89.6 36.3C89.6 35.6 89.1 35 88.4 35Z" fill="#0A165E" fill-opacity="0.4"/>
<path d="M88.4 46.7C87.7 46.7 87.1 47.1999 87.1 47.8999C87.1 48.6999 87.7 49.2 88.4 49.2C89.1 49.2 89.6 48.6999 89.6 47.8999C89.6 47.1999 89.1 46.7 88.4 46.7Z" fill="#0A165E" fill-opacity="0.4"/>
<path d="M88.4 58.3C87.7 58.3 87.1 58.9001 87.1 59.6001C87.1 60.3001 87.7 60.9 88.4 60.9C89.1 60.9 89.6 60.3001 89.6 59.6001C89.6 58.9001 89.1 58.3 88.4 58.3Z" fill="#0A165E" fill-opacity="0.4"/>
<path d="M102.7 23.3C102 23.3 101.5 23.9001 101.5 24.6001C101.5 25.3001 102 25.9 102.7 25.9C103.4 25.9 104 25.3001 104 24.6001C104 23.9001 103.4 23.3 102.7 23.3Z" fill="#0A165E" fill-opacity="0.4"/>
<path d="M102.7 35C102 35 101.5 35.6 101.5 36.3C101.5 37 102 37.6 102.7 37.6C103.4 37.6 104 37 104 36.3C104 35.6 103.4 35 102.7 35Z" fill="#0A165E" fill-opacity="0.4"/>
<path d="M102.7 46.7C102 46.7 101.5 47.1999 101.5 47.8999C101.5 48.6999 102 49.2 102.7 49.2C103.4 49.2 104 48.6999 104 47.8999C104 47.1999 103.4 46.7 102.7 46.7Z" fill="#0A165E" fill-opacity="0.4"/>
<path d="M102.7 58.3C102 58.3 101.5 58.9001 101.5 59.6001C101.5 60.3001 102 60.9 102.7 60.9C103.4 60.9 104 60.3001 104 59.6001C104 58.9001 103.4 58.3 102.7 58.3Z" fill="#0A165E" fill-opacity="0.4"/>
</svg>
