<svg width="104" height="107" viewBox="0 0 104 107" fill="none" xmlns="http://www.w3.org/2000/svg">
<path d="M102.8 45.5C103.5 45.5 104 46 104 46.7C104 47.4 103.5 48 102.8 48C102.1 48 101.5 47.4 101.5 46.7C101.5 46 102.1 45.5 102.8 45.5Z" fill="#0A165E" fill-opacity="0.2"/>
<path d="M102.8 57.1C103.5 57.1 104 57.7 104 58.4C104 59.1 103.5 59.7 102.8 59.7C102.1 59.7 101.5 59.1 101.5 58.4C101.5 57.7 102.1 57.1 102.8 57.1Z" fill="#0A165E" fill-opacity="0.2"/>
<path d="M88.4001 45.5C89.1001 45.5 89.6001 46 89.6001 46.7C89.6001 47.4 89.1001 48 88.4001 48C87.7001 48 87.1001 47.4 87.1001 46.7C87.1001 46 87.7001 45.5 88.4001 45.5Z" fill="#0A165E" fill-opacity="0.2"/>
<path d="M88.4001 57.1C89.1001 57.1 89.6001 57.7 89.6001 58.4C89.6001 59.1 89.1001 59.7 88.4001 59.7C87.7001 59.7 87.1001 59.1 87.1001 58.4C87.1001 57.7 87.7001 57.1 88.4001 57.1Z" fill="#0A165E" fill-opacity="0.2"/>
<path d="M74 45.5C74.7 45.5 75.3 46 75.3 46.7C75.3 47.4 74.7 48 74 48C73.3 48 72.7001 47.4 72.7001 46.7C72.7001 46 73.3 45.5 74 45.5Z" fill="#0A165E" fill-opacity="0.2"/>
<path d="M74 57.1C74.7 57.1 75.3 57.7 75.3 58.4C75.3 59.1 74.7 59.7 74 59.7C73.3 59.7 72.7001 59.1 72.7001 58.4C72.7001 57.7 73.3 57.1 74 57.1Z" fill="#0A165E" fill-opacity="0.2"/>
<path d="M58.8002 45.5C59.5002 45.5 60.1001 46 60.1001 46.7C60.1001 47.4 59.5002 48 58.8002 48C58.1002 48 57.6001 47.4 57.6001 46.7C57.6001 46 58.1002 45.5 58.8002 45.5Z" fill="#0A165E" fill-opacity="0.2"/>
<path d="M58.8002 57.1C59.5002 57.1 60.1001 57.7 60.1001 58.4C60.1001 59.1 59.5002 59.7 58.8002 59.7C58.1002 59.7 57.6001 59.1 57.6001 58.4C57.6001 57.7 58.1002 57.1 58.8002 57.1Z" fill="#0A165E" fill-opacity="0.2"/>
<path d="M58.8002 68.8C59.5002 68.8 60.1001 69.3 60.1001 70.1C60.1001 70.8 59.5002 71.3 58.8002 71.3C58.1002 71.3 57.6001 70.8 57.6001 70.1C57.6001 69.3 58.1002 68.8 58.8002 68.8Z" fill="#0A165E" fill-opacity="0.2"/>
<path d="M58.8002 80.4C59.5002 80.4 60.1001 81 60.1001 81.7C60.1001 82.4 59.5002 83 58.8002 83C58.1002 83 57.6001 82.4 57.6001 81.7C57.6001 81 58.1002 80.4 58.8002 80.4Z" fill="#0A165E" fill-opacity="0.2"/>
<path d="M58.8002 92.1C59.5002 92.1 60.1001 92.7 60.1001 93.4C60.1001 94.1 59.5002 94.7 58.8002 94.7C58.1002 94.7 57.6001 94.1 57.6001 93.4C57.6001 92.7 58.1002 92.1 58.8002 92.1Z" fill="#0A165E" fill-opacity="0.2"/>
<path d="M58.8002 103.7C59.5002 103.7 60.1001 104.3 60.1001 105C60.1001 105.7 59.5002 106.3 58.8002 106.3C58.1002 106.3 57.6001 105.7 57.6001 105C57.6001 104.3 58.1002 103.7 58.8002 103.7Z" fill="#0A165E" fill-opacity="0.2"/>
<path d="M44.4001 45.5C45.1001 45.5 45.7002 46 45.7002 46.7C45.7002 47.4 45.1001 48 44.4001 48C43.7001 48 43.2002 47.4 43.2002 46.7C43.2002 46 43.7001 45.5 44.4001 45.5Z" fill="#0A165E" fill-opacity="0.2"/>
<path d="M44.4001 57.1C45.1001 57.1 45.7002 57.7 45.7002 58.4C45.7002 59.1 45.1001 59.7 44.4001 59.7C43.7001 59.7 43.2002 59.1 43.2002 58.4C43.2002 57.7 43.7001 57.1 44.4001 57.1Z" fill="#0A165E" fill-opacity="0.2"/>
<path d="M44.4001 68.8C45.1001 68.8 45.7002 69.3 45.7002 70.1C45.7002 70.8 45.1001 71.3 44.4001 71.3C43.7001 71.3 43.2002 70.8 43.2002 70.1C43.2002 69.3 43.7001 68.8 44.4001 68.8Z" fill="#0A165E" fill-opacity="0.2"/>
<path d="M44.4001 80.4C45.1001 80.4 45.7002 81 45.7002 81.7C45.7002 82.4 45.1001 83 44.4001 83C43.7001 83 43.2002 82.4 43.2002 81.7C43.2002 81 43.7001 80.4 44.4001 80.4Z" fill="#0A165E" fill-opacity="0.2"/>
<path d="M44.4001 92.1C45.1001 92.1 45.7002 92.7 45.7002 93.4C45.7002 94.1 45.1001 94.7 44.4001 94.7C43.7001 94.7 43.2002 94.1 43.2002 93.4C43.2002 92.7 43.7001 92.1 44.4001 92.1Z" fill="#0A165E" fill-opacity="0.2"/>
<path d="M44.4001 103.7C45.1001 103.7 45.7002 104.3 45.7002 105C45.7002 105.7 45.1001 106.3 44.4001 106.3C43.7001 106.3 43.2002 105.7 43.2002 105C43.2002 104.3 43.7001 103.7 44.4001 103.7Z" fill="#0A165E" fill-opacity="0.2"/>
<path d="M30 45.5C30.7 45.5 31.3 46 31.3 46.7C31.3 47.4 30.7 48 30 48C29.3 48 28.8 47.4 28.8 46.7C28.8 46 29.3 45.5 30 45.5Z" fill="#0A165E" fill-opacity="0.2"/>
<path d="M30 57.1C30.7 57.1 31.3 57.7 31.3 58.4C31.3 59.1 30.7 59.7 30 59.7C29.3 59.7 28.8 59.1 28.8 58.4C28.8 57.7 29.3 57.1 30 57.1Z" fill="#0A165E" fill-opacity="0.2"/>
<path d="M30 68.8C30.7 68.8 31.3 69.3 31.3 70.1C31.3 70.8 30.7 71.3 30 71.3C29.3 71.3 28.8 70.8 28.8 70.1C28.8 69.3 29.3 68.8 30 68.8Z" fill="#0A165E" fill-opacity="0.2"/>
<path d="M30 80.4C30.7 80.4 31.3 81 31.3 81.7C31.3 82.4 30.7 83 30 83C29.3 83 28.8 82.4 28.8 81.7C28.8 81 29.3 80.4 30 80.4Z" fill="#0A165E" fill-opacity="0.2"/>
<path d="M15.7 45.5C16.4 45.5 16.8999 46 16.8999 46.7C16.8999 47.4 16.4 48 15.7 48C15 48 14.3999 47.4 14.3999 46.7C14.3999 46 15 45.5 15.7 45.5Z" fill="#0A165E" fill-opacity="0.2"/>
<path d="M15.7 57.1C16.4 57.1 16.8999 57.7 16.8999 58.4C16.8999 59.1 16.4 59.7 15.7 59.7C15 59.7 14.3999 59.1 14.3999 58.4C14.3999 57.7 15 57.1 15.7 57.1Z" fill="#0A165E" fill-opacity="0.2"/>
<path d="M15.7 68.8C16.4 68.8 16.8999 69.3 16.8999 70.1C16.8999 70.8 16.4 71.3 15.7 71.3C15 71.3 14.3999 70.8 14.3999 70.1C14.3999 69.3 15 68.8 15.7 68.8Z" fill="#0A165E" fill-opacity="0.2"/>
<path d="M15.7 80.4C16.4 80.4 16.8999 81 16.8999 81.7C16.8999 82.4 16.4 83 15.7 83C15 83 14.3999 82.4 14.3999 81.7C14.3999 81 15 80.4 15.7 80.4Z" fill="#0A165E" fill-opacity="0.2"/>
<path d="M1.30005 45.5C2.00005 45.5 2.5 46 2.5 46.7C2.5 47.4 2.00005 48 1.30005 48C0.600049 48 0 47.4 0 46.7C0 46 0.600049 45.5 1.30005 45.5Z" fill="#0A165E" fill-opacity="0.2"/>
<path d="M1.30005 57.1C2.00005 57.1 2.5 57.7 2.5 58.4C2.5 59.1 2.00005 59.7 1.30005 59.7C0.600049 59.7 0 59.1 0 58.4C0 57.7 0.600049 57.1 1.30005 57.1Z" fill="#0A165E" fill-opacity="0.2"/>
<path d="M1.30005 68.8C2.00005 68.8 2.5 69.3 2.5 70.1C2.5 70.8 2.00005 71.3 1.30005 71.3C0.600049 71.3 0 70.8 0 70.1C0 69.3 0.600049 68.8 1.30005 68.8Z" fill="#0A165E" fill-opacity="0.2"/>
<path d="M1.30005 80.4C2.00005 80.4 2.5 81 2.5 81.7C2.5 82.4 2.00005 83 1.30005 83C0.600049 83 0 82.4 0 81.7C0 81 0.600049 80.4 1.30005 80.4Z" fill="#0A165E" fill-opacity="0.2"/>
<path d="M102.8 23.3C103.5 23.3 104 23.9 104 24.6C104 25.3 103.5 25.9 102.8 25.9C102.1 25.9 101.5 25.3 101.5 24.6C101.5 23.9 102.1 23.3 102.8 23.3Z" fill="#0A165E" fill-opacity="0.2"/>
<path d="M102.8 35C103.5 35 104 35.5 104 36.3C104 37 103.5 37.5 102.8 37.5C102.1 37.5 101.5 37 101.5 36.3C101.5 35.5 102.1 35 102.8 35Z" fill="#0A165E" fill-opacity="0.2"/>
<path d="M88.4001 23.3C89.1001 23.3 89.6001 23.9 89.6001 24.6C89.6001 25.3 89.1001 25.9 88.4001 25.9C87.7001 25.9 87.1001 25.3 87.1001 24.6C87.1001 23.9 87.7001 23.3 88.4001 23.3Z" fill="#0A165E" fill-opacity="0.2"/>
<path d="M88.4001 35C89.1001 35 89.6001 35.5 89.6001 36.3C89.6001 37 89.1001 37.5 88.4001 37.5C87.7001 37.5 87.1001 37 87.1001 36.3C87.1001 35.5 87.7001 35 88.4001 35Z" fill="#0A165E" fill-opacity="0.2"/>
<path d="M74 0C74.7 0 75.3 0.600003 75.3 1.3C75.3 2 74.7 2.59999 74 2.59999C73.3 2.59999 72.7001 2 72.7001 1.3C72.7001 0.600003 73.3 0 74 0Z" fill="#0A165E" fill-opacity="0.2"/>
<path d="M74 11.7C74.7 11.7 75.3 12.2 75.3 12.9C75.3 13.6 74.7 14.2 74 14.2C73.3 14.2 72.7001 13.6 72.7001 12.9C72.7001 12.2 73.3 11.7 74 11.7Z" fill="#0A165E" fill-opacity="0.2"/>
<path d="M74 23.3C74.7 23.3 75.3 23.9 75.3 24.6C75.3 25.3 74.7 25.9 74 25.9C73.3 25.9 72.7001 25.3 72.7001 24.6C72.7001 23.9 73.3 23.3 74 23.3Z" fill="#0A165E" fill-opacity="0.2"/>
<path d="M74 35C74.7 35 75.3 35.5 75.3 36.3C75.3 37 74.7 37.5 74 37.5C73.3 37.5 72.7001 37 72.7001 36.3C72.7001 35.5 73.3 35 74 35Z" fill="#0A165E" fill-opacity="0.2"/>
<path d="M58.8002 35C59.5002 35 60.1001 35.5 60.1001 36.3C60.1001 37 59.5002 37.5 58.8002 37.5C58.1002 37.5 57.6001 37 57.6001 36.3C57.6001 35.5 58.1002 35 58.8002 35Z" fill="#0A165E" fill-opacity="0.2"/>
<path d="M44.4001 35C45.1001 35 45.7002 35.5 45.7002 36.3C45.7002 37 45.1001 37.5 44.4001 37.5C43.7001 37.5 43.2002 37 43.2002 36.3C43.2002 35.5 43.7001 35 44.4001 35Z" fill="#0A165E" fill-opacity="0.2"/>
<path d="M30 35C30.7 35 31.3 35.5 31.3 36.3C31.3 37 30.7 37.5 30 37.5C29.3 37.5 28.8 37 28.8 36.3C28.8 35.5 29.3 35 30 35Z" fill="#0A165E" fill-opacity="0.2"/>
<path d="M15.7 35C16.4 35 16.8999 35.5 16.8999 36.3C16.8999 37 16.4 37.5 15.7 37.5C15 37.5 14.3999 37 14.3999 36.3C14.3999 35.5 15 35 15.7 35Z" fill="#0A165E" fill-opacity="0.2"/>
<path d="M1.30005 35C2.00005 35 2.5 35.5 2.5 36.3C2.5 37 2.00005 37.5 1.30005 37.5C0.600049 37.5 0 37 0 36.3C0 35.5 0.600049 35 1.30005 35Z" fill="#0A165E" fill-opacity="0.2"/>
<path d="M102.8 45.5C103.5 45.5 104 46 104 46.7C104 47.4 103.5 48 102.8 48C102.1 48 101.5 47.4 101.5 46.7C101.5 46 102.1 45.5 102.8 45.5Z" fill="#0A165E" fill-opacity="0.4"/>
<path d="M102.8 57.1C103.5 57.1 104 57.7 104 58.4C104 59.1 103.5 59.7 102.8 59.7C102.1 59.7 101.5 59.1 101.5 58.4C101.5 57.7 102.1 57.1 102.8 57.1Z" fill="#0A165E" fill-opacity="0.4"/>
<path d="M88.4001 45.5C89.1001 45.5 89.6001 46 89.6001 46.7C89.6001 47.4 89.1001 48 88.4001 48C87.7001 48 87.1001 47.4 87.1001 46.7C87.1001 46 87.7001 45.5 88.4001 45.5Z" fill="#0A165E" fill-opacity="0.4"/>
<path d="M88.4001 57.1C89.1001 57.1 89.6001 57.7 89.6001 58.4C89.6001 59.1 89.1001 59.7 88.4001 59.7C87.7001 59.7 87.1001 59.1 87.1001 58.4C87.1001 57.7 87.7001 57.1 88.4001 57.1Z" fill="#0A165E" fill-opacity="0.4"/>
<path d="M74 45.5C74.7 45.5 75.3 46 75.3 46.7C75.3 47.4 74.7 48 74 48C73.3 48 72.7001 47.4 72.7001 46.7C72.7001 46 73.3 45.5 74 45.5Z" fill="#0A165E" fill-opacity="0.4"/>
<path d="M74 57.1C74.7 57.1 75.3 57.7 75.3 58.4C75.3 59.1 74.7 59.7 74 59.7C73.3 59.7 72.7001 59.1 72.7001 58.4C72.7001 57.7 73.3 57.1 74 57.1Z" fill="#0A165E" fill-opacity="0.4"/>
<path d="M58.8002 45.5C59.5002 45.5 60.1001 46 60.1001 46.7C60.1001 47.4 59.5002 48 58.8002 48C58.1002 48 57.6001 47.4 57.6001 46.7C57.6001 46 58.1002 45.5 58.8002 45.5Z" fill="#0A165E" fill-opacity="0.4"/>
<path d="M58.8002 57.1C59.5002 57.1 60.1001 57.7 60.1001 58.4C60.1001 59.1 59.5002 59.7 58.8002 59.7C58.1002 59.7 57.6001 59.1 57.6001 58.4C57.6001 57.7 58.1002 57.1 58.8002 57.1Z" fill="#0A165E" fill-opacity="0.4"/>
<path d="M58.8002 68.8C59.5002 68.8 60.1001 69.3 60.1001 70.1C60.1001 70.8 59.5002 71.3 58.8002 71.3C58.1002 71.3 57.6001 70.8 57.6001 70.1C57.6001 69.3 58.1002 68.8 58.8002 68.8Z" fill="#0A165E" fill-opacity="0.4"/>
<path d="M58.8002 80.4C59.5002 80.4 60.1001 81 60.1001 81.7C60.1001 82.4 59.5002 83 58.8002 83C58.1002 83 57.6001 82.4 57.6001 81.7C57.6001 81 58.1002 80.4 58.8002 80.4Z" fill="#0A165E" fill-opacity="0.4"/>
<path d="M58.8002 92.1C59.5002 92.1 60.1001 92.7 60.1001 93.4C60.1001 94.1 59.5002 94.7 58.8002 94.7C58.1002 94.7 57.6001 94.1 57.6001 93.4C57.6001 92.7 58.1002 92.1 58.8002 92.1Z" fill="#0A165E" fill-opacity="0.4"/>
<path d="M58.8002 103.7C59.5002 103.7 60.1001 104.3 60.1001 105C60.1001 105.7 59.5002 106.3 58.8002 106.3C58.1002 106.3 57.6001 105.7 57.6001 105C57.6001 104.3 58.1002 103.7 58.8002 103.7Z" fill="#0A165E" fill-opacity="0.4"/>
<path d="M44.4001 45.5C45.1001 45.5 45.7002 46 45.7002 46.7C45.7002 47.4 45.1001 48 44.4001 48C43.7001 48 43.2002 47.4 43.2002 46.7C43.2002 46 43.7001 45.5 44.4001 45.5Z" fill="#0A165E" fill-opacity="0.4"/>
<path d="M44.4001 57.1C45.1001 57.1 45.7002 57.7 45.7002 58.4C45.7002 59.1 45.1001 59.7 44.4001 59.7C43.7001 59.7 43.2002 59.1 43.2002 58.4C43.2002 57.7 43.7001 57.1 44.4001 57.1Z" fill="#0A165E" fill-opacity="0.4"/>
<path d="M44.4001 68.8C45.1001 68.8 45.7002 69.3 45.7002 70.1C45.7002 70.8 45.1001 71.3 44.4001 71.3C43.7001 71.3 43.2002 70.8 43.2002 70.1C43.2002 69.3 43.7001 68.8 44.4001 68.8Z" fill="#0A165E" fill-opacity="0.4"/>
<path d="M44.4001 80.4C45.1001 80.4 45.7002 81 45.7002 81.7C45.7002 82.4 45.1001 83 44.4001 83C43.7001 83 43.2002 82.4 43.2002 81.7C43.2002 81 43.7001 80.4 44.4001 80.4Z" fill="#0A165E" fill-opacity="0.4"/>
<path d="M44.4001 92.1C45.1001 92.1 45.7002 92.7 45.7002 93.4C45.7002 94.1 45.1001 94.7 44.4001 94.7C43.7001 94.7 43.2002 94.1 43.2002 93.4C43.2002 92.7 43.7001 92.1 44.4001 92.1Z" fill="#0A165E" fill-opacity="0.4"/>
<path d="M44.4001 103.7C45.1001 103.7 45.7002 104.3 45.7002 105C45.7002 105.7 45.1001 106.3 44.4001 106.3C43.7001 106.3 43.2002 105.7 43.2002 105C43.2002 104.3 43.7001 103.7 44.4001 103.7Z" fill="#0A165E" fill-opacity="0.4"/>
<path d="M30 45.5C30.7 45.5 31.3 46 31.3 46.7C31.3 47.4 30.7 48 30 48C29.3 48 28.8 47.4 28.8 46.7C28.8 46 29.3 45.5 30 45.5Z" fill="#0A165E" fill-opacity="0.4"/>
<path d="M30 57.1C30.7 57.1 31.3 57.7 31.3 58.4C31.3 59.1 30.7 59.7 30 59.7C29.3 59.7 28.8 59.1 28.8 58.4C28.8 57.7 29.3 57.1 30 57.1Z" fill="#0A165E" fill-opacity="0.4"/>
<path d="M30 68.8C30.7 68.8 31.3 69.3 31.3 70.1C31.3 70.8 30.7 71.3 30 71.3C29.3 71.3 28.8 70.8 28.8 70.1C28.8 69.3 29.3 68.8 30 68.8Z" fill="#0A165E" fill-opacity="0.4"/>
<path d="M30 80.4C30.7 80.4 31.3 81 31.3 81.7C31.3 82.4 30.7 83 30 83C29.3 83 28.8 82.4 28.8 81.7C28.8 81 29.3 80.4 30 80.4Z" fill="#0A165E" fill-opacity="0.4"/>
<path d="M74 0C74.7 0 75.3 0.600003 75.3 1.3C75.3 2 74.7 2.59999 74 2.59999C73.3 2.59999 72.7001 2 72.7001 1.3C72.7001 0.600003 73.3 0 74 0Z" fill="#0A165E" fill-opacity="0.4"/>
<path d="M58.8002 35C59.5002 35 60.1001 35.5 60.1001 36.3C60.1001 37 59.5002 37.5 58.8002 37.5C58.1002 37.5 57.6001 37 57.6001 36.3C57.6001 35.5 58.1002 35 58.8002 35Z" fill="#0A165E" fill-opacity="0.4"/>
<path d="M44.4001 35C45.1001 35 45.7002 35.5 45.7002 36.3C45.7002 37 45.1001 37.5 44.4001 37.5C43.7001 37.5 43.2002 37 43.2002 36.3C43.2002 35.5 43.7001 35 44.4001 35Z" fill="#0A165E" fill-opacity="0.4"/>
<path d="M30 35C30.7 35 31.3 35.5 31.3 36.3C31.3 37 30.7 37.5 30 37.5C29.3 37.5 28.8 37 28.8 36.3C28.8 35.5 29.3 35 30 35Z" fill="#0A165E" fill-opacity="0.4"/>
<path d="M15.7 35C16.4 35 16.8999 35.5 16.8999 36.3C16.8999 37 16.4 37.5 15.7 37.5C15 37.5 14.3999 37 14.3999 36.3C14.3999 35.5 15 35 15.7 35Z" fill="#0A165E" fill-opacity="0.4"/>
<path d="M1.30005 35C2.00005 35 2.5 35.5 2.5 36.3C2.5 37 2.00005 37.5 1.30005 37.5C0.600049 37.5 0 37 0 36.3C0 35.5 0.600049 35 1.30005 35Z" fill="#0A165E" fill-opacity="0.4"/>
</svg>
