<svg width="18" height="17" viewBox="0 0 18 17" fill="none" xmlns="http://www.w3.org/2000/svg">
<path d="M15.668 9.8356V15.6689C15.668 16.1292 15.2949 16.5023 14.8347 16.5023H3.16797C2.70774 16.5023 2.33464 16.1292 2.33464 15.6689V9.8356H15.668ZM11.0847 0.668945C12.6955 0.668945 14.0013 1.97478 14.0013 3.58561C14.0013 4.03328 13.9005 4.4574 13.7202 4.83648L16.5013 4.83561C16.9616 4.83561 17.3347 5.2087 17.3347 5.66895V8.16894C17.3347 8.62919 16.9616 9.00227 16.5013 9.00227H1.5013C1.04107 9.00227 0.667969 8.62919 0.667969 8.16894V5.66895C0.667969 5.2087 1.04107 4.83561 1.5013 4.83561L4.28239 4.83648C4.10216 4.4574 4.0013 4.03328 4.0013 3.58561C4.0013 1.97478 5.30714 0.668945 6.91797 0.668945C7.73465 0.668945 8.4729 1.00458 9.00232 1.54543C9.52974 1.00458 10.268 0.668945 11.0847 0.668945ZM6.91797 2.33561C6.22762 2.33561 5.66797 2.89525 5.66797 3.58561C5.66797 4.23535 6.16371 4.76932 6.79759 4.82989L6.91797 4.83561H8.16799V3.58561C8.16799 2.93586 7.67224 2.4019 7.03835 2.34133L6.91797 2.33561ZM11.0847 2.33561L10.9642 2.34133C10.37 2.39812 9.89715 2.87097 9.84032 3.46523L9.83465 3.58561V4.83561H11.0847L11.205 4.82989C11.8389 4.76932 12.3347 4.23535 12.3347 3.58561C12.3347 2.93586 11.8389 2.4019 11.205 2.34133L11.0847 2.33561Z" fill="#2B4DFF"/>
</svg>
