<svg width="150" height="36" viewBox="0 0 150 36" fill="none" xmlns="http://www.w3.org/2000/svg">
<path fill-rule="evenodd" clip-rule="evenodd" d="M10.6564 36C10.6169 36 10.5775 35.9951 10.5381 35.9859C10.3348 35.9367 10.1925 35.7694 10.1925 35.5782V21.5024H0.464127C0.297155 21.5024 0.142552 21.4208 0.0606124 21.2886C-0.0221005 21.1565 -0.0197816 20.9948 0.0652503 20.864L13.6294 0.205804C13.7361 0.0427036 13.9494 -0.0353315 14.1504 0.0152859C14.3522 0.0659032 14.4913 0.231816 14.4913 0.421631V14.5544H23.5356C23.701 14.5544 23.8541 14.6346 23.9368 14.7646C24.0203 14.894 24.0211 15.0543 23.9391 15.185L11.0599 35.7863C10.9764 35.9206 10.8202 36 10.6564 36Z" fill="white"/>
<path d="M43.856 30.108C41.744 30.108 39.9093 29.7347 38.352 28.988C36.816 28.2413 35.536 27.2707 34.512 26.076C33.5093 24.86 32.752 23.5587 32.24 22.172C31.7493 20.764 31.504 19.4093 31.504 18.108V17.404C31.504 15.9747 31.76 14.556 32.272 13.148C32.784 11.7187 33.552 10.428 34.576 9.276C35.6213 8.124 36.912 7.20667 38.448 6.524C39.984 5.82 41.7867 5.468 43.856 5.468C45.904 5.468 47.696 5.82 49.232 6.524C50.768 7.20667 52.048 8.124 53.072 9.276C54.1173 10.428 54.896 11.7187 55.408 13.148C55.92 14.556 56.176 15.9747 56.176 17.404V18.108C56.176 19.4093 55.92 20.764 55.408 22.172C54.9173 23.5587 54.16 24.86 53.136 26.076C52.1333 27.2707 50.8533 28.2413 49.296 28.988C47.76 29.7347 45.9467 30.108 43.856 30.108ZM43.856 25.884C45.0507 25.884 46.1173 25.6707 47.056 25.244C48.016 24.8173 48.8267 24.2307 49.488 23.484C50.1707 22.716 50.6827 21.852 51.024 20.892C51.3867 19.9107 51.568 18.876 51.568 17.788C51.568 16.6147 51.3867 15.5373 51.024 14.556C50.6827 13.5747 50.1707 12.7213 49.488 11.996C48.8267 11.2707 48.016 10.7053 47.056 10.3C46.096 9.89467 45.0293 9.692 43.856 9.692C42.6613 9.692 41.584 9.89467 40.624 10.3C39.664 10.7053 38.8427 11.2707 38.16 11.996C37.4987 12.7213 36.9867 13.5747 36.624 14.556C36.2827 15.5373 36.112 16.6147 36.112 17.788C36.112 18.876 36.2827 19.9107 36.624 20.892C36.9867 21.852 37.4987 22.716 38.16 23.484C38.8427 24.2307 39.664 24.8173 40.624 25.244C41.584 25.6707 42.6613 25.884 43.856 25.884ZM59.2555 35.9V12.124H62.7755V19.612L62.2315 19.58C62.3168 17.8093 62.6795 16.3267 63.3195 15.132C63.9808 13.9373 64.8555 13.052 65.9435 12.476C67.0315 11.8787 68.2475 11.58 69.5915 11.58C70.8288 11.58 71.9382 11.804 72.9195 12.252C73.9222 12.7 74.7755 13.3293 75.4795 14.14C76.2048 14.9507 76.7595 15.9 77.1435 16.988C77.5275 18.0547 77.7195 19.2067 77.7195 20.444V21.116C77.7195 22.3747 77.5275 23.548 77.1435 24.636C76.7808 25.7027 76.2368 26.652 75.5115 27.484C74.8075 28.2947 73.9542 28.9347 72.9515 29.404C71.9488 29.852 70.8288 30.076 69.5915 30.076C68.2902 30.076 67.0955 29.8093 66.0075 29.276C64.9408 28.7213 64.0768 27.8787 63.4155 26.748C62.7542 25.596 62.3808 24.1133 62.2955 22.3L63.7035 24.444V35.9H59.2555ZM68.4715 26.332C69.4315 26.332 70.2635 26.0973 70.9675 25.628C71.6928 25.1587 72.2582 24.508 72.6635 23.676C73.0688 22.8227 73.2715 21.8627 73.2715 20.796C73.2715 19.6867 73.0688 18.7267 72.6635 17.916C72.2582 17.1053 71.6928 16.476 70.9675 16.028C70.2635 15.5587 69.4315 15.324 68.4715 15.324C67.5968 15.324 66.7862 15.516 66.0395 15.9C65.3142 16.284 64.7168 16.8493 64.2475 17.596C63.7995 18.3427 63.5755 19.2387 63.5755 20.284V21.564C63.5755 22.5667 63.8102 23.42 64.2795 24.124C64.7488 24.828 65.3568 25.372 66.1035 25.756C66.8502 26.14 67.6395 26.332 68.4715 26.332ZM88.2225 29.724C86.6225 29.724 85.2998 29.5213 84.2545 29.116C83.2305 28.6893 82.4625 27.9853 81.9505 27.004C81.4385 26.0013 81.1825 24.6573 81.1825 22.972L81.2145 7.228H85.3745L85.3425 23.26C85.3425 24.1133 85.5665 24.7747 86.0145 25.244C86.4838 25.692 87.1452 25.916 87.9985 25.916H90.7185V29.724H88.2225ZM78.4305 15.388V12.124H90.7185V15.388H78.4305ZM101.174 30.108C99.6807 30.108 98.3687 29.852 97.238 29.34C96.1287 28.828 95.2007 28.1453 94.454 27.292C93.7287 26.4173 93.174 25.4467 92.79 24.38C92.4273 23.3133 92.246 22.2253 92.246 21.116V20.508C92.246 19.356 92.4273 18.2467 92.79 17.18C93.174 16.092 93.7287 15.132 94.454 14.3C95.2007 13.4467 96.118 12.7747 97.206 12.284C98.294 11.772 99.5527 11.516 100.982 11.516C102.859 11.516 104.427 11.932 105.686 12.764C106.966 13.5747 107.926 14.652 108.566 15.996C109.206 17.3187 109.526 18.748 109.526 20.284V21.884H94.134V19.164H106.742L105.366 20.508C105.366 19.3987 105.206 18.4493 104.886 17.66C104.566 16.8707 104.075 16.2627 103.414 15.836C102.774 15.4093 101.963 15.196 100.982 15.196C100.001 15.196 99.1687 15.42 98.486 15.868C97.8033 16.316 97.2807 16.9667 96.918 17.82C96.5767 18.652 96.406 19.6547 96.406 20.828C96.406 21.916 96.5767 22.8867 96.918 23.74C97.2593 24.572 97.782 25.2333 98.486 25.724C99.19 26.1933 100.086 26.428 101.174 26.428C102.262 26.428 103.147 26.2147 103.83 25.788C104.513 25.34 104.95 24.796 105.142 24.156H109.238C108.982 25.3507 108.491 26.396 107.766 27.292C107.041 28.188 106.113 28.8813 104.982 29.372C103.873 29.8627 102.603 30.108 101.174 30.108ZM119.994 30.108C118.479 30.108 117.167 29.852 116.058 29.34C114.97 28.828 114.052 28.1453 113.306 27.292C112.58 26.4387 112.036 25.4787 111.674 24.412C111.311 23.3453 111.13 22.2573 111.13 21.148V20.54C111.13 19.3667 111.311 18.2467 111.674 17.18C112.058 16.092 112.623 15.132 113.37 14.3C114.116 13.4467 115.034 12.7747 116.122 12.284C117.231 11.772 118.511 11.516 119.962 11.516C121.476 11.516 122.831 11.8147 124.026 12.412C125.22 12.988 126.17 13.7987 126.874 14.844C127.599 15.8893 128.004 17.1053 128.09 18.492H123.77C123.663 17.596 123.279 16.8493 122.618 16.252C121.978 15.6547 121.092 15.356 119.962 15.356C118.98 15.356 118.159 15.5907 117.498 16.06C116.858 16.5293 116.378 17.18 116.058 18.012C115.738 18.8227 115.578 19.7613 115.578 20.828C115.578 21.852 115.727 22.78 116.026 23.612C116.346 24.444 116.826 25.0947 117.466 25.564C118.127 26.0333 118.97 26.268 119.994 26.268C120.762 26.268 121.423 26.1293 121.978 25.852C122.532 25.5747 122.97 25.1907 123.29 24.7C123.631 24.2093 123.844 23.6547 123.93 23.036H128.25C128.164 24.444 127.748 25.6813 127.002 26.748C126.276 27.7933 125.306 28.6147 124.09 29.212C122.895 29.8093 121.53 30.108 119.994 30.108ZM130.853 29.5V6.14H135.301V19.772H134.533C134.533 18.0227 134.757 16.54 135.205 15.324C135.653 14.108 136.314 13.18 137.189 12.54C138.085 11.9 139.216 11.58 140.581 11.58H140.773C142.757 11.58 144.261 12.2627 145.285 13.628C146.309 14.9933 146.821 16.9773 146.821 19.58V29.5H142.373V19.164C142.373 18.0547 142.053 17.18 141.413 16.54C140.794 15.9 139.973 15.58 138.949 15.58C137.861 15.58 136.976 15.9427 136.293 16.668C135.632 17.372 135.301 18.3 135.301 19.452V29.5H130.853Z" fill="white"/>
</svg>
