<?xml version="1.0" encoding="utf-8"?>
<!-- Generator: Adobe Illustrator 24.3.0, SVG Export Plug-In . SVG Version: 6.00 Build 0)  -->
<svg version="1.1" id="Layer_1" xmlns="http://www.w3.org/2000/svg" xmlns:xlink="http://www.w3.org/1999/xlink" x="0px" y="0px"
	 viewBox="0 0 319.11 227.28" enable-background="new 0 0 319.11 227.28" xml:space="preserve">
<g>
	<path fill="#0A0C42" d="M263.27,130.67V1.39c0-0.7-0.57-1.26-1.27-1.26h-23.49c-0.7,0-1.27,0.57-1.27,1.26v131.72v24.39
		c0,0.83,0.68,1.51,1.52,1.51h24.52h54.57c0.7,0,1.27-0.57,1.27-1.26v-23.37c0-0.7-0.57-1.26-1.27-1.26h-52.12
		C264.37,133.11,263.27,132.02,263.27,130.67"/>
	<path fill="#0A0C42" d="M172.56,0c-17.89,0-32.42,10.01-43.87,21.65l-40.21,42.4c-0.84,0.89-2.33,0.58-2.75-0.56l-5.93-16.15
		L63.27,2.25C62.78,0.9,61.49,0,60.05,0H35.67c-0.87,0-1.47,0.86-1.18,1.67l24.35,67.8l5.54,15.38c0.73,2.03,0.26,4.31-1.23,5.88
		L0.3,157.07c-0.65,0.68-0.16,1.81,0.78,1.81h34.52c1.11,0,2.18-0.46,2.94-1.26l36.62-38.63c0.5-0.53,1.39-0.35,1.64,0.34
		l13.42,37.43c0.45,1.27,1.66,2.11,3.01,2.11H119c0.81,0,1.37-0.8,1.09-1.55l-17.32-47.23l-4.53-12.42c-0.49-1.35-0.18-2.85,0.8-3.9
		l8.63-9.15l12.23-12.9l9.11-9.62l20.86-21.98l0.16-0.21l5.77-6.07l0.05-0.05c6.64-6.12,10.99-6.23,17.73-6.23
		c21.77,0,37.74,24.13,22.76,46.91c-4.19,6.36-11.35,10.15-18.98,10.15h-46.61c-0.96,0-1.74,0.78-1.74,1.74v71.47
		c0,0.58,0.47,1.05,1.05,1.05h23.04c1.07,0,1.94-0.86,1.94-1.93v-44.38c0-1.37,1.11-2.47,2.48-2.47l19.2,0
		c18.42,0,35.39-10.17,43.82-26.5C242.18,41.75,212.25,0,172.56,0"/>
</g>
<g>
	<path fill="#0A0C42" d="M-0.03,191.7l7.71-0.08c5.88-0.06,9.91,3.61,9.97,9.04c0.06,5.43-3.9,9.18-9.78,9.24l-7.71,0.08
		L-0.03,191.7z M7.68,207.64c4.52-0.05,7.39-2.85,7.35-6.95c-0.04-4.1-2.97-6.84-7.49-6.79l-4.94,0.05l0.14,13.74L7.68,207.64z"/>
	<path fill="#0A0C42" d="M53.01,203.36l-11.23,0.11c0.34,2.43,2.31,4.03,5.06,4c1.62-0.02,2.97-0.58,3.98-1.71l1.4,1.6
		c-1.24,1.48-3.14,2.28-5.44,2.3c-4.47,0.04-7.47-2.88-7.52-7c-0.04-4.1,2.88-7.08,6.88-7.12c4-0.04,6.87,2.8,6.92,7.06
		C53.05,202.81,53.03,203.12,53.01,203.36z M41.76,201.67l8.88-0.09c-0.29-2.32-2.05-3.95-4.48-3.92
		C43.75,197.68,41.99,199.32,41.76,201.67z"/>
	<path fill="#0A0C42" d="M87.95,195.24l-5.92,13.91l-2.56,0.03l-6.2-13.78l2.61-0.03l4.87,11.05l4.75-11.15L87.95,195.24z"/>
	<path fill="#0A0C42" d="M122.08,202.66l-11.23,0.11c0.34,2.43,2.31,4.03,5.06,4c1.62-0.02,2.97-0.58,3.98-1.71l1.4,1.6
		c-1.24,1.48-3.14,2.28-5.44,2.3c-4.47,0.04-7.47-2.88-7.52-7c-0.04-4.1,2.88-7.08,6.88-7.12c4-0.04,6.87,2.8,6.92,7.06
		C122.13,202.11,122.11,202.42,122.08,202.66z M110.83,200.97l8.88-0.09c-0.28-2.32-2.05-3.95-4.48-3.93
		C112.83,196.98,111.07,198.61,110.83,200.97z"/>
	<path fill="#0A0C42" d="M144.72,189.13l2.51-0.03l0.2,19.38l-2.51,0.03L144.72,189.13z"/>
	<path fill="#0A0C42" d="M170.1,201.33c-0.04-4.13,2.99-7.08,7.14-7.13c4.15-0.04,7.21,2.85,7.25,6.98
		c0.04,4.13-2.96,7.11-7.11,7.15C173.22,208.38,170.14,205.46,170.1,201.33z M181.96,201.21c-0.03-2.95-2.03-4.84-4.7-4.81
		c-2.66,0.03-4.66,1.95-4.63,4.91c0.03,2.95,2.06,4.86,4.73,4.84C180.02,206.12,181.99,204.16,181.96,201.21z"/>
	<path fill="#0A0C42" d="M221.55,200.81c0.04,4.26-2.88,7.11-6.93,7.15c-1.96,0.02-3.69-0.72-4.86-2.2l0.07,7.16l-2.51,0.03
		l-0.19-18.91l2.4-0.02l0.02,2.2c1.11-1.55,2.88-2.35,4.91-2.38C218.52,193.79,221.5,196.58,221.55,200.81z M219.01,200.83
		c-0.03-2.93-2.06-4.84-4.73-4.81c-2.64,0.03-4.63,1.98-4.6,4.91c0.03,2.95,2.06,4.86,4.7,4.84
		C217.05,205.74,219.04,203.79,219.01,200.83z"/>
	<path fill="#0A0C42" d="M256.73,201.29l-11.23,0.11c0.34,2.43,2.31,4.03,5.06,4c1.62-0.02,2.97-0.58,3.98-1.71l1.4,1.6
		c-1.24,1.48-3.14,2.28-5.44,2.3c-4.47,0.04-7.47-2.88-7.52-7c-0.04-4.1,2.88-7.08,6.88-7.12c4-0.04,6.87,2.8,6.92,7.06
		C256.78,200.74,256.76,201.05,256.73,201.29z M245.48,199.6l8.88-0.09c-0.28-2.32-2.05-3.95-4.48-3.92
		C247.48,195.61,245.72,197.24,245.48,199.6z"/>
	<path fill="#0A0C42" d="M286.87,193.09l0.03,2.43c-0.21-0.02-0.39-0.02-0.58-0.02c-2.69,0.03-4.34,1.69-4.31,4.72l0.07,6.9
		l-2.51,0.03l-0.14-13.84l2.4-0.02l0.02,2.33C282.72,193.97,284.44,193.11,286.87,193.09z"/>
	<path fill="#0A0C42" d="M307.75,205.39l1.02-2c1.18,0.82,3.07,1.4,4.87,1.39c2.32-0.02,3.28-0.74,3.27-1.91
		c-0.03-3.11-8.75-0.33-8.81-5.84c-0.03-2.48,2.18-4.18,5.73-4.21c1.8-0.02,3.85,0.43,5.06,1.2l-1.05,2
		c-1.26-0.8-2.65-1.07-4.01-1.06c-2.19,0.02-3.26,0.84-3.25,1.94c0.03,3.27,8.78,0.51,8.84,5.89c0.03,2.51-2.26,4.12-5.94,4.16
		C311.19,206.98,308.91,206.29,307.75,205.39z"/>
</g>
</svg>
