<svg width="36" height="36" viewBox="0 0 36 36" fill="none" xmlns="http://www.w3.org/2000/svg">
<mask id="mask0_299_6782" style="mask-type:luminance" maskUnits="userSpaceOnUse" x="0" y="0" width="36" height="36">
<path d="M0 3.8147e-06H36V36H0V3.8147e-06Z" fill="white"/>
</mask>
<g mask="url(#mask0_299_6782)">
<path d="M26.8535 13.0595L23.1837 16.7115C22.6656 17.2299 21.9858 17.4892 21.3065 17.4892C20.6272 17.4892 19.9475 17.2299 19.4293 16.7115C18.3922 15.6746 18.3922 13.9937 19.4293 12.9568L23.0812 9.28716C22.0889 8.82499 21.0043 8.55949 19.8374 8.55949C15.5608 8.55949 12.0937 12.0265 12.0937 16.3032C12.0937 17.4701 12.3591 18.5724 12.8214 19.5647L2.18408 30.0614C1.14697 31.0983 1.14697 32.7793 2.18408 33.8162C2.70221 34.3345 3.382 34.5938 4.06121 34.5938C4.74057 34.5938 5.42028 34.3345 5.93842 33.8162L16.5759 23.3193C17.5682 23.7815 18.6706 24.0469 19.8374 24.0469C24.1142 24.0469 27.5812 20.58 27.5812 16.3032C27.5812 15.1364 27.3157 14.0518 26.8535 13.0595Z" stroke="white" stroke-width="2.2" stroke-miterlimit="10"/>
<path d="M31.9681 21.8425C29.7827 26.5987 24.9899 29.6719 19.7579 29.6719C18.6641 29.6719 17.5845 29.5398 16.5389 29.2827L14.2617 31.5298C16.0121 32.159 17.8678 32.4844 19.7579 32.4844C22.9257 32.4844 25.9959 31.5716 28.6365 29.8449C31.2081 28.1633 33.2439 25.8021 34.5237 23.0168L31.9681 21.8425Z" fill="white"/>
<path d="M6.75717 19.6219C6.47374 18.5275 6.32812 17.3937 6.32812 16.2423H3.51562C3.51562 18.1729 3.85327 20.0632 4.50682 21.8425L6.75717 19.6219Z" fill="white"/>
<path d="M6.1748 10.2656C8.47374 5.04837 13.6904 1.40625 19.7578 1.40625C27.9514 1.40625 34.5937 8.04853 34.5937 16.2422" stroke="white" stroke-width="2.2" stroke-miterlimit="10"/>
<path d="M10.4766 10.4766H4.85156V4.85156" stroke="white" stroke-width="2.2" stroke-miterlimit="10"/>
<path d="M28.9688 22.0078H34.5937V27.6328" stroke="white" stroke-width="2.2" stroke-miterlimit="10"/>
</g>
</svg>
