<svg width="52" height="78" viewBox="0 0 52 78" fill="none" xmlns="http://www.w3.org/2000/svg">
<path fill-rule="evenodd" clip-rule="evenodd" d="M23.0898 78C23.0043 78 22.9189 77.9893 22.8335 77.9695C22.393 77.8629 22.0848 77.5004 22.0848 77.0861V46.5884H1.00659C0.644813 46.5884 0.30984 46.4117 0.132303 46.1254C-0.0469078 45.839 -0.0418836 45.4887 0.142352 45.2054L29.5313 0.445909C29.7624 0.0925245 30.2247 -0.0765515 30.6602 0.0331194C31.0973 0.14279 31.3988 0.502267 31.3988 0.913533V31.5346H50.9948C51.3532 31.5346 51.6848 31.7082 51.864 31.99C52.0449 32.2703 52.0466 32.6176 51.8691 32.9009L23.964 77.537C23.7832 77.8279 23.4448 78 23.0898 78Z" fill="white"/>
</svg>
