<svg width="62" height="44" viewBox="0 0 62 44" fill="none" xmlns="http://www.w3.org/2000/svg">
<path d="M14.5312 0.412354C6.51702 0.412354 0 6.93119 0 14.9436C0 22.2589 5.43154 28.3289 12.4771 29.3294C11.9131 33.427 10.3486 37.3258 7.90415 40.7068C7.42874 41.3666 7.44654 42.2607 7.9538 42.8992C8.4515 43.5275 9.31635 43.7657 10.0754 43.4456C21.6088 38.6315 29.0625 27.442 29.0625 14.9436C29.0625 6.93119 22.5455 0.412354 14.5312 0.412354ZM47.4688 0.412354C39.4545 0.412354 32.9375 6.93119 32.9375 14.9436C32.9375 22.2589 38.369 28.3289 45.4146 29.3294C44.8506 33.427 43.2861 37.3258 40.8417 40.7068C40.3662 41.3666 40.384 42.2607 40.8913 42.8992C41.389 43.5275 42.2538 43.7657 43.0129 43.4456C54.5463 38.6315 62 27.442 62 14.9436C62 6.93119 55.483 0.412354 47.4688 0.412354Z" fill="#2B4DFF"/>
</svg>
