<svg width="588" height="230" viewBox="0 0 588 230" fill="none" xmlns="http://www.w3.org/2000/svg">
<path d="M0 179.221V133.221L85.8452 0.298697L117.962 22.1039L42.3223 139.792L45.9242 145.766H180.395V179.221H0ZM114.66 224.325V68.1039H153.981V224.325H114.66Z" fill="url(#paint0_linear_474_38787)"/>
<path d="M292.086 230C274.877 230 260.27 227.212 248.263 221.636C236.257 215.861 226.452 208.095 218.848 198.338C211.244 188.381 205.641 177.03 202.039 164.286C198.637 151.342 196.936 137.801 196.936 123.662V106.935C196.936 86.8225 200.338 68.7013 207.142 52.5714C213.945 36.4416 224.351 23.697 238.358 14.3377C252.366 4.77922 270.275 0 292.086 0C313.698 0 331.507 4.77922 345.515 14.3377C359.522 23.697 369.827 36.4416 376.431 52.5714C383.234 68.7013 386.636 86.8225 386.636 106.935V123.662C386.636 137.801 384.835 151.342 381.233 164.286C377.832 177.03 372.329 188.381 364.725 198.338C357.321 208.095 347.616 215.861 335.609 221.636C323.603 227.212 309.095 230 292.086 230ZM292.086 191.169C309.896 191.169 323.003 185.095 331.407 172.948C339.812 160.602 344.014 141.485 344.014 115.597C344.014 88.1169 339.712 68.5022 331.107 56.7532C322.503 44.8052 309.496 38.8312 292.086 38.8312C274.477 38.8312 261.27 44.8052 252.466 56.7532C243.861 68.5022 239.559 87.9177 239.559 115C239.559 141.087 243.861 160.303 252.466 172.649C261.07 184.996 274.277 191.169 292.086 191.169Z" fill="url(#paint1_linear_474_38787)"/>
<path d="M407.605 179.221V133.221L493.45 0.298697L525.567 22.1039L449.927 139.792L453.529 145.766H588V179.221H407.605ZM522.265 224.325V68.1039H561.586V224.325H522.265Z" fill="url(#paint2_linear_474_38787)"/>
<defs>
<linearGradient id="paint0_linear_474_38787" x1="291.767" y1="6.27275" x2="291.767" y2="224.325" gradientUnits="userSpaceOnUse">
<stop offset="0.513749" stop-color="#2B4DFF"/>
<stop offset="0.963561" stop-color="white" stop-opacity="0"/>
</linearGradient>
<linearGradient id="paint1_linear_474_38787" x1="291.767" y1="6.27275" x2="291.767" y2="224.325" gradientUnits="userSpaceOnUse">
<stop offset="0.513749" stop-color="#2B4DFF"/>
<stop offset="0.963561" stop-color="white" stop-opacity="0"/>
</linearGradient>
<linearGradient id="paint2_linear_474_38787" x1="291.767" y1="6.27275" x2="291.767" y2="224.325" gradientUnits="userSpaceOnUse">
<stop offset="0.513749" stop-color="#2B4DFF"/>
<stop offset="0.963561" stop-color="white" stop-opacity="0"/>
</linearGradient>
</defs>
</svg>
