<svg width="36" height="36" viewBox="0 0 36 36" fill="none" xmlns="http://www.w3.org/2000/svg">
<g clip-path="url(#clip0_287_47753)">
<path d="M27.8438 34.5938H8.15625L10.9688 26.7188H25.0312L27.8438 34.5938Z" stroke="white" stroke-width="2.2" stroke-miterlimit="10"/>
<path d="M15.1875 26.7188V21.4251C8.76487 16.5994 8.15625 15.4049 8.15625 12.6562L9.5625 1.40625H26.4375L27.8438 12.6562C27.8438 15.4049 27.2351 16.5994 20.8125 21.4251V26.7188" stroke="white" stroke-width="2.2" stroke-miterlimit="10"/>
<path d="M24.457 18.5466L32.6269 11.3042C33.8307 10.2725 34.5936 8.74097 34.5936 7.03125C34.5936 3.92463 32.0752 1.40625 28.9686 1.40625H26.4373" stroke="white" stroke-width="2.2" stroke-miterlimit="10"/>
<path d="M11.5428 18.5466L3.37289 11.3042C2.16907 10.2725 1.40625 8.74097 1.40625 7.03125C1.40625 3.92463 3.92463 1.40625 7.03125 1.40625H9.5625" stroke="white" stroke-width="2.2" stroke-miterlimit="10"/>
<path d="M18 14.0625C19.5533 14.0625 20.8125 12.8033 20.8125 11.25C20.8125 9.6967 19.5533 8.4375 18 8.4375C16.4467 8.4375 15.1875 9.6967 15.1875 11.25C15.1875 12.8033 16.4467 14.0625 18 14.0625Z" stroke="white" stroke-width="2.2" stroke-miterlimit="10"/>
</g>
<defs>
<clipPath id="clip0_287_47753">
<rect width="36" height="36" fill="white"/>
</clipPath>
</defs>
</svg>
