<svg width="254" height="220" viewBox="0 0 254 220" fill="none" xmlns="http://www.w3.org/2000/svg">
<path d="M206.368 220H11.5947V219.265H206.368V220Z" fill="#040D43"/>
<path d="M69.6922 64.3759C71.1006 60.1136 74.573 58.8153 74.573 58.8153C74.573 58.8153 77.4263 51.3685 78.519 51.5522C79.4661 51.7114 78.0819 56.5494 77.5477 58.8153C78.2033 56.5862 80.1096 51.9319 81.093 52.2993C82.5743 52.8628 80.3402 60.5301 80.3402 60.5301C80.3402 60.5301 82.5743 53.9528 83.9341 54.5775C85.0511 55.1041 84.262 57.1251 82.7928 61.0322C84.3834 59.9421 86.8966 58.4479 87.358 59.5257C87.9408 60.8363 82.6957 65.0006 80.8988 66.3846C78.4826 73.7702 75.338 83.8749 69.51 82.7358C67.1182 82.2704 68.6723 67.4502 69.6922 64.3759Z" fill="white"/>
<path fill-rule="evenodd" clip-rule="evenodd" d="M70.4211 83.201C70.0973 83.201 69.7695 83.1683 69.4376 83.103C69.122 83.0418 68.8427 82.8213 68.6241 82.4416C66.9729 79.5756 68.4785 66.8621 69.3405 64.2532C70.6396 60.3461 73.5779 58.8518 74.2942 58.5334C74.4764 58.0557 75.0956 56.4879 75.8119 54.9569C77.4025 51.503 78.0824 51.111 78.568 51.1845C78.7502 51.2213 78.908 51.3192 79.0051 51.4785C79.2722 51.8827 79.2722 52.691 79.0051 54.1608C79.0051 54.1608 79.0051 54.1649 79.0051 54.173C79.5272 53.1197 80.0979 52.2623 80.6078 52.0051C80.8749 51.8704 81.0934 51.9072 81.227 51.9561C82.0283 52.2623 82.174 53.6219 81.6884 56.3532C82.6233 54.5772 83.1575 54.3445 83.3639 54.2588C83.6796 54.1241 83.9224 54.173 84.0803 54.2465C85.3915 54.8589 84.833 56.6349 83.5339 60.1011C84.6266 59.4152 86.1929 58.5701 87.0792 58.8396C87.3584 58.9131 87.577 59.109 87.6984 59.3785C88.0262 60.1256 87.2735 61.3137 85.2701 63.1999C83.8496 64.5349 82.1498 65.8822 81.2149 66.6048L81.0692 67.0458C79.855 70.7692 78.483 74.9825 76.6618 78.1793C74.7678 81.5475 72.7158 83.201 70.4211 83.201ZM70.0326 64.4859C69.1098 67.2662 67.835 79.6123 69.2555 82.0742C69.3284 82.1967 69.4498 82.3559 69.5833 82.3804C71.9266 82.8336 74.0392 81.3515 76.0304 77.8241C77.8031 74.6763 79.1751 70.4997 80.3771 66.8131L80.5957 66.1517L80.6806 66.0904C81.5912 65.3923 83.3275 64.0205 84.7723 62.661C87.2249 60.3461 87.0549 59.7337 87.0306 59.6724C86.9942 59.5989 86.9578 59.5622 86.8728 59.5377C86.6664 59.4765 85.7801 59.4275 82.9997 61.3382L82.0405 61.9873L82.5383 60.6645C83.7646 57.4188 84.5659 55.2876 83.7767 54.9202C83.7646 54.9079 83.7281 54.8957 83.6553 54.9324C82.769 55.3121 81.3606 58.6436 80.6806 60.6523L79.9886 60.4196C79.9886 60.4073 80.5471 58.4966 80.9113 56.5492C81.5913 52.9237 80.9963 52.6543 80.972 52.642C80.8506 52.6543 80.3285 53.0707 79.4422 54.9202C78.7744 56.3042 78.1916 57.9332 77.8881 58.9253L77.1839 58.7293C77.2689 58.3864 77.366 57.9944 77.4753 57.5658C77.7546 56.4634 78.0945 55.1162 78.2888 53.9771C78.5437 52.5685 78.4709 52.0909 78.4223 51.9439C77.9003 52.2746 76.4554 54.9447 74.9134 58.9498L74.8527 59.0968L74.707 59.158C74.6706 59.1703 71.3681 60.4563 70.0326 64.4859Z" fill="#040D43"/>
<path d="M127.461 60.6651H52.342V9.95804H127.461V60.6651Z" fill="white"/>
<path fill-rule="evenodd" clip-rule="evenodd" d="M127.826 61.0323H51.9778V9.59036H127.826V61.0323ZM52.7063 60.2974H127.097V10.3375H52.7063V60.2974Z" fill="#040D43"/>
<path d="M127.461 17.6253H52.342V9.95804H127.461V17.6253Z" fill="white"/>
<path fill-rule="evenodd" clip-rule="evenodd" d="M127.826 17.9925H51.9778V9.59036H127.826V17.9925ZM52.7063 17.2577H127.097V10.3375H52.7063V17.2577Z" fill="#040D43"/>
<path d="M57.6478 13.4977C57.6478 14.3306 56.98 14.992 56.1544 14.992C55.3409 14.992 54.6731 14.3306 54.6731 13.4977C54.6731 12.6648 55.3409 12.0034 56.1544 12.0034C56.98 12.0034 57.6478 12.6648 57.6478 13.4977Z" fill="#C4C8E0"/>
<path d="M62.2376 13.4977C62.2376 14.3306 61.5698 14.992 60.7442 14.992C59.9307 14.992 59.2629 14.3306 59.2629 13.4977C59.2629 12.6648 59.9307 12.0034 60.7442 12.0034C61.5698 12.0034 62.2376 12.6648 62.2376 13.4977Z" fill="#C4C8E0"/>
<path d="M66.8265 13.4977C66.8265 14.3306 66.1587 14.992 65.3331 14.992C64.5196 14.992 63.8518 14.3306 63.8518 13.4977C63.8518 12.6648 64.5196 12.0034 65.3331 12.0034C66.1587 12.0034 66.8265 12.6648 66.8265 13.4977Z" fill="#040D43"/>
<path d="M73.1894 27.1541H56.3977V23.5777H73.1894V27.1541Z" fill="#C4C8E0"/>
<path d="M99.0873 27.1541H74.0637V23.5777H99.0873V27.1541Z" fill="#C4C8E0"/>
<path d="M76.4919 56.6839H56.3977V53.1075H76.4919V56.6839Z" fill="#C4C8E0"/>
<path d="M107.476 56.6839H77.5354V53.1075H107.476V56.6839Z" fill="#C4C8E0"/>
<path d="M93.6967 37.0013H66.8276V33.4126H93.6967V37.0013Z" fill="#C4C8E0"/>
<path d="M111.362 37.0013H94.5706V33.4126H111.362V37.0013Z" fill="#C4C8E0"/>
<path d="M89.1067 51.7606H62.2375V48.1841H89.1067V51.7606Z" fill="#C4C8E0"/>
<path d="M106.773 51.7606H89.9817V48.1841H106.773V51.7606Z" fill="#C4C8E0"/>
<path d="M83.9465 32.078H62.2375V28.4893H83.9465V32.078Z" fill="#C4C8E0"/>
<path d="M109.917 32.078H84.8938V28.4893H109.917V32.078Z" fill="#C4C8E0"/>
<path d="M96.2453 41.9251H74.5364V38.3365H96.2453V41.9251Z" fill="#C4C8E0"/>
<path d="M114.556 42.4515H97.1575V38.875H114.556V42.4515Z" fill="#C4C8E0"/>
<path d="M94.5698 46.849H74.5364V43.2603H94.5698V46.849Z" fill="#C4C8E0"/>
<path d="M112.685 47.1307H95.2864V43.5542H112.685V47.1307Z" fill="#C4C8E0"/>
<path d="M69.0737 68.3566C69.0737 68.3566 66.184 64.4249 71.4291 56.3534C74.8652 51.0745 76.7714 52.2136 74.0881 56.8556C73.2867 58.2641 73.6632 60.1626 73.991 60.8117C74.938 62.6734 74.9137 66.2254 73.5053 67.4747C72.0969 68.724 69.0737 68.3566 69.0737 68.3566Z" fill="white"/>
<path fill-rule="evenodd" clip-rule="evenodd" d="M70.0688 68.7734C69.486 68.7734 69.0732 68.7244 69.0367 68.7244L68.8789 68.6999L68.7818 68.5775C68.6603 68.406 65.795 64.3396 71.1251 56.1457C72.9099 53.4021 74.4761 52.0793 75.3139 52.606C76.0788 53.0714 75.7388 54.7371 74.4033 57.0398C73.6869 58.2891 74.0026 60.0283 74.3183 60.6407C75.3382 62.6371 75.2775 66.3851 73.7476 67.7446C72.7642 68.6142 71.1372 68.7734 70.0688 68.7734ZM69.2917 68.0141C69.923 68.063 72.1814 68.161 73.262 67.1934C74.5126 66.0911 74.549 62.6984 73.6626 60.9837C73.2741 60.2243 72.9099 58.1788 73.7719 56.6723C75.2046 54.1982 75.0225 53.2919 74.9375 53.2306C74.8161 53.1571 73.7355 53.4878 71.7321 56.5499C70.2873 58.7913 68.5632 62.1227 68.6482 65.3072C68.6846 66.7893 69.1096 67.6834 69.2917 68.0141Z" fill="#040D43"/>
<path d="M39.606 82.2701C39.606 82.2701 56.7983 99.3194 65.1638 105.186C67.3978 106.754 70.2146 104.317 71.8173 99.6746C75.5933 88.7616 80.9841 71.994 80.9841 71.994C81.6762 68.3073 73.7721 64.7676 68.4177 65.527C65.5523 72.5574 64.9331 77.4566 61.4606 85.5648C60.635 87.4633 54.54 63.5795 47.9957 59.9418C39.0232 54.9569 42.9692 58.5088 42.9692 58.5088" fill="white"/>
<path d="M66.5965 106.032C66.0259 106.032 65.4674 105.848 64.9574 105.493C56.6648 99.6628 39.5211 82.6992 39.3511 82.5277L39.861 82.0011C40.031 82.1725 57.1262 99.0994 65.3703 104.893C65.9652 105.309 66.6087 105.407 67.2886 105.187C68.867 104.66 70.4333 102.566 71.4653 99.5648C75.132 88.958 80.4014 72.619 80.6321 71.9086C80.7778 71.088 80.4379 70.2429 79.6365 69.3978C77.4146 67.0461 72.3516 65.4294 68.6728 65.8581C67.41 68.9936 66.5965 71.6637 65.7466 74.493C64.7268 77.849 63.6826 81.3152 61.7885 85.7122C61.655 86.0307 61.4 86.0429 61.3272 86.0429C60.7565 86.0307 60.3437 85.0631 58.5103 80.1393C56.0578 73.5621 51.9418 62.5634 47.8137 60.2607C44.7055 58.5337 43.3335 57.9336 42.7264 57.7376C42.86 57.8968 43.0421 58.0683 43.2121 58.2398L42.7264 58.7787C41.4637 57.6396 41.7187 57.2844 41.8279 57.1252C42.0586 56.7945 42.5321 56.8435 43.6127 57.2967C44.6083 57.7131 46.1381 58.497 48.1658 59.6238C52.5367 62.0489 56.5434 72.7783 59.1902 79.8821C59.9916 82.0501 60.8294 84.2792 61.2665 85.0631C63.0512 80.8742 64.059 77.5183 65.0424 74.2848C65.9288 71.382 66.7544 68.6384 68.0778 65.3804L68.1628 65.1967L68.3692 65.1599C72.3273 64.6088 77.7303 66.3113 80.1586 68.8834C81.1299 69.9122 81.5427 71.0145 81.3484 72.0679L81.3363 72.1046C81.2756 72.2761 75.8969 89.007 72.1574 99.7975C71.0403 103.019 69.3041 105.297 67.5193 105.885C67.2117 105.983 66.9041 106.032 66.5965 106.032Z" fill="#040D43"/>
<path d="M87.1636 200.44C87.1636 200.44 108.545 211.426 109.48 213.765C110.427 216.105 110.099 217.036 109.055 216.999L70.7604 215.933C70.1412 215.921 69.6677 215.358 69.7406 214.745L72.1324 195.712C72.2174 195.038 72.9095 194.634 73.5408 194.891L86.9815 200.342C87.0462 200.366 87.1069 200.399 87.1636 200.44Z" fill="#040D43"/>
<path d="M110.015 215.762L110.185 219.608L69.6199 219.301L69.7413 214.745L110.015 215.762Z" fill="white"/>
<path fill-rule="evenodd" clip-rule="evenodd" d="M110.56 219.975L69.2546 219.669L69.3882 214.366L110.366 215.407L110.56 219.975ZM69.9831 218.922L109.795 219.228L109.649 216.117L70.0924 215.113L69.9831 218.922Z" fill="#040D43"/>
<path d="M103.846 217.415C95.0795 216.668 89.5673 213.19 86.4834 210.397C83.1323 207.347 81.8696 204.494 81.821 204.383L82.8166 203.93C82.8288 203.967 84.0551 206.723 87.2604 209.613C90.2108 212.271 95.5045 215.603 103.931 216.313L103.846 217.415Z" fill="white"/>
<path d="M103.518 219.608H102.79V215.591H103.518V219.608Z" fill="#040D43"/>
<path d="M95.1775 219.608H94.449V215.382H95.1775V219.608Z" fill="#040D43"/>
<path d="M86.4722 215.125L86.46 219.412L86.4722 215.125Z" fill="white"/>
<path d="M86.8239 219.412H86.0955L86.1076 215.125H86.8361L86.8239 219.412Z" fill="#040D43"/>
<path d="M78.1302 214.954L78.1179 219.363L78.1302 214.954Z" fill="white"/>
<path d="M78.4822 219.363H77.7537L77.7658 214.954H78.4943L78.4822 219.363Z" fill="#040D43"/>
<path d="M69.546 213.117L40.7949 106.142C37.626 95.7434 51.9529 104.329 62.5039 102.321L96.148 204.653C91.8256 208.462 74.7789 215.138 69.546 213.117Z" fill="white"/>
<path fill-rule="evenodd" clip-rule="evenodd" d="M72.0593 213.852C71.0515 213.852 70.1409 213.741 69.4246 213.46L69.2425 213.398L69.1939 213.215L40.4429 106.24C39.7751 104.035 39.8358 102.516 40.6493 101.586C42.0941 99.9199 45.5666 100.508 49.9618 101.267C53.9442 101.941 58.4608 102.712 62.4432 101.953L62.7468 101.904L96.5608 204.763L96.3787 204.923C94.2296 206.821 88.851 209.491 83.3023 211.414C80.9104 212.247 75.7989 213.852 72.0593 213.852ZM69.8495 212.835C72.1443 213.594 77.0494 212.81 83.0716 210.728C88.3896 208.879 93.5254 206.356 95.7231 204.531L62.2611 102.737C58.2301 103.423 53.7864 102.663 49.8404 101.99C45.8337 101.304 42.3734 100.704 41.1956 102.076C40.5643 102.786 40.5522 104.084 41.1471 106.032L69.8495 212.835Z" fill="#040D43"/>
<path d="M73.1401 160.156C67.8829 137.375 50.2413 79.9189 41.1473 74.9216C33.8139 70.8798 53.0217 163.659 60.9865 181.247C62.8806 185.436 75.8234 171.792 73.1401 160.156Z" fill="#C4C8E0"/>
<path d="M22.1464 184.701C22.1464 184.701 18.0547 207.752 16.1971 209.307C14.3516 210.863 13.4288 210.838 13.1738 209.858L3.77635 174.057C3.61851 173.469 3.99488 172.857 4.57767 172.759L22.3407 169.391C22.9599 169.268 23.5184 169.795 23.4577 170.456L22.1828 184.505C22.1747 184.57 22.1626 184.636 22.1464 184.701Z" fill="#040D43"/>
<path d="M14.5455 210.385L11.1337 211.671L0.449219 173.984L4.57732 172.759L14.5455 210.385Z" fill="white"/>
<path fill-rule="evenodd" clip-rule="evenodd" d="M10.8909 212.149L0 173.726L4.83232 172.293L14.9826 210.605L10.8909 212.149ZM0.898487 174.229L11.3766 211.181L14.1084 210.152L4.32238 173.212L0.898487 174.229Z" fill="#040D43"/>
<path d="M22.1463 185.252C22.0977 185.252 22.0491 185.248 22.0006 185.24C21.7092 185.154 21.5392 184.848 21.6242 184.554C21.6323 184.521 21.6363 184.489 21.6363 184.456C21.6728 184.162 21.9399 183.929 22.2313 183.966C22.5348 183.991 22.7533 184.26 22.7291 184.554C22.721 184.66 22.7007 184.762 22.6684 184.86C22.6076 185.093 22.3891 185.252 22.1463 185.252Z" fill="white"/>
<path d="M14.5457 210.937C14.3393 210.937 14.1329 210.802 14.0479 210.594C13.9265 210.312 14.06 209.993 14.3393 209.871C14.3393 209.871 14.9342 209.614 15.857 208.879C16.7069 208.205 19.0866 198.933 21.612 184.603C21.6606 184.309 21.9399 184.113 22.2434 184.162C22.5348 184.211 22.7412 184.505 22.6805 184.799C22.6805 184.86 21.6606 190.654 20.41 196.557C17.8725 208.671 16.9011 209.455 16.5369 209.736C15.4806 210.581 14.7885 210.875 14.7643 210.888C14.6914 210.92 14.6186 210.937 14.5457 210.937Z" fill="white"/>
<path d="M13.5492 205.02L9.72461 206.16L13.5492 205.02Z" fill="white"/>
<path d="M9.83433 206.515L9.62793 205.817L13.4403 204.665L13.6589 205.364L9.83433 206.515Z" fill="#040D43"/>
<path d="M11.3528 196.9L7.33398 198.101L11.3528 196.9Z" fill="white"/>
<path d="M7.44273 198.456L7.23633 197.745L11.243 196.545L11.4616 197.243L7.44273 198.456Z" fill="#040D43"/>
<path d="M9.2026 188.755L5.12305 189.98L9.2026 188.755Z" fill="white"/>
<path d="M5.23277 190.335L5.02637 189.625L9.10589 188.4L9.31229 189.11L5.23277 190.335Z" fill="#040D43"/>
<path d="M6.96844 180.647L2.79175 181.909L6.96844 180.647Z" fill="white"/>
<path d="M2.88975 182.251L2.68335 181.553L6.87216 180.291L7.07856 180.99L2.88975 182.251Z" fill="#040D43"/>
<path d="M11.3764 200.036C11.085 200.036 10.8422 199.791 10.83 199.484C10.8058 196.337 11.4007 191.964 14.4482 189.012C16.2937 187.212 18.1635 186.808 18.2364 186.795C18.5277 186.734 18.8191 186.93 18.8799 187.224C18.9406 187.518 18.7584 187.812 18.4549 187.873C18.4306 187.885 16.7672 188.265 15.1524 189.845C13.0034 191.964 11.8864 195.296 11.9228 199.472C11.9349 199.778 11.6921 200.036 11.3886 200.036C11.3886 200.036 11.3845 200.036 11.3764 200.036Z" fill="white"/>
<path d="M9.08231 171.069C9.08231 171.069 41.4394 159.789 39.3146 151.411C37.202 143.021 26.6389 103.374 26.6389 103.374C29.0186 92.767 37.6634 94.9717 49.3556 93.0487C49.3556 93.0487 65.1153 141.478 68.2478 158.466C71.0403 173.666 23.1664 196.214 23.1664 196.214C17.5328 197.353 8.91233 179.018 9.08231 171.069Z" fill="white"/>
<path fill-rule="evenodd" clip-rule="evenodd" d="M22.6442 196.631C21.6365 196.631 20.5316 196.129 19.3539 195.136C16.9256 193.079 14.2545 188.976 12.0326 183.893C9.89568 178.957 8.65725 174.168 8.71795 171.069L8.73011 170.812L8.96078 170.726C9.04577 170.701 17.132 167.86 24.8418 164.051C34.895 159.078 39.788 154.73 38.9624 151.497C36.8741 143.217 26.3959 103.864 26.2867 103.472L26.2624 103.374L26.2867 103.288C27.1609 99.3687 28.9457 96.8946 31.896 95.486C34.5793 94.2122 38.0032 93.906 41.9735 93.5386C44.2925 93.3304 46.6965 93.1099 49.3069 92.6812L49.6105 92.6322L49.7076 92.9384C49.8655 93.4161 65.5037 141.588 68.5997 158.392C69.2675 161.993 67.2642 166.243 62.6504 171.032C59.008 174.817 53.7264 178.957 46.9515 183.342C35.4413 190.813 23.4456 196.484 23.3242 196.545L23.2756 196.557L23.2392 196.569C23.0449 196.61 22.8466 196.631 22.6442 196.631ZM9.44644 171.338C9.44644 174.339 10.6606 178.895 12.7004 183.586C14.8494 188.51 17.5084 192.613 19.8274 194.573C21.0416 195.59 22.1222 196.031 23.0571 195.859C23.8341 195.492 35.4292 189.943 46.563 182.729C57.0653 175.907 69.2918 166.182 67.8834 158.527C64.933 142.457 50.4361 97.5682 49.1127 93.4651C46.5872 93.857 44.1711 94.0775 42.0342 94.2735C38.1368 94.6287 34.7736 94.9349 32.2117 96.1474C29.4556 97.458 27.8529 99.6871 27.0152 103.362C27.5737 105.468 37.6268 143.217 39.6666 151.313C40.6015 154.987 35.7085 159.494 25.1575 164.712C18.1519 168.178 10.8549 170.824 9.44644 171.338Z" fill="#040D43"/>
<path d="M61.3026 155.55C61.3026 155.55 62.0554 160.462 58.1094 164.761L61.3026 155.55Z" fill="white"/>
<path d="M58.376 165.006L57.8418 164.504C61.6178 160.401 60.95 155.648 60.9379 155.612L61.6542 155.489C61.6906 155.697 62.3948 160.633 58.376 165.006Z" fill="#040D43"/>
<path d="M30.6576 121.109C30.6576 121.109 21.8065 85.3566 19.2446 69.5076C16.6828 53.6464 30.7183 52.4338 37.8818 54.7609C41.2693 55.8633 48.3235 58.0679 50.9096 65.6985C61.3634 96.4167 68.4783 118.23 68.4783 118.23C56.6404 125.91 42.0463 129.817 30.6576 121.109Z" fill="white"/>
<path fill-rule="evenodd" clip-rule="evenodd" d="M45.5311 126.437C39.8853 126.437 34.8223 124.747 30.4393 121.403L30.3422 121.317L30.3057 121.195C30.2207 120.84 21.4181 85.2589 18.8806 69.5691C17.9457 63.7513 19.0991 59.3787 22.3166 56.5862C26.5054 52.9485 33.3775 52.9117 37.9913 54.406L38.1127 54.4428C41.5245 55.5573 48.6272 57.86 51.2619 65.5763C61.5822 95.9515 68.7578 117.888 68.8307 118.108L68.9156 118.378L68.6728 118.537C62.1893 122.75 55.5357 125.384 49.4528 126.18C48.1173 126.351 46.81 126.437 45.5311 126.437ZM30.9856 120.889C36.1822 124.82 42.3622 126.351 49.3557 125.445C55.2686 124.685 61.7279 122.138 68.0415 118.072C67.1916 115.463 60.2709 94.3592 50.5698 65.8212C48.0566 58.4479 41.1845 56.2187 37.882 55.1409L37.7727 55.1041C31.447 53.0587 25.5827 54.7245 22.7901 57.1373C19.779 59.7584 18.7106 63.8983 19.6091 69.4466C22.0616 84.6343 30.4028 118.549 30.9856 120.889Z" fill="#040D43"/>
<path d="M29.8435 54.4798L33.231 47.1799L39.1924 48.417L37.8812 54.7615L40.3459 59.9424C40.3459 59.9424 30.5599 55.8515 29.8435 54.4798Z" fill="white"/>
<path fill-rule="evenodd" clip-rule="evenodd" d="M41.0868 60.6527L40.2005 60.2853C38.5492 59.5871 30.2687 56.0719 29.5281 54.6512L29.4431 54.4919L33.0249 46.7634L39.6298 48.1352L38.2578 54.7124L41.0868 60.6527ZM30.2809 54.4429C31.1308 55.3983 36.0481 57.7009 39.6055 59.2319L37.5051 54.8104L38.7799 48.7108L33.4498 47.5963L30.2809 54.4429Z" fill="#040D43"/>
<path d="M41.4868 38.5936C40.0784 36.2788 39.1678 39.1693 36.1082 38.6059C33.7527 38.1772 31.7129 39.2183 31.1059 42.5743C30.4745 46.065 35.1611 50.511 36.1446 49.5067C37.128 48.5146 37.1159 46.8978 36.1203 45.9058C35.6225 45.4036 38.3058 45.575 39.2892 44.5707C40.2606 43.5786 43.1502 41.3372 41.4868 38.5936Z" fill="#040D43"/>
<path d="M36.9704 41.6315C35.5134 41.558 34.2143 42.6481 33.5829 44.2526C33.0366 44.2771 32.5752 44.9139 32.5509 45.6978C32.5145 46.3837 32.8059 46.9716 33.2308 47.1798C33.4979 49.2865 36.2298 52.1281 37.9296 52.2016C39.9087 52.2873 40.2243 49.0538 40.3336 46.4695C40.4429 43.8851 38.9373 41.7172 36.9704 41.6315Z" fill="white"/>
<path fill-rule="evenodd" clip-rule="evenodd" d="M38.0147 52.5689C37.9823 52.5689 37.9499 52.5689 37.9175 52.5689C36.0356 52.4832 33.3038 49.6416 32.9031 47.4002C32.4296 47.0695 32.1503 46.4204 32.1868 45.6855C32.2232 44.8036 32.6967 44.0932 33.3281 43.9218C34.0565 42.2315 35.4771 41.1904 36.9827 41.2639C39.156 41.3619 40.8193 43.7013 40.6979 46.4816C40.6129 48.4658 40.4308 52.5689 38.0147 52.5689ZM36.8491 41.9988C35.6349 41.9988 34.4937 42.9174 33.923 44.3872L33.838 44.6077L33.6073 44.6199C33.2916 44.6322 32.9395 45.0608 32.9031 45.7222C32.8788 46.2979 33.1338 46.7266 33.3888 46.8491L33.5709 46.9348L33.5952 47.1308C33.7044 48.0249 34.3601 49.2007 35.3071 50.205C36.2299 51.1849 37.2376 51.8095 37.9418 51.834C39.5324 51.9075 39.8602 48.9925 39.9694 46.4449C40.0787 44.0688 38.7189 42.0723 36.9462 41.9988C36.9138 41.9988 36.8815 41.9988 36.8491 41.9988Z" fill="#040D43"/>
<path d="M32.9763 44.3017C32.9763 44.3017 37.1773 45.9674 40.0791 41.3377C40.0791 41.3377 35.0525 38.9003 34.0691 40.909C33.0735 42.9177 32.9763 44.3017 32.9763 44.3017Z" fill="#040D43"/>
<path d="M37.0916 49.3965C37.0916 49.3965 38.5 49.7395 38.9978 49.3965C38.9978 49.3965 39.1313 50.2539 38.1964 50.2906C37.2737 50.3274 37.0916 49.3965 37.0916 49.3965Z" fill="white"/>
<path d="M31.0451 51.5523L28.0583 54.7613L38.67 65.4661L40.3455 59.9422C35.7925 57.9335 32.2471 55.3859 31.0451 51.5523Z" fill="white"/>
<path fill-rule="evenodd" clip-rule="evenodd" d="M38.8402 66.1642L27.5486 54.7735L31.2032 50.8418L31.3974 51.442C32.4173 54.7245 35.307 57.3211 40.4914 59.6115L40.7828 59.7339L38.8402 66.1642ZM28.5685 54.7612L38.5002 64.7801L39.8965 60.1504C35.0034 57.9335 32.1138 55.4104 30.8996 52.2504L28.5685 54.7612Z" fill="#040D43"/>
<path d="M37.8809 54.7613L38.2208 53.1446L43.8423 64.4863L40.3456 59.9422L37.8809 54.7613Z" fill="white"/>
<path fill-rule="evenodd" clip-rule="evenodd" d="M43.5513 64.7188L40.0303 60.138L37.5049 54.8101L38.0755 52.0298L44.1584 64.3269L43.5513 64.7188ZM40.6617 59.7461L41.8637 61.3139L38.3669 54.259L38.2698 54.7121L40.6617 59.7461Z" fill="#040D43"/>
<path d="M39.5691 62.4893L41.9852 71.3936L44.11 71.0384" fill="white"/>
<path d="M41.7301 71.8104L39.2168 62.5876L39.921 62.3916L42.2522 70.9775L44.0491 70.6713L44.1705 71.394L41.7301 71.8104Z" fill="#040D43"/>
<path d="M41.7549 64.0328C41.7549 64.29 41.5485 64.486 41.3057 64.486C41.0628 64.486 40.8564 64.29 40.8564 64.0328C40.8564 63.7878 41.0628 63.5796 41.3057 63.5796C41.5485 63.5796 41.7549 63.7878 41.7549 64.0328Z" fill="white"/>
<path fill-rule="evenodd" clip-rule="evenodd" d="M41.3057 64.8532C40.8564 64.8532 40.4922 64.4857 40.4922 64.0326C40.4922 63.5794 40.8564 63.2119 41.3057 63.2119C41.7549 63.2119 42.1192 63.5794 42.1192 64.0326C42.1192 64.4857 41.7549 64.8532 41.3057 64.8532ZM41.3057 63.9468C41.2571 63.9468 41.2207 63.9958 41.2207 64.0326C41.2207 64.0816 41.2571 64.1183 41.3057 64.1183C41.3542 64.1183 41.3907 64.0816 41.3907 64.0326C41.3907 63.9958 41.3542 63.9468 41.3057 63.9468Z" fill="#040D43"/>
<path d="M42.5313 66.3726C42.5313 66.6298 42.3249 66.8258 42.082 66.8258C41.8271 66.8258 41.6328 66.6298 41.6328 66.3726C41.6328 66.1277 41.8271 65.9195 42.082 65.9195C42.3249 65.9195 42.5313 66.1277 42.5313 66.3726Z" fill="white"/>
<path fill-rule="evenodd" clip-rule="evenodd" d="M42.082 67.1925C41.6328 67.1925 41.2686 66.8251 41.2686 66.3719C41.2686 65.9187 41.6328 65.5513 42.082 65.5513C42.5313 65.5513 42.8955 65.9187 42.8955 66.3719C42.8955 66.8251 42.5313 67.1925 42.082 67.1925ZM42.082 66.2862C42.0335 66.2862 41.997 66.3229 41.997 66.3719C41.997 66.4209 42.0335 66.4577 42.082 66.4577C42.1306 66.4577 42.167 66.4209 42.167 66.3719C42.167 66.3229 42.1306 66.2862 42.082 66.2862Z" fill="#040D43"/>
<path d="M43.4178 69.2384C43.4178 69.4833 43.2236 69.6793 42.9686 69.6793C42.7258 69.6793 42.5315 69.4833 42.5315 69.2384C42.5315 68.9812 42.7258 68.7852 42.9686 68.7852C43.2236 68.7852 43.4178 68.9812 43.4178 69.2384Z" fill="white"/>
<path fill-rule="evenodd" clip-rule="evenodd" d="M42.9683 70.047C42.5312 70.047 42.167 69.6796 42.167 69.2386C42.167 68.7854 42.5312 68.418 42.9683 68.418C43.4176 68.418 43.7818 68.7854 43.7818 69.2386C43.7818 69.6796 43.4176 70.047 42.9683 70.047ZM42.9683 69.1529C42.9319 69.1529 42.8955 69.1896 42.8955 69.2386C42.8955 69.2754 42.9319 69.3121 42.9683 69.3121C43.0169 69.3121 43.0533 69.2754 43.0533 69.2386C43.0533 69.1896 43.0169 69.1529 42.9683 69.1529Z" fill="#040D43"/>
<path d="M184.453 118.941H109.346V68.2461H184.453V118.941Z" fill="white"/>
<path fill-rule="evenodd" clip-rule="evenodd" d="M184.817 119.309H108.982V67.8789H184.817V119.309ZM109.71 118.574H184.089V68.6138H109.71V118.574Z" fill="#040D43"/>
<path d="M184.453 75.9134H109.346V68.2461H184.453V75.9134Z" fill="white"/>
<path fill-rule="evenodd" clip-rule="evenodd" d="M184.817 76.2811H108.982V67.8789H184.817V76.2811ZM109.71 75.5462H184.089V68.6138H109.71V75.5462Z" fill="#040D43"/>
<path d="M114.64 71.7863C114.64 72.6069 113.972 73.2806 113.159 73.2806C112.333 73.2806 111.665 72.6069 111.665 71.7863C111.665 70.9535 112.333 70.2798 113.159 70.2798C113.972 70.2798 114.64 70.9535 114.64 71.7863Z" fill="#C4C8E0"/>
<path d="M119.23 71.7863C119.23 72.6069 118.562 73.2806 117.748 73.2806C116.923 73.2806 116.255 72.6069 116.255 71.7863C116.255 70.9535 116.923 70.2798 117.748 70.2798C118.562 70.2798 119.23 70.9535 119.23 71.7863Z" fill="#C4C8E0"/>
<path d="M123.82 71.7863C123.82 72.6069 123.152 73.2806 122.339 73.2806C121.513 73.2806 120.845 72.6069 120.845 71.7863C120.845 70.9535 121.513 70.2798 122.339 70.2798C123.152 70.2798 123.82 70.9535 123.82 71.7863Z" fill="#040D43"/>
<path d="M130.181 85.4427H113.389V81.854H130.181V85.4427Z" fill="#C4C8E0"/>
<path d="M156.078 85.4427H131.055V81.854H156.078V85.4427Z" fill="#C4C8E0"/>
<path d="M133.483 114.973H113.389V111.384H133.483V114.973Z" fill="#C4C8E0"/>
<path d="M164.469 114.973H134.528V111.384H164.469V114.973Z" fill="#C4C8E0"/>
<path d="M150.7 95.2904H123.818V91.7017H150.7V95.2904Z" fill="#C4C8E0"/>
<path d="M168.365 95.2904H151.573V91.7017H168.365V95.2904Z" fill="#C4C8E0"/>
<path d="M146.11 110.049H119.229V106.46H146.11V110.049Z" fill="#C4C8E0"/>
<path d="M163.764 110.049H146.985V106.46H163.764V110.049Z" fill="#C4C8E0"/>
<path d="M140.938 90.3661H119.229V86.7774H140.938V90.3661Z" fill="#C4C8E0"/>
<path d="M166.922 90.3661H141.898V86.7774H166.922V90.3661Z" fill="#C4C8E0"/>
<path d="M153.238 100.201H131.529V96.625H153.238V100.201Z" fill="#C4C8E0"/>
<path d="M171.559 100.741H154.148V97.1519H171.559V100.741Z" fill="#C4C8E0"/>
<path d="M151.574 105.125H131.529V101.549H151.574V105.125Z" fill="#C4C8E0"/>
<path d="M169.689 105.42H152.278V101.831H169.689V105.42Z" fill="#C4C8E0"/>
<path d="M143.33 134.337H112.163C111.07 134.337 110.184 133.431 110.184 132.341V127C110.184 125.91 111.07 125.004 112.163 125.004H143.33C144.423 125.004 145.309 125.91 145.309 127V132.341C145.309 133.431 144.423 134.337 143.33 134.337Z" fill="white"/>
<path fill-rule="evenodd" clip-rule="evenodd" d="M143.33 134.705H112.163C110.864 134.705 109.82 133.639 109.82 132.341V127.001C109.82 125.702 110.864 124.637 112.163 124.637H143.33C144.629 124.637 145.673 125.702 145.673 127.001V132.341C145.673 133.639 144.629 134.705 143.33 134.705ZM112.163 125.372C111.264 125.372 110.548 126.107 110.548 127.001V132.341C110.548 133.235 111.264 133.97 112.163 133.97H143.33C144.216 133.97 144.945 133.235 144.945 132.341V127.001C144.945 126.107 144.216 125.372 143.33 125.372H112.163Z" fill="#040D43"/>
<path d="M180.592 134.337H149.413C148.332 134.337 147.434 133.431 147.434 132.341V127C147.434 125.91 148.332 125.004 149.413 125.004H180.592C181.685 125.004 182.571 125.91 182.571 127V132.341C182.571 133.431 181.685 134.337 180.592 134.337Z" fill="white"/>
<path fill-rule="evenodd" clip-rule="evenodd" d="M180.592 134.705H149.413C148.126 134.705 147.069 133.639 147.069 132.341V127.001C147.069 125.702 148.126 124.637 149.413 124.637H180.592C181.879 124.637 182.935 125.702 182.935 127.001V132.341C182.935 133.639 181.879 134.705 180.592 134.705ZM149.413 125.372C148.526 125.372 147.798 126.107 147.798 127.001V132.341C147.798 133.235 148.526 133.97 149.413 133.97H180.592C181.478 133.97 182.207 133.235 182.207 132.341V127.001C182.207 126.107 181.478 125.372 180.592 125.372H149.413Z" fill="#040D43"/>
<path d="M51.2855 85.7127C62.1764 87.6111 73.9293 84.9778 72.2538 92.7921C68.6478 109.707 33.3161 98.5119 28.8966 84.0959C24.5135 69.7779 40.3824 83.8265 51.2855 85.7127Z" fill="#C4C8E0"/>
<path d="M109.346 74.7867L96.6096 78.7673L100.665 83.4216L108.399 78.7795L109.346 74.7867Z" fill="white"/>
<path fill-rule="evenodd" clip-rule="evenodd" d="M100.592 83.8868L95.9661 78.5834L109.844 74.2476L108.715 79.0243L100.592 83.8868ZM97.253 78.9508L100.738 82.9437L108.071 78.5467L108.836 75.3254L97.253 78.9508Z" fill="#040D43"/>
<path d="M85.0992 87.3166C86.4712 79.0369 103.081 76.1831 112.029 76.1954C118.513 76.2076 121.912 76.7588 122.034 78.4735C122.167 80.274 113.923 80.0413 113.923 80.0413C113.923 80.0413 123.381 80.7272 123.381 82.6256C123.393 84.6833 113.984 83.4095 113.984 83.4095C113.984 83.4095 123.491 84.0219 123.138 85.8591C122.883 87.1574 113.425 87.2799 113.425 87.2799C113.425 87.2799 120.334 88.517 120.152 89.6928C119.957 90.9421 110.523 90.6604 105.205 90.4766C101.357 90.3297 84.6136 90.2194 85.0992 87.3166Z" fill="white"/>
<path fill-rule="evenodd" clip-rule="evenodd" d="M112.855 91.003C110.839 91.003 108.326 90.9541 105.193 90.8438C104.805 90.8316 104.283 90.8071 103.663 90.7948C95.3101 90.5744 86.5682 90.0967 85.002 88.186C84.7713 87.9043 84.6863 87.5858 84.7349 87.2674C85.3662 83.4827 89.1301 80.384 95.6136 78.3018C101.296 76.4768 107.779 75.8277 111.992 75.8277C112.009 75.8277 112.021 75.8277 112.029 75.8277C119.362 75.8399 122.264 76.5748 122.398 78.4488C122.422 78.7182 122.325 78.9754 122.118 79.1959C121.572 79.7715 120.152 80.0778 118.634 80.2492C118.658 80.2492 118.686 80.2533 118.719 80.2615C123.223 81.0331 123.745 81.9885 123.745 82.6254C123.745 82.9193 123.624 83.201 123.381 83.4092C122.956 83.7889 122.118 83.9971 121.123 84.0951C122.143 84.3768 122.968 84.732 123.296 85.173C123.527 85.4669 123.527 85.7486 123.49 85.9323C123.381 86.4958 122.665 87.0714 118.209 87.4266C117.59 87.4756 116.97 87.5123 116.388 87.5368C116.574 87.5858 116.76 87.6348 116.946 87.6838C120.224 88.5657 120.589 89.2148 120.504 89.7415C120.394 90.5254 118.913 91.003 112.855 91.003ZM111.992 76.5626C107.84 76.5626 101.429 77.1995 95.8322 78.9999C91.5098 80.384 86.1918 82.9683 85.4512 87.3776C85.439 87.4633 85.4512 87.5736 85.5726 87.7206C86.0097 88.2717 87.7095 89.0311 93.246 89.5333C96.9856 89.8885 101.174 89.9987 103.676 90.0599C104.307 90.0722 104.829 90.0967 105.218 90.1089C108.095 90.2069 111.422 90.3049 114.275 90.2681C118.78 90.1824 119.617 89.766 119.775 89.6313C119.69 89.5088 119.229 89.0433 116.558 88.3452C114.955 87.9288 113.377 87.6348 113.352 87.6348L113.413 86.9122C113.437 86.9122 115.683 86.8754 117.99 86.704C122.228 86.3733 122.726 85.8588 122.786 85.7854C122.786 85.7486 122.786 85.7119 122.726 85.6261C122.203 84.9525 119.654 84.4136 117.14 84.0951C115.574 83.9849 114.263 83.8257 113.935 83.7767L114.008 83.0418C114.336 83.0663 115.635 83.152 117.189 83.3602C119.666 83.5072 122.216 83.4582 122.896 82.8581C123.005 82.7601 123.017 82.6866 123.017 82.6254C123.017 82.5396 122.896 81.7312 118.597 80.9841C116.278 80.5799 113.923 80.4085 113.899 80.4085L113.935 79.6736C116.473 79.7471 120.783 79.5388 121.584 78.6937C121.669 78.608 121.681 78.5467 121.669 78.4977C121.548 76.7708 116.108 76.5626 112.029 76.5626C112.021 76.5626 112.009 76.5626 111.992 76.5626Z" fill="#040D43"/>
<path d="M32.0293 61.3511C32.0293 61.3511 46.6598 70.9291 65.9405 75.4364C82.3315 79.27 98.6375 76.7102 98.6375 76.7102C104.854 78.4984 102.414 92.8287 97.302 92.8287C97.302 92.8287 73.6018 94.176 61.3632 91.4079C40.8562 86.7659 23.8096 79.8212 23.8096 79.8212L32.0293 61.3511Z" fill="white"/>
<path d="M33.789 62.294C33.789 62.294 46.659 70.9289 65.9397 75.4362C82.3307 79.2698 98.6367 76.71 98.6367 76.71C104.853 78.4982 102.413 92.8284 97.3011 92.8284C97.3011 92.8284 73.6009 94.1757 61.3623 91.4077C40.8554 86.7656 27.0869 80.9356 27.0869 80.9356" fill="white"/>
<path d="M84.3463 93.5144C76.77 93.5144 67.5182 93.1714 61.2775 91.7629C45.0322 88.0885 31.7252 83.2872 26.9414 81.2663L27.2328 80.5927C31.9801 82.6013 45.2507 87.3781 61.4353 91.0403C73.4918 93.7716 97.0463 92.4855 97.277 92.461H97.3013C99.6446 92.461 101.357 89.0193 101.83 85.6021C102.328 82.0012 101.527 77.9838 98.6126 77.0897C97.3377 77.2734 81.5295 79.4536 65.8549 75.7914C46.7442 71.3209 33.7163 62.686 33.5949 62.6002L33.9956 61.9878C34.117 62.0736 47.0355 70.635 66.0248 75.081C82.1487 78.8534 98.4183 76.3793 98.5883 76.3548L98.6611 76.3426L98.734 76.3671C102.134 77.3347 103.093 81.7562 102.546 85.7124C102.049 89.3133 100.203 93.1959 97.3134 93.1959C97.022 93.2204 91.4248 93.5144 84.3463 93.5144Z" fill="#040D43"/>
<path d="M149.753 40.7122L133.289 38.4463L132.694 36.3274L145.2 24.7284L146.22 28.2926L137.49 35.9109L148.745 37.1725L149.753 40.7122Z" fill="#040D43"/>
<path d="M158.033 18.0906L156.188 42.1091L152.108 43.2971L153.954 19.2787L158.033 18.0906Z" fill="#040D43"/>
<path d="M163.776 32.8124L172.652 25.733L161.251 23.9326L160.243 20.3806L176.938 23.5039L177.545 25.6228L164.784 36.3644L163.776 32.8124Z" fill="#040D43"/>
<path d="M138.886 14.269L135.729 1.07783L137.138 0L149.486 6.09954L147.13 7.92451L138.862 3.52745L141.242 12.4563L138.886 14.269Z" fill="#040D43"/>
<path d="M186.87 24.9617C186.42 23.7246 186.02 22.6713 185.595 21.7282L187.246 21.1158L188.059 23.149L188.144 23.1122C188.108 21.5322 188.921 20.2339 190.196 19.7685C190.403 19.6828 190.561 19.646 190.755 19.6338L191.398 21.422C191.192 21.4588 190.986 21.5077 190.731 21.6057C189.407 22.0834 188.824 23.4552 189.091 24.9739C189.14 25.2557 189.201 25.5741 189.322 25.8926L191.338 31.4777L189.468 32.1636L186.87 24.9617Z" fill="#040D43"/>
<path d="M193.146 22.5487L192.673 21.2504L203.746 17.1841L204.219 18.4824L193.146 22.5487ZM194.676 26.7866L194.203 25.4883L205.276 21.4097L205.749 22.708L194.676 26.7866Z" fill="#040D43"/>
<path d="M205.859 18.4574C207.389 17.9062 207.292 16.9754 207.025 16.216C206.806 15.6158 206.503 15.0402 206.199 14.4645C205.883 13.8889 205.592 13.3377 205.373 12.7253C204.657 10.7411 205.628 9.41832 207.462 8.74468L207.911 8.58545L208.336 9.77351L207.947 9.92049C206.685 10.3859 206.503 11.231 206.927 12.4069C207.11 12.8968 207.365 13.3989 207.632 13.8889C207.923 14.391 208.166 14.8932 208.384 15.4689C208.907 16.8529 208.554 17.7593 207.68 18.3839L207.692 18.4207C208.749 18.3104 209.611 18.8248 210.096 20.2089C210.303 20.7968 210.436 21.3602 210.546 21.9114C210.655 22.487 210.764 23.0137 210.958 23.5281C211.396 24.7407 212.124 25.2306 213.326 24.7897L213.715 24.6427L214.152 25.8307L213.69 26.0022C211.918 26.6636 210.303 26.3697 209.514 24.1773C209.295 23.6016 209.161 22.9647 209.04 22.34C208.919 21.7276 208.785 21.1152 208.579 20.5273C208.336 19.8537 207.79 19.0086 206.26 19.5597L205.859 18.4574Z" fill="#040D43"/>
<path d="M214.358 35.0787C211.48 36.7444 208.773 39.439 206.83 43.983C204.924 48.4536 204.912 52.2627 205.616 55.5452L203.892 54.7981C203.212 52.03 202.896 48.0739 204.985 43.1747C207.121 38.2387 210.169 35.7523 212.634 34.3315L214.358 35.0787Z" fill="#040D43"/>
<path d="M209.089 57.051C211.918 55.3363 214.674 52.6662 216.604 48.1467C218.535 43.6516 218.559 39.8425 217.831 36.5845L219.518 37.3194C220.235 40.0752 220.526 44.0068 218.414 48.955C216.313 53.8788 213.29 56.3406 210.777 57.7859L209.089 57.051Z" fill="#040D43"/>
<path d="M136.931 202.167C136.931 202.167 117.516 212.149 116.666 214.268C115.816 216.399 116.108 217.232 117.055 217.208L151.816 216.24C152.375 216.228 152.812 215.713 152.739 215.15L150.565 197.88C150.493 197.268 149.861 196.9 149.291 197.133L137.088 202.081C137.032 202.106 136.979 202.134 136.931 202.167Z" fill="#040D43"/>
<path fill-rule="evenodd" clip-rule="evenodd" d="M117.019 217.575C116.461 217.575 116.169 217.318 116.023 217.11C115.647 216.559 115.744 215.579 116.327 214.133C116.91 212.688 124.195 208.622 126.939 207.103C131.71 204.445 136.445 202.008 136.749 201.849C136.814 201.808 136.882 201.771 136.955 201.738L149.158 196.79C149.534 196.631 149.959 196.668 150.311 196.876C150.651 197.084 150.882 197.427 150.93 197.831L153.104 215.113C153.152 215.481 153.031 215.848 152.788 216.142C152.545 216.424 152.193 216.595 151.817 216.608L117.068 217.575C117.051 217.575 117.035 217.575 117.019 217.575ZM149.643 197.427C149.57 197.427 149.497 197.443 149.425 197.476L137.222 202.424C137.19 202.441 137.158 202.457 137.125 202.473L137.089 202.498C129.634 206.331 117.59 212.958 117.007 214.403C116.351 216.02 116.521 216.546 116.618 216.693C116.655 216.73 116.74 216.853 117.055 216.84L151.804 215.873C151.974 215.873 152.132 215.787 152.241 215.664C152.351 215.53 152.399 215.371 152.375 215.199L150.202 197.917C150.19 197.746 150.092 197.599 149.935 197.513C149.85 197.452 149.752 197.427 149.643 197.427Z" fill="#040D43"/>
<path d="M116.194 216.081L116.036 219.572L152.849 219.29L152.74 215.15L116.194 216.081Z" fill="white"/>
<path fill-rule="evenodd" clip-rule="evenodd" d="M115.647 219.939L115.842 215.725L153.092 214.782L153.225 219.657L115.647 219.939ZM116.522 216.436L116.4 219.192L152.46 218.922L152.375 215.517L116.522 216.436Z" fill="#040D43"/>
<path d="M123.284 214.305C123.127 214.305 122.969 214.231 122.859 214.109L120.577 211.329C120.383 211.096 120.407 210.753 120.638 210.557C120.88 210.361 121.22 210.398 121.415 210.63L123.709 213.398C123.892 213.631 123.867 213.986 123.637 214.182C123.527 214.268 123.406 214.305 123.284 214.305Z" fill="white"/>
<path d="M125.882 213.57C125.724 213.57 125.579 213.496 125.469 213.362L122.604 209.908C122.41 209.675 122.446 209.32 122.677 209.124C122.908 208.928 123.248 208.965 123.442 209.197L126.307 212.663C126.501 212.896 126.465 213.239 126.234 213.435C126.137 213.521 126.004 213.57 125.882 213.57Z" fill="white"/>
<path d="M128.918 212.909C128.772 212.909 128.614 212.835 128.505 212.713L125.093 208.585C124.899 208.352 124.935 208.009 125.166 207.813C125.397 207.617 125.749 207.642 125.931 207.875L129.343 212.002C129.537 212.235 129.501 212.578 129.27 212.774C129.173 212.86 129.051 212.909 128.918 212.909Z" fill="white"/>
<path d="M155.568 217.281L167.272 176.348L203.563 190.74C219.408 180.182 224.762 167.505 213.883 163.917C202.737 160.218 150.942 139.825 145.672 156.274C142.455 166.28 128.298 206.54 128.298 206.54C132.001 209.81 151.087 219.021 155.568 217.281Z" fill="white"/>
<path fill-rule="evenodd" clip-rule="evenodd" d="M154.123 217.869C150.748 217.869 144.968 215.628 141.496 214.133C135.753 211.659 129.974 208.512 128.055 206.821L127.873 206.65L127.958 206.417C128.092 206.013 142.151 166.048 145.32 156.163C146 154.044 147.457 152.415 149.643 151.325C154.924 148.68 164.722 149.059 178.758 152.44C190.329 155.232 202.215 159.434 209.33 161.944C211.297 162.63 212.851 163.181 214.005 163.561C217.465 164.712 219.505 166.844 219.881 169.722C220.27 172.613 218.983 176.128 216.166 179.888C213.313 183.685 209.027 187.543 203.769 191.046L203.612 191.156L167.503 176.838L155.859 217.563L155.689 217.624C155.264 217.796 154.73 217.869 154.123 217.869ZM128.723 206.417C130.763 208.107 136.287 211.084 141.787 213.448C148.307 216.265 153.309 217.575 155.264 217L167.029 175.858L203.527 190.323C213.774 183.452 219.905 175.417 219.165 169.82C218.813 167.199 217.004 165.325 213.774 164.259C212.608 163.88 211.054 163.328 209.087 162.63C194.979 157.658 161.942 145.985 149.971 151.987C147.967 152.991 146.632 154.473 146.012 156.384C142.965 165.888 129.901 203.073 128.723 206.417Z" fill="#040D43"/>
<path d="M167.612 176.458L166.92 176.238L170.623 164.063L171.327 164.271L167.612 176.458Z" fill="#040D43"/>
<path d="M203.077 176.593C203.077 176.593 174.472 178.406 161.371 199.668C155.009 210.006 152.581 197.219 154.354 190.666C157.365 179.569 160.655 161.699 176.22 162.838C191.786 163.977 203.077 176.593 203.077 176.593Z" fill="#C4C8E0"/>
<path d="M227.471 212.076C227.471 212.076 247.068 220.257 249.168 219.596C251.269 218.922 251.694 218.2 251.075 217.514L228.419 192.564C228.042 192.16 227.399 192.148 227.034 192.54L215.706 204.665C215.306 205.094 215.439 205.78 215.961 206.05L227.314 212.002C227.362 212.027 227.415 212.051 227.471 212.076Z" fill="#040D43"/>
<path fill-rule="evenodd" clip-rule="evenodd" d="M248.876 219.988C246.776 219.988 240.049 217.428 237.402 216.424C232.449 214.538 227.665 212.541 227.349 212.419C227.276 212.394 227.208 212.366 227.143 212.333L215.803 206.38C215.438 206.197 215.196 205.854 215.123 205.462C215.062 205.082 215.171 204.69 215.438 204.408L226.766 192.295C227.009 192.026 227.349 191.879 227.714 191.891C228.09 191.891 228.442 192.05 228.685 192.32L251.341 217.269C251.729 217.698 251.729 218.077 251.669 218.334C251.499 218.971 250.746 219.474 249.277 219.939C249.172 219.972 249.038 219.988 248.876 219.988ZM227.714 192.626C227.544 192.626 227.398 192.687 227.301 192.797L215.973 204.911C215.863 205.033 215.815 205.18 215.839 205.339C215.863 205.498 215.973 205.645 216.13 205.731L227.483 211.671C227.515 211.696 227.548 211.712 227.58 211.72L227.616 211.733C234.804 214.734 246.521 219.265 248.803 219.265C248.908 219.265 248.993 219.257 249.058 219.241C250.697 218.726 250.928 218.273 250.964 218.138C250.977 218.102 251.013 217.979 250.807 217.759L228.151 192.809C228.041 192.687 227.883 192.626 227.714 192.626Z" fill="#040D43"/>
<path d="M250.795 218.837L253.466 216.828L230.009 189.943L227.034 192.54L250.795 218.837Z" fill="white"/>
<path fill-rule="evenodd" clip-rule="evenodd" d="M250.758 219.339L250.528 219.094L226.512 192.515L230.033 189.429L254 216.877L250.758 219.339ZM227.556 192.589L250.843 218.359L252.932 216.779L229.972 190.47L227.556 192.589Z" fill="#040D43"/>
<path d="M244.02 218.971C243.988 218.971 243.956 218.967 243.923 218.959C243.632 218.91 243.426 218.616 243.486 218.322L244.069 214.942C244.118 214.648 244.409 214.452 244.7 214.501C245.004 214.55 245.198 214.844 245.15 215.138L244.555 218.506C244.506 218.775 244.275 218.971 244.02 218.971Z" fill="white"/>
<path d="M241.689 218.346C241.656 218.346 241.624 218.342 241.591 218.334C241.288 218.285 241.094 217.991 241.142 217.697L241.883 213.484C241.931 213.19 242.223 212.982 242.514 213.043C242.818 213.092 243.012 213.374 242.963 213.68L242.223 217.893C242.174 218.15 241.944 218.346 241.689 218.346Z" fill="white"/>
<path d="M239.139 217.318C239.107 217.318 239.075 217.313 239.042 217.305C238.751 217.256 238.557 216.962 238.605 216.668L239.479 211.659C239.528 211.353 239.819 211.157 240.111 211.206C240.414 211.255 240.608 211.549 240.56 211.843L239.674 216.864C239.637 217.122 239.406 217.318 239.139 217.318Z" fill="white"/>
<path d="M227.471 212.627C227.423 212.627 227.37 212.619 227.313 212.602C227.224 212.57 227.139 212.533 227.058 212.492C226.791 212.345 226.682 212.014 226.828 211.745C226.961 211.475 227.289 211.378 227.568 211.512C227.584 211.529 227.605 211.541 227.629 211.549C227.92 211.635 228.09 211.941 228.005 212.235C227.933 212.468 227.714 212.627 227.471 212.627Z" fill="white"/>
<path d="M225.382 193.385C225.382 193.385 203.552 194.891 196.206 195.528C215.268 186.538 221.169 172.22 221.169 172.22C214.564 165.679 199.169 162.654 190.39 158.453C190.39 158.453 171.947 186.085 164.723 198.639C158.944 208.658 164.444 219.473 179.075 219.473C200.334 219.473 230.955 218.726 230.955 218.726C235.545 216.913 229.17 199.031 225.382 193.385Z" fill="white"/>
<path fill-rule="evenodd" clip-rule="evenodd" d="M179.074 219.841C175.371 219.841 172.129 219.167 169.434 217.832C166.921 216.595 164.942 214.782 163.679 212.577C161.336 208.474 161.603 203.318 164.408 198.455C171.559 186.036 189.905 158.527 190.087 158.245L190.269 157.988L190.548 158.123C193.571 159.568 197.347 160.866 201.354 162.238C209.064 164.883 217.041 167.627 221.424 171.951L221.594 172.122L221.497 172.355C221.436 172.502 219.967 176.041 216.118 180.732C212.791 184.799 207.024 190.457 198.112 195.001C206.684 194.316 225.163 193.042 225.358 193.017L225.564 193.005L225.686 193.189C229 198.137 234.209 212.075 232.631 217.207C232.339 218.163 231.817 218.787 231.089 219.069L231.028 219.093H230.967C230.664 219.106 200.103 219.841 179.074 219.841ZM190.524 158.919C188.618 161.772 171.802 187.077 165.039 198.823C162.368 203.453 162.101 208.34 164.31 212.222C166.812 216.595 172.19 219.106 179.074 219.106C199.606 219.106 229.255 218.408 230.882 218.371C231.368 218.15 231.708 217.697 231.926 216.987C233.408 212.198 228.381 198.651 225.2 193.764C222.929 193.924 203.115 195.308 196.242 195.896L194.203 196.067L196.048 195.197C205.822 190.58 212.039 184.542 215.535 180.292C218.777 176.348 220.343 173.163 220.732 172.306C216.434 168.19 208.651 165.52 201.123 162.936C197.226 161.601 193.523 160.327 190.524 158.919Z" fill="#040D43"/>
<path d="M182.377 196.643L182.341 195.908L196.486 195.137L196.522 195.872L182.377 196.643Z" fill="#040D43"/>
<path d="M180.386 93.4776C179.099 89.5827 175.918 88.3947 175.918 88.3947C175.918 88.3947 173.295 81.5847 172.312 81.744C171.437 81.8909 172.7 86.3125 173.198 88.3947C172.591 86.3615 170.842 82.0869 169.944 82.4299C168.596 82.9443 170.636 89.9624 170.636 89.9624C170.636 89.9624 168.596 83.9486 167.346 84.5243C166.326 85.002 167.042 86.8392 168.39 90.4156C166.945 89.4235 164.638 88.064 164.213 89.0438C163.679 90.2441 168.475 94.0655 170.126 95.3148C172.336 102.088 175.213 111.335 180.543 110.294C182.729 109.866 181.321 96.2947 180.386 93.4776Z" fill="white"/>
<path fill-rule="evenodd" clip-rule="evenodd" d="M179.718 110.686C177.63 110.686 175.76 109.179 174.024 106.105C172.372 103.178 171.11 99.3197 169.993 95.9147L169.859 95.4983C169.009 94.8491 167.455 93.6121 166.144 92.3873C164.917 91.2237 163.558 89.7907 163.934 88.9211C164.031 88.6761 164.225 88.5169 164.48 88.4434C165.112 88.2597 166.217 88.6638 167.783 89.6559C166.569 86.4347 166.034 84.7935 167.224 84.2423C167.358 84.1811 167.576 84.1321 167.856 84.2423C168.39 84.475 168.961 85.3446 169.47 86.3367C169.13 84.5485 168.9 82.5031 169.835 82.1479C169.956 82.0989 170.138 82.0744 170.381 82.1969C170.867 82.4418 171.425 83.3114 171.935 84.3403C171.68 83.0542 171.62 82.1111 171.874 81.7069C171.972 81.56 172.105 81.4742 172.263 81.4497C172.7 81.3762 173.307 81.7314 174.752 84.8792C175.408 86.2877 175.978 87.733 176.148 88.1617C176.78 88.4311 179.487 89.7907 180.677 93.3794C181.466 95.7677 182.85 107.391 181.333 110C181.138 110.343 180.896 110.539 180.604 110.588C180.305 110.653 180.009 110.686 179.718 110.686ZM164.82 89.0068C164.756 89.0068 164.699 89.015 164.65 89.0313C164.565 89.0558 164.517 89.0925 164.492 89.166C164.262 89.6927 165.986 91.7626 170.308 95.0696L170.381 95.1308L170.575 95.731C171.68 99.0992 172.931 102.921 174.558 105.799C176.379 109.045 178.322 110.416 180.483 109.988C180.596 109.971 180.705 109.873 180.811 109.694C182.11 107.428 180.944 96.1229 180.094 93.5753C178.88 89.8764 175.833 88.6883 175.808 88.6761L175.675 88.6271L175.626 88.5046C174.036 84.3648 172.773 82.2581 172.372 82.0621C172.324 82.1601 172.227 82.5521 172.482 83.9483C172.664 84.9894 172.979 86.2387 173.222 87.2553C173.331 87.6473 173.416 88.0147 173.489 88.3209L172.907 88.4801C172.627 87.5493 172.069 86.0305 171.45 84.7445C170.49 82.748 170.053 82.7235 170.053 82.7235C169.75 82.8338 169.64 83.9973 170.078 86.3367C170.417 88.1127 170.927 89.8642 170.927 89.8764L170.357 90.0601C169.725 88.2229 168.426 85.1609 167.613 84.8057C167.528 84.769 167.491 84.7935 167.479 84.7935C166.726 85.1486 167.431 87.0104 168.596 90.0969L169.021 91.2237L168.22 90.6725C166.666 89.607 165.427 89.0068 164.82 89.0068Z" fill="#040D43"/>
<path d="M180.943 97.1271C180.943 97.1271 183.59 93.5262 178.794 86.1406C175.65 81.3026 173.901 82.3437 176.354 86.606C177.094 87.8921 176.754 89.6313 176.451 90.2192C175.577 91.9217 175.601 95.1674 176.888 96.3188C178.175 97.4578 180.943 97.1271 180.943 97.1271Z" fill="white"/>
<path fill-rule="evenodd" clip-rule="evenodd" d="M180.033 97.4825C179.062 97.4825 177.58 97.3355 176.694 96.5516C175.298 95.3145 175.249 91.8973 176.184 90.0846C176.476 89.5089 176.755 87.9045 176.087 86.7531C174.885 84.6587 174.569 83.1522 175.249 82.7358C176.002 82.2703 177.423 83.4706 179.037 85.9693C183.906 93.4528 181.296 97.1517 181.186 97.311L181.114 97.4212L180.98 97.4335C180.944 97.4335 180.567 97.4825 180.033 97.4825ZM175.626 83.2379C175.601 83.2379 175.581 83.242 175.565 83.2502C175.419 83.3482 175.383 84.3158 176.621 86.4469C177.41 87.8187 177.07 89.6682 176.718 90.3663C175.747 92.2648 176.099 95.2043 177.095 96.0862C178.102 96.9925 180.203 96.8823 180.761 96.8333C180.931 96.5516 181.332 95.7187 181.369 94.3347C181.441 91.4197 179.875 88.3576 178.54 86.3C176.961 83.8871 175.929 83.2379 175.626 83.2379Z" fill="#040D43"/>
<path d="M214.624 131.275C214.624 131.275 193.219 134.717 185.57 132.549C183.166 131.875 179.912 130.038 178.443 125.788C174.982 115.806 170.041 100.459 170.041 100.459C169.409 97.0908 176.646 93.845 181.551 94.5309C184.173 100.973 186.492 110.38 189.673 117.802C190.414 119.542 204.304 113.711 210.29 110.368" fill="white"/>
<path d="M192.928 133.578C189.698 133.578 187.209 133.333 185.485 132.843C183.445 132.267 179.779 130.601 178.152 125.898C174.74 116.014 169.811 100.704 169.762 100.557L169.75 100.52C169.568 99.5646 169.944 98.5602 170.818 97.6294C173.04 95.2778 177.97 93.7222 181.588 94.2367L181.758 94.2612L181.831 94.4204C183.033 97.3599 184.15 100.887 185.34 104.623C186.76 109.057 188.217 113.65 189.953 117.679C189.965 117.704 190.002 117.728 190.075 117.753C192.042 118.439 204.207 113.405 210.145 110.098L210.436 110.637C204.972 113.687 192.236 119.149 189.868 118.329C189.577 118.231 189.443 118.047 189.395 117.912C187.659 113.87 186.189 109.265 184.769 104.807C183.603 101.157 182.498 97.7029 181.333 94.8123C177.958 94.4081 173.295 95.9024 171.268 98.0581C170.515 98.8419 170.211 99.6258 170.345 100.385C170.539 101.01 175.371 115.977 178.722 125.69C180.264 130.136 183.725 131.716 185.655 132.255C193.159 134.374 214.358 131.005 214.576 130.969L214.673 131.569C214.613 131.581 209.234 132.438 202.993 133.026C199.096 133.394 195.733 133.578 192.928 133.578Z" fill="#040D43"/>
<path d="M221.169 172.221C221.169 172.221 232.934 142.997 232.655 123.559C232.436 108.849 221.861 106.216 215.317 108.335C212.208 109.339 205.761 111.36 203.381 118.341C193.826 146.463 184.854 154.412 184.854 154.412C184.854 170.849 210.739 180.182 221.169 172.221Z" fill="white"/>
<path fill-rule="evenodd" clip-rule="evenodd" d="M211.188 175.417C210.897 175.417 210.597 175.409 210.29 175.392C206.052 175.245 201.487 174.045 197.42 172.012C193.68 170.138 190.536 167.651 188.314 164.81C185.813 161.613 184.55 158.11 184.55 154.411V154.264L184.659 154.179C184.683 154.154 186.93 152.133 190.305 146.719C195.963 137.656 200.382 126.228 203.102 118.243C205.494 111.2 211.99 109.093 215.11 108.077L215.219 108.04C218.388 107.011 223.172 106.925 227.094 109.767C231.829 113.196 232.897 119.149 232.958 123.546C233.031 129.119 232.12 139.138 227.3 155.269C224.422 164.908 221.472 172.257 221.448 172.33L221.411 172.404L221.351 172.465C218.813 174.4 215.316 175.417 211.188 175.417ZM185.157 154.546C185.193 158.061 186.407 161.38 188.787 164.43C190.961 167.198 194.032 169.636 197.687 171.461C201.681 173.457 206.162 174.645 210.314 174.78C214.649 174.927 218.315 173.984 220.914 172.024C221.241 171.203 224.01 164.161 226.717 155.085C231.513 139.028 232.424 129.082 232.351 123.558C232.266 117.459 230.323 112.854 226.741 110.257C223.002 107.562 218.437 107.648 215.401 108.628L215.304 108.665C212.269 109.645 205.967 111.69 203.673 118.451C200.941 126.473 196.497 137.962 190.791 147.087C187.743 151.962 185.643 154.081 185.157 154.546Z" fill="#040D43"/>
<path d="M222.662 108.077L219.565 101.402L214.114 102.529L215.316 108.334L213.058 113.074C213.058 113.074 222.006 109.339 222.662 108.077Z" fill="white"/>
<path fill-rule="evenodd" clip-rule="evenodd" d="M212.438 113.675L214.988 108.298L213.75 102.296L219.736 101.047L223.002 108.09L222.941 108.224C222.261 109.51 214.685 112.732 213.179 113.356L212.438 113.675ZM214.466 102.786L215.62 108.383L213.665 112.499C217.55 110.845 221.605 108.861 222.31 108.065L219.383 101.757L214.466 102.786Z" fill="#040D43"/>
<path d="M212.013 93.5384C213.3 91.4195 214.126 94.0651 216.931 93.5507C219.092 93.1587 220.962 94.1141 221.508 97.1761C222.091 100.385 217.805 104.451 216.906 103.533C215.996 102.614 216.008 101.132 216.919 100.226C217.38 99.7727 214.927 99.9319 214.029 99.0133C213.13 98.0947 210.496 96.0493 212.013 93.5384Z" fill="#040D43"/>
<path d="M216.153 96.3191C217.477 96.2579 218.667 97.2499 219.237 98.7197C219.747 98.7442 220.16 99.3199 220.197 100.043C220.221 100.667 219.954 101.206 219.565 101.402C219.322 103.325 216.821 105.934 215.267 105.995C213.458 106.081 213.167 103.117 213.07 100.753C212.96 98.3768 214.344 96.3926 216.153 96.3191Z" fill="white"/>
<path fill-rule="evenodd" clip-rule="evenodd" d="M215.195 106.301C212.997 106.301 212.839 102.566 212.766 100.765C212.657 98.23 214.163 96.0988 216.142 96.0131C217.501 95.9518 218.789 96.8949 219.456 98.4382C220.027 98.5974 220.464 99.2343 220.5 100.03C220.525 100.692 220.27 101.292 219.845 101.586C219.481 103.631 216.992 106.228 215.28 106.301C215.247 106.301 215.219 106.301 215.195 106.301ZM213.373 100.729C213.568 105.199 214.478 105.726 215.255 105.689C216.797 105.628 219.068 102.945 219.262 101.353L219.286 101.194L219.432 101.121C219.675 100.998 219.918 100.606 219.893 100.067C219.869 99.5038 219.566 99.0383 219.226 99.0261L219.031 99.0138L218.958 98.8301C218.412 97.4338 217.319 96.5765 216.166 96.6255C214.527 96.699 213.276 98.5362 213.373 100.729Z" fill="#040D43"/>
<path d="M219.796 98.7559C219.796 98.7559 215.948 100.287 213.301 96.0491C213.301 96.0491 217.902 93.8199 218.801 95.6571C219.711 97.4944 219.796 98.7559 219.796 98.7559Z" fill="#040D43"/>
<path d="M216.032 103.423C216.032 103.423 214.745 103.741 214.296 103.423C214.296 103.423 214.175 104.219 215.025 104.243C215.862 104.28 216.032 103.423 216.032 103.423Z" fill="white"/>
<path d="M221.569 105.395L224.301 108.334L214.587 118.133L213.058 113.074C217.222 111.237 220.476 108.91 221.569 105.395Z" fill="white"/>
<path fill-rule="evenodd" clip-rule="evenodd" d="M214.454 118.708L212.693 112.903L212.936 112.792C217.684 110.698 220.33 108.322 221.277 105.309L221.435 104.807L224.726 108.346L214.454 118.708ZM213.434 113.246L214.745 117.557L223.888 108.322L221.69 105.97C220.597 108.885 217.951 111.212 213.434 113.246Z" fill="#040D43"/>
<path d="M215.316 108.334L215 106.852L209.864 117.238L213.057 113.074L215.316 108.334Z" fill="white"/>
<path fill-rule="evenodd" clip-rule="evenodd" d="M210.095 117.422L209.585 117.103L215.121 105.933L215.631 108.37L213.325 113.245L210.095 117.422ZM214.879 107.77L211.503 114.58L212.79 112.902L214.988 108.285L214.879 107.77Z" fill="#040D43"/>
<path d="M213.762 115.414L211.552 123.559L209.609 123.228" fill="white"/>
<path d="M211.77 123.902L209.561 123.534L209.658 122.934L211.333 123.204L213.47 115.328L214.065 115.5L211.77 123.902Z" fill="#040D43"/>
<path d="M211.771 116.822C211.771 117.054 211.953 117.238 212.171 117.238C212.402 117.238 212.584 117.054 212.584 116.822C212.584 116.601 212.402 116.417 212.171 116.417C211.953 116.417 211.771 116.601 211.771 116.822Z" fill="white"/>
<path fill-rule="evenodd" clip-rule="evenodd" d="M212.171 117.545C211.782 117.545 211.467 117.226 211.467 116.822C211.467 116.43 211.782 116.112 212.171 116.112C212.572 116.112 212.887 116.43 212.887 116.822C212.887 117.226 212.572 117.545 212.171 117.545ZM212.171 116.724C212.122 116.724 212.074 116.773 212.074 116.822C212.074 116.883 212.122 116.932 212.171 116.932C212.232 116.932 212.28 116.883 212.28 116.822C212.28 116.773 212.232 116.724 212.171 116.724Z" fill="#040D43"/>
<path d="M211.055 118.965C211.055 119.197 211.249 119.381 211.467 119.381C211.698 119.381 211.88 119.197 211.88 118.965C211.88 118.732 211.698 118.548 211.467 118.548C211.249 118.548 211.055 118.732 211.055 118.965Z" fill="white"/>
<path fill-rule="evenodd" clip-rule="evenodd" d="M211.467 119.688C211.079 119.688 210.751 119.357 210.751 118.965C210.751 118.573 211.079 118.243 211.467 118.243C211.868 118.243 212.184 118.573 212.184 118.965C212.184 119.357 211.868 119.688 211.467 119.688ZM211.467 118.855C211.407 118.855 211.358 118.904 211.358 118.965C211.358 119.027 211.407 119.076 211.467 119.076C211.528 119.076 211.577 119.027 211.577 118.965C211.577 118.904 211.528 118.855 211.467 118.855Z" fill="#040D43"/>
<path d="M210.241 121.586C210.241 121.807 210.423 121.991 210.654 121.991C210.873 121.991 211.055 121.807 211.055 121.586C211.055 121.354 210.873 121.17 210.654 121.17C210.423 121.17 210.241 121.354 210.241 121.586Z" fill="white"/>
<path fill-rule="evenodd" clip-rule="evenodd" d="M210.654 122.297C210.253 122.297 209.938 121.978 209.938 121.586C209.938 121.182 210.253 120.864 210.654 120.864C211.042 120.864 211.358 121.182 211.358 121.586C211.358 121.978 211.042 122.297 210.654 122.297ZM210.654 121.476C210.593 121.476 210.545 121.525 210.545 121.586C210.545 121.635 210.593 121.684 210.654 121.684C210.715 121.684 210.751 121.635 210.751 121.586C210.751 121.525 210.715 121.476 210.654 121.476Z" fill="#040D43"/>
<path d="M203.053 136.664C193.073 138.391 182.316 135.99 183.845 143.143C187.16 158.625 219.493 148.373 223.524 135.182C227.543 122.077 213.021 134.937 203.053 136.664Z" fill="#C4C8E0"/>
<path d="M149.91 126.669L161.566 130.307L157.851 134.569L150.772 130.319L149.91 126.669Z" fill="white"/>
<path fill-rule="evenodd" clip-rule="evenodd" d="M157.911 134.961L150.517 130.528L149.497 126.216L162.1 130.16L157.911 134.961ZM151.051 130.136L157.79 134.178L161.031 130.466L150.335 127.123L151.051 130.136Z" fill="#040D43"/>
<path d="M172.105 138.134C170.842 130.552 155.641 127.943 147.445 127.956C141.52 127.956 138.4 128.47 138.291 130.038C138.181 131.679 145.709 131.471 145.709 131.471C145.709 131.471 137.064 132.095 137.064 133.835C137.052 135.721 145.661 134.557 145.661 134.557C145.661 134.557 136.955 135.121 137.283 136.799C137.514 137.987 146.183 138.097 146.183 138.097C146.183 138.097 139.857 139.224 140.015 140.302C140.197 141.453 148.83 141.196 153.698 141.024C157.219 140.89 172.542 140.792 172.105 138.134Z" fill="white"/>
<path fill-rule="evenodd" clip-rule="evenodd" d="M146.802 141.477C146.219 141.477 145.648 141.477 145.09 141.465C140.755 141.379 139.808 140.951 139.723 140.35C139.65 139.885 139.978 139.297 142.965 138.501C143.2 138.436 143.434 138.374 143.669 138.317C143.086 138.293 142.443 138.244 141.799 138.195C137.732 137.876 137.076 137.337 136.991 136.86C136.943 136.627 137.004 136.394 137.161 136.198C137.477 135.77 138.291 135.439 139.286 135.169C138.315 135.084 137.489 134.9 137.089 134.533C136.87 134.349 136.761 134.104 136.761 133.834C136.761 133.259 137.234 132.414 141.338 131.703C141.435 131.687 141.532 131.671 141.629 131.654C140.172 131.507 138.764 131.226 138.242 130.687C138.06 130.491 137.975 130.258 137.987 130.013C138.108 128.323 140.755 127.661 147.445 127.649C151.294 127.637 157.256 128.237 162.464 129.903C168.389 131.813 171.825 134.643 172.396 138.084C172.445 138.378 172.36 138.66 172.165 138.905C170.745 140.644 162.744 141.085 155.119 141.281C154.548 141.306 154.062 141.318 153.71 141.33C151.513 141.404 149.06 141.477 146.802 141.477ZM140.33 140.252C140.427 140.363 141.071 140.779 145.345 140.853C147.967 140.902 151.027 140.816 153.686 140.718C154.05 140.706 154.524 140.693 155.094 140.669C159.247 140.559 170.259 140.277 171.692 138.513C171.813 138.366 171.813 138.256 171.801 138.182C171.121 134.141 166.252 131.764 162.282 130.491C157.158 128.849 151.294 128.262 147.494 128.262C147.478 128.262 147.461 128.262 147.445 128.262C143.39 128.262 138.703 128.47 138.594 130.062C138.594 130.099 138.594 130.172 138.679 130.258C139.432 131.042 143.39 131.238 145.709 131.164L145.733 131.777C145.709 131.777 143.56 131.936 141.435 132.303C137.562 132.977 137.368 133.7 137.368 133.834C137.368 133.896 137.38 133.981 137.489 134.079C137.768 134.324 138.728 134.716 141.969 134.582C142.237 134.565 142.5 134.549 142.759 134.533C144.167 134.349 145.345 134.275 145.636 134.251L145.697 134.863C145.405 134.9 144.203 135.059 142.771 135.145C140.464 135.451 138.121 135.941 137.635 136.566C137.574 136.651 137.574 136.7 137.586 136.737C137.611 136.786 137.951 137.288 141.957 137.595C144.082 137.766 146.158 137.791 146.183 137.791L146.231 138.391C146.219 138.403 144.738 138.66 143.256 139.052C140.682 139.726 140.367 140.167 140.33 140.252Z" fill="#040D43"/>
<path d="M220.671 114.373C220.671 114.373 207.279 123.13 189.638 127.258C174.631 130.76 159.709 128.433 159.709 128.433C154.015 130.062 156.249 143.18 160.935 143.18C160.935 143.18 182.62 144.405 193.827 141.869C212.585 137.619 228.187 131.275 228.187 131.275L220.671 114.373Z" fill="white"/>
<path d="M219.057 115.23C219.057 115.23 207.279 123.13 189.638 127.258C174.631 130.761 159.709 128.433 159.709 128.433C154.015 130.062 156.249 143.18 160.935 143.18C160.935 143.18 182.62 144.405 193.827 141.87C212.585 137.619 225.188 132.292 225.188 132.292" fill="white"/>
<path d="M172.846 143.78C166.374 143.78 161.166 143.498 160.923 143.486C159.745 143.486 158.64 142.739 157.754 141.343C156.977 140.106 156.406 138.44 156.151 136.652C155.654 133.051 156.54 129.021 159.624 128.139L159.685 128.115L159.757 128.127C159.903 128.152 174.801 130.417 189.565 126.963C206.939 122.897 218.765 115.058 218.886 114.985L219.226 115.487C219.105 115.573 207.194 123.461 189.71 127.551C175.335 130.92 160.85 128.911 159.733 128.739C157.038 129.56 156.297 133.259 156.758 136.566C157.196 139.701 158.762 142.874 160.935 142.874H160.947C161.008 142.874 166.265 143.168 172.846 143.168C172.959 143.168 173.073 143.168 173.186 143.168C179.39 143.168 187.998 142.874 193.766 141.575C212.281 137.374 224.945 132.059 225.079 132.01L225.309 132.573C225.188 132.622 212.464 137.962 193.899 142.176C188.083 143.486 179.414 143.78 173.174 143.78C173.068 143.78 172.959 143.78 172.846 143.78Z" fill="#040D43"/>
</svg>
