<svg width="228" height="220" viewBox="0 0 228 220" fill="none" xmlns="http://www.w3.org/2000/svg">
<path d="M194.133 116.405H193.224V85.6235H194.133V116.405Z" fill="#040D43"/>
<path d="M193.678 116.405L191.055 108.95H196.21L193.678 116.405Z" fill="#040D43"/>
<path d="M108.982 97.4446H56.0295V65.8982H108.982V97.4446Z" fill="white"/>
<path fill-rule="evenodd" clip-rule="evenodd" d="M109.437 97.8945H55.5745V65.448H109.437V97.8945ZM56.484 96.9944H108.527V66.348H56.484V96.9944Z" fill="#040D43"/>
<path d="M164.541 97.4444H111.589V65.8979H164.541V97.4444Z" fill="white"/>
<path fill-rule="evenodd" clip-rule="evenodd" d="M164.996 97.8943H111.134V65.4478H164.996V97.8943ZM112.043 96.9942H164.086V66.3478H112.043V96.9942Z" fill="#040D43"/>
<path d="M220.117 97.4444H167.164V65.8979H220.117V97.4444Z" fill="white"/>
<path fill-rule="evenodd" clip-rule="evenodd" d="M220.572 97.8943H166.71V65.4478H220.572V97.8943ZM167.62 96.9942H219.662V66.3478H167.62V96.9942Z" fill="#040D43"/>
<path d="M202.274 75.1686H170.605V69.9033H202.274V75.1686Z" fill="#C4C8E0"/>
<path d="M195.331 89.449H170.605V84.1987H195.331V89.449Z" fill="#C4C8E0"/>
<path d="M197.089 82.3087H170.605V77.0435H197.089V82.3087Z" fill="#C4C8E0"/>
<path d="M148.29 75.1686H116.622V69.9033H148.29V75.1686Z" fill="#C4C8E0"/>
<path d="M227.544 154.957H134.889V116.121H227.544V154.957Z" fill="white"/>
<path fill-rule="evenodd" clip-rule="evenodd" d="M228 155.407H134.435V115.67H228V155.407ZM135.344 154.507H227.09V116.57H135.344V154.507Z" fill="#040D43"/>
<path d="M179.049 148.552H140.665V120.831H179.049V148.552Z" fill="white"/>
<path fill-rule="evenodd" clip-rule="evenodd" d="M179.505 149.002H140.211V120.381H179.505V149.002ZM141.121 148.102H178.595V121.281H141.121V148.102Z" fill="#040D43"/>
<path d="M221.77 148.552H183.386V120.831H221.77V148.552Z" fill="white"/>
<path fill-rule="evenodd" clip-rule="evenodd" d="M222.225 149.002H182.931V120.381H222.225V149.002ZM183.84 148.102H221.315V121.281H183.84V148.102Z" fill="#040D43"/>
<path d="M204.365 40.2015H71.3848V0.449707H204.365V40.2015Z" fill="white"/>
<path fill-rule="evenodd" clip-rule="evenodd" d="M204.82 40.6519H70.9307V0H204.82V40.6519ZM71.8402 39.7518H203.911V0.915039H71.8402V39.7518Z" fill="#040D43"/>
<path d="M114.362 34.5016H75.0684V6.13525H114.362V34.5016Z" fill="white"/>
<path fill-rule="evenodd" clip-rule="evenodd" d="M114.818 34.9519H74.6143V5.68555H114.818V34.9519ZM75.5238 34.0519H113.908V6.58559H75.5238V34.0519Z" fill="#040D43"/>
<path d="M156.734 34.5016H117.456V6.13525H156.734V34.5016Z" fill="white"/>
<path fill-rule="evenodd" clip-rule="evenodd" d="M157.189 34.9519H117.001V5.68555H157.189V34.9519ZM117.911 34.0519H156.28V6.58559H117.911V34.0519Z" fill="#040D43"/>
<path d="M199.12 34.5016H159.826V6.13525H199.12V34.5016Z" fill="white"/>
<path fill-rule="evenodd" clip-rule="evenodd" d="M199.575 34.9519H159.372V5.68555H199.575V34.9519ZM160.281 34.0519H198.666V6.58559H160.281V34.0519Z" fill="#040D43"/>
<path d="M90.3045 13.7107H77.8281V10.2905H90.3045V13.7107Z" fill="#C4C8E0"/>
<path d="M109.542 13.7107H90.9561V10.2905H109.542V13.7107Z" fill="#C4C8E0"/>
<path d="M97.7933 27.6915H77.8281V24.2563H97.7933V27.6915Z" fill="#C4C8E0"/>
<path d="M93.9579 23.0261H77.8281V19.606H93.9579V23.0261Z" fill="#C4C8E0"/>
<path d="M182.505 17.7608H162.54V14.3257H182.505V17.7608Z" fill="#C4C8E0"/>
<path d="M178.67 13.0954H162.54V9.67529H178.67V13.0954Z" fill="#C4C8E0"/>
<path d="M95.1101 18.3756H77.8281V14.9404H95.1101V18.3756Z" fill="#C4C8E0"/>
<path d="M108.238 18.3756H95.7009V14.9404H108.238V18.3756Z" fill="#C4C8E0"/>
<path d="M140.954 13.7107H120.291V10.2905H140.954V13.7107Z" fill="#C4C8E0"/>
<path d="M152.005 13.7107H141.394V10.2905H152.005V13.7107Z" fill="#C4C8E0"/>
<path d="M136.421 23.0261H120.291V19.606H136.421V23.0261Z" fill="#C4C8E0"/>
<path d="M137.573 18.3756H120.291V14.9404H137.573V18.3756Z" fill="#C4C8E0"/>
<path d="M93.0346 65.493H92.125V34.7266H93.0346V65.493Z" fill="#040D43"/>
<path d="M92.5799 65.4934L89.9573 58.0381H95.1115L92.5799 65.4934Z" fill="#040D43"/>
<path d="M136.922 65.493H136.012V34.7266H136.922V65.493Z" fill="#040D43"/>
<path d="M136.466 65.4932L133.843 58.0379H138.998L136.466 65.4932Z" fill="#040D43"/>
<path d="M179.974 65.493H179.065V34.7266H179.974V65.493Z" fill="#040D43"/>
<path d="M179.519 65.4934L176.896 58.0381H182.051L179.519 65.4934Z" fill="#040D43"/>
<path d="M208.565 219.475H18.5244V218.575H208.565V219.475Z" fill="#040D43"/>
<path d="M111.969 120.74C106.541 116.54 114.334 104.914 117.881 98.4787C120.443 93.8285 122.186 91.6084 123.475 92.1784C124.809 92.7784 121.398 98.6137 121.398 98.6137C121.398 98.6137 125.627 92.0884 126.992 92.8234C128.477 93.6185 123.839 99.8738 123.839 99.8738C123.839 99.8738 128.053 93.2885 129.22 94.2485C130.054 94.9385 126.401 101.779 126.401 101.779C126.401 101.779 130.024 97.3087 130.797 97.8937C131.631 98.5087 127.689 105.184 125.461 108.934C123.839 111.634 113.864 122.21 111.969 120.74Z" fill="white"/>
<path fill-rule="evenodd" clip-rule="evenodd" d="M112.424 121.34C112.131 121.34 111.883 121.26 111.681 121.1C106.618 117.17 112.045 107.735 116.017 100.849C116.548 99.9194 117.048 99.0643 117.472 98.2693C120.004 93.6791 121.929 90.994 123.657 91.774C123.824 91.849 124.052 92.014 124.173 92.359C124.324 92.854 124.173 93.6341 123.885 94.4891C125.431 92.674 126.477 92.029 127.205 92.434C127.462 92.569 127.644 92.794 127.705 93.0941C127.735 93.2591 127.826 93.6041 127.538 94.4441C127.993 94.0391 128.418 93.7841 128.781 93.7241C129.13 93.6641 129.373 93.7991 129.524 93.9041C129.903 94.2191 130.161 94.8641 128.539 98.4643C128.468 98.6343 128.392 98.8043 128.311 98.9743C129.736 97.5193 130.525 97.1142 131.07 97.5343C131.859 98.1193 131.268 100.084 125.84 109.16C124.461 111.47 115.987 120.695 112.773 121.295C112.652 121.325 112.535 121.34 112.424 121.34ZM123.051 92.539C121.671 92.539 119.14 97.1292 118.276 98.7043C117.836 99.4993 117.336 100.369 116.805 101.284C113.212 107.525 107.8 116.945 112.242 120.395C112.303 120.44 112.439 120.44 112.606 120.41C115.335 119.9 123.612 111.14 125.067 108.71C126.25 106.73 127.599 104.435 128.69 102.394C130.1 99.7244 130.403 98.7193 130.449 98.3443C129.812 98.6593 128.22 100.249 126.75 102.064C126.614 102.244 126.356 102.289 126.159 102.169C125.962 102.034 125.886 101.779 126.007 101.569C127.917 97.9993 128.963 95.2392 128.903 94.6091C128.493 94.6541 127.296 95.7942 125.734 97.9093C124.961 99.1393 124.249 100.099 124.218 100.144C124.067 100.339 123.794 100.384 123.597 100.249C123.385 100.114 123.324 99.8444 123.46 99.6344C123.688 99.2893 124.264 98.4043 124.976 97.4292C126.053 95.7192 126.962 93.9491 126.826 93.3041C126.811 93.2291 126.78 93.2291 126.78 93.2141C126.765 93.2141 126.159 93.0641 124.036 95.7192C122.839 97.2193 121.793 98.8393 121.778 98.8543C121.641 99.0643 121.368 99.1243 121.156 99.0043C120.944 98.8693 120.883 98.5993 121.004 98.3893C121.004 98.3743 121.793 97.0392 122.445 95.6142C123.627 93.034 123.278 92.599 123.278 92.584C123.208 92.554 123.132 92.539 123.051 92.539Z" fill="#040D43"/>
<path d="M67.4756 115.085C67.4756 115.085 92.6709 132.771 101.706 137.196C110.817 141.666 125.931 109.475 125.931 109.475C126.613 105.889 120.383 100.894 115.092 101.629C110.878 109.025 104.541 123.8 100.008 121.07C91.352 115.85 69.2341 99.4242 69.2341 99.4242" fill="white"/>
<path d="M103.54 138.066C102.823 138.066 102.141 137.911 101.494 137.601C92.5346 133.206 67.4606 115.64 67.218 115.46L67.7334 114.725C67.9912 114.905 93.0045 132.426 101.903 136.791C102.889 137.271 103.95 137.301 105.178 136.866C113.713 133.911 124.885 110.6 125.492 109.325C125.689 108.185 125.052 106.775 123.763 105.425C121.944 103.535 118.579 101.704 115.38 102.049C114.592 103.415 113.758 105.035 112.864 106.73C109.407 113.315 105.496 120.755 101.964 121.73C101.176 121.955 100.433 121.85 99.7657 121.445C91.2005 116.27 69.1888 99.9493 68.9614 99.7843L69.5071 99.0643C69.7345 99.2293 91.7159 115.535 100.236 120.68C100.69 120.95 101.176 121.025 101.706 120.875C104.874 120.005 108.846 112.415 112.045 106.325C112.985 104.525 113.879 102.829 114.698 101.404L114.804 101.209L115.031 101.179C118.624 100.684 122.338 102.649 124.415 104.81C125.931 106.385 126.644 108.11 126.371 109.55V109.61L126.34 109.655C126.31 109.715 123.384 115.925 119.397 122.435C114.001 131.241 109.316 136.386 105.481 137.721C104.814 137.951 104.167 138.066 103.54 138.066Z" fill="#040D43"/>
<path d="M170.999 111.98L171.605 110.21L188.069 115.655L187.462 117.425L170.999 111.98Z" fill="#040D43"/>
<path d="M10.1262 53.3873L12.9762 44.9569L155.098 91.939L152.248 100.369L10.1262 53.3873Z" fill="white"/>
<path fill-rule="evenodd" clip-rule="evenodd" d="M152.535 100.94L152.111 100.805L9.5498 53.6725L12.6878 44.3871L13.1275 44.5221L155.673 91.6542L152.535 100.94ZM10.7019 53.1025L151.959 99.8146L154.521 92.2243L13.2639 45.5271L10.7019 53.1025Z" fill="#040D43"/>
<path d="M5.38062 67.428L8.23062 58.9976L150.352 105.995L147.502 114.425L5.38062 67.428Z" fill="#C4C8E0"/>
<path d="M7.6543 60.6925L10.5043 52.2621L152.626 99.2442L149.776 107.69L7.6543 60.6925Z" fill="white"/>
<path fill-rule="evenodd" clip-rule="evenodd" d="M150.064 108.245L149.639 108.11L7.07812 60.9781L10.2162 51.6927L10.6558 51.8277L153.202 98.9749L150.064 108.245ZM8.23025 60.3931L149.487 107.105L152.049 99.5149L10.7922 52.8178L8.23025 60.3931Z" fill="#040D43"/>
<path d="M155.097 91.939L178.715 112.46L178.488 114.26L147.502 114.425C147.502 114.425 144.621 112.385 143.575 110C142.544 107.63 149.775 107.69 149.775 107.69C149.775 107.69 142.347 105.23 144.318 101.014C145.925 97.6092 152.626 99.2443 152.626 99.2443C152.626 99.2443 146.365 96.1392 147.805 93.694C149.245 91.2639 155.097 91.939 155.097 91.939Z" fill="#040D43"/>
<path d="M178.714 112.46L155.096 91.939C155.096 91.939 149.244 91.264 147.804 93.6941C146.364 96.1392 152.625 99.2443 152.625 99.2443C152.625 99.2443 152.504 99.2293 152.276 99.2143L178.699 112.475L178.714 112.46Z" fill="white"/>
<path fill-rule="evenodd" clip-rule="evenodd" d="M179.079 113.165L149.851 98.4939L150.548 98.5689C150.407 98.4789 150.265 98.3839 150.124 98.2839C148.502 97.1588 147.531 96.0938 147.228 95.1037C147.046 94.5187 147.107 93.9637 147.41 93.4687C148.972 90.8135 154.899 91.4735 155.142 91.5036L155.293 91.5186L155.399 91.6086L179.185 112.28L179.079 113.165ZM154.96 100.039L175.759 110.479L154.899 92.3736C153.262 92.1936 149.214 92.1786 148.199 93.9187C148.032 94.2037 148.001 94.5037 148.108 94.8337C148.578 96.4238 151.685 98.2689 152.837 98.8389L155.369 100.099L154.96 100.039Z" fill="#040D43"/>
<path d="M149.639 108.11C149.412 108.035 143.985 106.19 143.985 101.75C143.985 100.805 144.333 100.04 145.031 99.4847C145.925 98.7647 147.274 98.5096 148.578 98.4646L10.3679 52.6825L10.656 51.8275L152.429 98.7797L152.186 99.6497C152.141 99.6347 147.456 98.6897 145.607 100.19C145.122 100.565 144.894 101.075 144.894 101.75C144.894 105.545 149.867 107.24 149.927 107.255L149.639 108.11Z" fill="#040D43"/>
<path d="M178.973 113.9L147.502 107.69L147.668 106.805L179.14 113.03L178.973 113.9Z" fill="white"/>
<path d="M72.4321 88.894C71.659 83.5087 68.6877 74.2083 53.8919 77.4334C39.748 80.5086 41.4762 98.6294 29.9549 109.46C18.4185 120.29 -4.44224 119.045 0.757506 148.507C6.89715 183.263 65.6861 155.137 65.6861 155.137C65.6861 155.137 73.9178 99.4245 72.4321 88.894Z" fill="#040D43"/>
<path d="M24.1487 166.312C20.7226 165.502 16.6447 162.817 13.2338 159.097C9.41357 154.957 7.01836 150.172 6.45745 145.627C5.80559 140.211 7.44282 132.501 19.0702 126.606C36.3219 117.845 39.0506 109.805 42.8102 98.6743C43.5833 96.3642 44.402 93.9941 45.3873 91.414C49.4501 80.8535 56.6661 78.0784 62.0477 79.0084C64.9281 79.5035 67.0504 81.0785 67.0807 82.7586L66.1712 82.7736C66.156 81.7085 64.5491 80.3435 61.8961 79.8935C56.8632 79.0234 50.102 81.6936 46.2363 91.744C45.2509 94.2941 44.4474 96.6642 43.6743 98.9594C39.8389 110.285 37.0647 118.475 19.4796 127.401C10.6567 131.886 6.45745 138.156 7.36703 145.522C7.89761 149.872 10.217 154.492 13.9008 158.497C17.145 162.022 21.1471 164.677 24.361 165.442L24.1487 166.312Z" fill="white"/>
<path d="M33.6084 165.457C29.7123 164.077 20.7378 155.932 20.5104 147.681C20.4498 145.146 21.2078 142.836 22.7844 140.811C24.5581 138.531 27.3474 136.581 31.107 135.036C38.0501 132.171 43.4469 126.71 47.1762 118.805C50.8297 111.05 51.9818 102.859 52.3001 97.3691C52.7398 89.7338 54.7408 84.8136 58.2427 82.7285C61.8204 80.6134 65.5497 82.2784 65.7012 82.3534L65.3223 83.1635C65.2616 83.1335 61.8355 81.6334 58.7127 83.5085C55.4685 85.4286 53.619 90.1088 53.2097 97.4141C52.8914 102.994 51.7241 111.29 47.9948 119.195C44.1746 127.296 38.611 132.906 31.4557 135.861C24.6642 138.666 21.2987 142.641 21.42 147.651C21.511 151.027 23.2695 154.897 26.3621 158.542C29.1817 161.872 32.2591 164.017 33.9115 164.602L33.6084 165.457Z" fill="white"/>
<path d="M45.054 210.909C45.054 210.909 22.2388 220.27 19.7829 219.505C17.3422 218.74 16.842 217.915 17.5696 217.135L43.9625 188.633C44.387 188.168 45.1449 188.153 45.5694 188.603L58.7583 202.449C59.2282 202.944 59.0766 203.724 58.4551 204.039L45.2511 210.834C45.1904 210.864 45.1247 210.889 45.054 210.909Z" fill="#040D43"/>
<path fill-rule="evenodd" clip-rule="evenodd" d="M20.1467 220C19.9446 220 19.7778 219.98 19.6464 219.94C17.9334 219.4 17.039 218.815 16.8419 218.08C16.7661 217.78 16.7661 217.33 17.2361 216.82L43.6289 188.318C43.917 188.003 44.3263 187.823 44.7659 187.823C45.2055 187.823 45.6148 187.988 45.9029 188.288L59.0917 202.134C59.4101 202.479 59.5465 202.914 59.4707 203.364C59.3949 203.829 59.1069 204.219 58.6673 204.444L45.4632 211.239C45.3824 211.279 45.2965 211.314 45.2055 211.344C44.8417 211.494 39.2781 213.759 33.5023 215.92C26.1044 218.68 21.7991 220 20.1467 220ZM44.7811 188.723C44.5991 188.723 44.4172 188.798 44.296 188.933L17.9031 217.435C17.6757 217.675 17.706 217.795 17.7212 217.84C17.7666 217.99 18.0395 218.485 19.9193 219.07C20.0002 219.1 20.1012 219.115 20.2225 219.115C22.8754 219.115 36.5039 213.924 44.872 210.504L44.9175 210.489C44.9579 210.469 44.9983 210.449 45.0388 210.429L58.258 203.634C58.4247 203.544 58.546 203.394 58.5763 203.214C58.6066 203.049 58.546 202.884 58.4399 202.764L45.2359 188.903C45.1297 188.783 44.963 188.723 44.7811 188.723Z" fill="#040D43"/>
<path d="M17.888 218.65L14.7803 216.34L42.113 185.634L45.5694 188.604L17.888 218.65Z" fill="white"/>
<path fill-rule="evenodd" clip-rule="evenodd" d="M17.9487 219.25L14.1133 216.414L42.0676 185.003L46.2213 188.558L17.9487 219.25ZM15.4625 216.279L17.8274 218.049L44.9176 188.648L42.1586 186.278L15.4625 216.279Z" fill="#040D43"/>
<path d="M25.7857 218.83C25.4674 218.83 25.1794 218.605 25.1187 218.275L24.4214 214.42C24.3607 214.06 24.6033 213.715 24.9823 213.64C25.3461 213.58 25.7099 213.82 25.7706 214.195L26.4528 218.05C26.5286 218.41 26.2708 218.755 25.907 218.83C25.8666 218.83 25.8262 218.83 25.7857 218.83Z" fill="white"/>
<path d="M28.4994 218.125C28.181 218.125 27.893 217.9 27.8324 217.57L26.9683 212.755C26.9076 212.395 27.1502 212.035 27.5292 211.975C27.893 211.915 28.2568 212.155 28.3175 212.53L29.1816 217.33C29.2422 217.705 28.9996 218.05 28.6207 218.11C28.5802 218.12 28.5398 218.125 28.4994 218.125Z" fill="white"/>
<path d="M31.4708 216.955C31.1373 216.955 30.8493 216.715 30.7887 216.4L29.773 210.67C29.7123 210.295 29.9549 209.949 30.3187 209.874C30.6977 209.814 31.0464 210.069 31.1222 210.43L32.1379 216.16C32.1985 216.52 31.9559 216.88 31.5921 216.94C31.5517 216.95 31.5113 216.955 31.4708 216.955Z" fill="white"/>
<path d="M45.0535 211.584C44.7655 211.584 44.4926 211.404 44.4017 211.104C44.2956 210.744 44.4926 210.369 44.8565 210.264C44.8868 210.254 44.9121 210.244 44.9323 210.234C45.2658 210.069 45.6751 210.189 45.857 210.519C46.0238 210.849 45.9025 211.269 45.5538 211.434C45.4628 211.484 45.3618 211.524 45.2506 211.554C45.1799 211.574 45.1142 211.584 45.0535 211.584Z" fill="white"/>
<path d="M45.8114 187.808C45.8114 187.808 72.9016 189.638 82.0126 190.403C63.6998 186.263 54.7859 170.497 54.7859 170.497C62.9721 162.547 78.3439 150.396 89.2285 145.281C89.2285 145.281 112.104 178.913 121.079 194.183C128.249 206.394 121.428 219.55 103.266 219.55C76.8886 219.55 38.8835 218.65 38.8835 218.65C33.1986 216.429 41.112 194.678 45.8114 187.808Z" fill="white"/>
<path fill-rule="evenodd" clip-rule="evenodd" d="M103.266 220C77.1916 220 39.2623 219.1 38.8833 219.1H38.7923L38.7166 219.07C37.8221 218.71 37.1854 217.945 36.8216 216.79C34.866 210.549 41.3088 193.584 45.4323 187.553L45.5839 187.328L45.8416 187.358C46.069 187.373 66.3374 188.738 77.6009 189.608C72.7954 187.913 66.8983 184.838 61.2134 179.213C56.6958 174.758 54.4825 170.872 54.3916 170.722L54.2097 170.422L54.4674 170.167C58.8333 165.937 64.7608 160.942 70.7185 156.472C75.5847 152.827 82.7097 147.846 89.0313 144.876L89.38 144.711L89.6074 145.026C89.8347 145.371 112.604 178.853 121.473 193.959C124.96 199.884 125.293 206.154 122.367 211.164C120.821 213.849 118.35 216.055 115.242 217.555C111.892 219.19 107.86 220 103.266 220ZM38.9894 218.2C41.0208 218.245 77.798 219.1 103.266 219.1C111.816 219.1 118.486 216.055 121.579 210.714C124.338 205.989 124.005 200.049 120.7 194.424C112.301 180.128 91.4417 149.361 89.0768 145.851C81.0119 149.737 66.4132 159.892 55.3618 170.572C55.9682 171.563 58.136 174.923 61.8653 178.598C65.9432 182.618 72.765 187.853 82.1185 189.968L81.9669 190.853C73.4472 190.133 48.8583 188.453 46.0386 188.273C42.0971 194.214 35.8514 210.684 37.6857 216.52C37.9586 217.39 38.383 217.945 38.9894 218.2Z" fill="#040D43"/>
<path d="M99.174 191.769L81.6191 190.824L81.6798 189.924L99.2194 190.869L99.174 191.769Z" fill="#040D43"/>
<g style="mix-blend-mode:multiply">
<path d="M65.5193 179.813C65.5193 179.813 101.023 182.018 117.274 207.909C125.172 220.48 128.189 204.924 125.976 196.943C122.247 183.428 108.876 162.187 108.876 162.187L65.5193 179.813Z" fill="#C4C8E0"/>
</g>
<path d="M156.718 199.419C156.718 199.419 179.473 210.88 180.474 213.325C181.474 215.77 181.125 216.745 180.019 216.7L139.27 215.59C138.603 215.575 138.102 214.99 138.178 214.345L140.725 194.469C140.816 193.779 141.559 193.359 142.226 193.614L156.521 199.314C156.592 199.344 156.658 199.379 156.718 199.419Z" fill="#040D43"/>
<path fill-rule="evenodd" clip-rule="evenodd" d="M180.065 217.165C180.045 217.165 180.024 217.16 180.004 217.15L139.255 216.04C138.815 216.04 138.391 215.83 138.103 215.5C137.815 215.17 137.678 214.72 137.724 214.285L140.271 194.424C140.331 193.944 140.604 193.539 141.014 193.299C141.438 193.059 141.938 193.029 142.393 193.209L156.704 198.894C156.785 198.934 156.865 198.979 156.946 199.029C157.31 199.209 162.859 202.014 168.437 205.059C171.666 206.814 180.216 211.48 180.898 213.16C181.596 214.87 181.702 215.965 181.247 216.61C181.08 216.865 180.732 217.165 180.065 217.165ZM141.802 193.989C141.696 193.989 141.574 194.019 141.484 194.079C141.317 194.169 141.195 194.334 141.18 194.529L138.633 214.405C138.603 214.585 138.664 214.765 138.785 214.915C138.906 215.05 139.088 215.14 139.285 215.14L180.019 216.25C180.383 216.265 180.474 216.145 180.504 216.1C180.626 215.935 180.808 215.35 180.05 213.505C179.883 213.085 178.367 211.51 167.998 205.854C162.267 202.719 156.567 199.839 156.507 199.809L156.476 199.794C156.436 199.764 156.396 199.744 156.355 199.734L142.06 194.034C141.979 194.004 141.893 193.989 141.802 193.989Z" fill="#040D43"/>
<path d="M181.035 215.41L181.217 219.43L138.057 219.1L138.179 214.345L181.035 215.41Z" fill="white"/>
<path fill-rule="evenodd" clip-rule="evenodd" d="M181.702 219.88L137.588 219.55L137.739 213.88L181.475 214.975L181.702 219.88ZM138.528 218.65L180.747 218.965L180.611 215.845L138.634 214.81L138.528 218.65Z" fill="#040D43"/>
<path d="M172.713 213.414C172.562 213.414 172.41 213.354 172.289 213.249C171.986 213.009 171.955 212.589 172.198 212.304L174.881 209.109C175.124 208.824 175.548 208.794 175.836 209.034C176.124 209.274 176.17 209.694 175.927 209.979L173.244 213.174C173.107 213.324 172.91 213.414 172.713 213.414Z" fill="white"/>
<path d="M169.666 212.56C169.514 212.56 169.362 212.515 169.226 212.41C168.938 212.17 168.908 211.735 169.15 211.45L172.5 207.474C172.743 207.189 173.167 207.144 173.455 207.384C173.743 207.624 173.789 208.044 173.546 208.33L170.196 212.32C170.06 212.47 169.863 212.56 169.666 212.56Z" fill="white"/>
<path d="M166.103 211.81C165.951 211.81 165.8 211.75 165.663 211.645C165.375 211.405 165.345 210.985 165.588 210.7L169.575 205.959C169.817 205.674 170.242 205.629 170.545 205.869C170.833 206.109 170.863 206.529 170.621 206.814L166.634 211.555C166.497 211.72 166.3 211.81 166.103 211.81Z" fill="white"/>
<path d="M132.448 216.88L117.926 167.062L70.1576 185.633C50.4956 172.777 46.5844 156.307 60.0765 151.926C73.9172 147.426 138.179 122.6 144.713 142.626C148.7 154.807 166.285 203.814 166.285 203.814C161.676 207.789 138.012 218.995 132.448 216.88Z" fill="white"/>
<path fill-rule="evenodd" clip-rule="evenodd" d="M134.238 217.6C133.48 217.6 132.813 217.51 132.283 217.3L132.07 217.225L117.623 167.662L70.0978 186.143L69.9007 186.008C63.7763 182.003 58.8494 177.428 55.6659 172.763C52.6188 168.307 51.2847 163.987 51.785 160.267C52.3459 156.082 55.1656 153.037 59.9409 151.492C61.3659 151.027 63.2912 150.367 65.7318 149.512C74.5547 146.466 89.305 141.351 103.661 137.961C121.08 133.836 133.238 133.386 139.802 136.596C142.515 137.931 144.319 139.911 145.153 142.491C149.095 154.522 166.528 203.169 166.71 203.664L166.816 203.949L166.589 204.144C164.194 206.214 157.023 210.039 149.898 213.04C145.593 214.87 138.422 217.6 134.238 217.6ZM132.813 216.535C135.254 217.24 141.454 215.635 149.549 212.215C156.371 209.334 163.208 205.719 165.755 203.664C164.284 199.569 148.064 154.327 144.289 142.761C143.531 140.436 141.879 138.621 139.392 137.406C124.536 130.116 83.5444 144.306 66.035 150.367C63.5943 151.222 61.6539 151.882 60.2138 152.347C55.8023 153.787 53.1949 156.562 52.6794 160.387C51.6789 167.752 58.5614 177.458 70.2039 185.138L118.214 166.462L132.813 216.535Z" fill="#040D43"/>
<path d="M117.486 167.182L112.878 152.362L113.757 152.107L118.351 166.927L117.486 167.182Z" fill="#040D43"/>
<path d="M52.1329 164.108C52.1329 164.108 45.0989 130.251 42.3702 113.705C39.6414 97.1447 54.5736 95.1796 61.1074 96.1847C64.8519 96.7547 75.2362 100.685 76.646 106.31C84.4987 137.587 91.6995 142.612 91.6995 142.612C79.8599 143.977 53.755 155.212 52.1329 164.108Z" fill="white"/>
<path fill-rule="evenodd" clip-rule="evenodd" d="M52.1636 166.477L51.6936 164.197C51.6178 163.852 44.6141 130.146 41.9157 113.765C40.9455 107.869 42.0824 103.264 45.2811 100.054C47.267 98.089 50.0564 96.679 53.3763 95.9889C55.9383 95.4639 58.7732 95.3739 61.1684 95.7339C65.1099 96.3339 75.6003 100.324 77.086 106.204C79.2993 115.025 82.8921 127.325 87.4248 135.816C90.1536 140.916 91.9424 142.236 91.9575 142.236L92.9126 142.926L91.7453 143.061C85.7876 143.751 76.3735 146.916 68.2934 150.936C59.0006 155.572 53.2702 160.402 52.588 164.182L52.1636 166.477ZM58.1061 96.409C56.5902 96.409 55.0287 96.574 53.5583 96.874C50.4202 97.519 47.7824 98.8541 45.933 100.699C42.9314 103.684 41.8854 108.034 42.8101 113.63C45.1598 127.895 50.784 155.362 52.2242 162.367C56.3325 153.697 79.2083 144.006 90.6841 142.296C88.6073 140.136 82.6344 132.051 76.1915 106.429C74.8423 101.029 64.6702 97.174 61.0319 96.619C60.1072 96.484 59.1218 96.409 58.1061 96.409Z" fill="#040D43"/>
<g style="mix-blend-mode:multiply">
<path d="M48.0245 124.161C51.5718 112.925 93.5336 138.981 90.8049 145.042C88.0762 151.087 44.4771 135.396 48.0245 124.161Z" fill="#C4C8E0"/>
</g>
<path d="M56.273 96.5744L63.6861 88.8941L68.6887 92.8842L63.6254 97.4144C63.6254 97.4144 73.0244 105.89 70.2199 107.84C67.0212 110.06 56.0456 98.1645 56.273 96.5744Z" fill="white"/>
<path fill-rule="evenodd" clip-rule="evenodd" d="M69.2489 108.56C68.3848 108.56 67.2933 108.155 65.9895 107.375C61.9571 104.915 55.5901 98.1048 55.8175 96.4997L55.8478 96.3647L63.6398 88.2793L69.4005 92.8695L64.2917 97.4147C65.8986 98.8998 71.3712 104.18 71.1893 106.925C71.159 107.465 70.9164 107.9 70.492 108.2C70.1483 108.44 69.734 108.56 69.2489 108.56ZM56.7422 96.7397C57.0909 98.0898 62.8515 104.78 67.2175 107.03C68.0967 107.48 69.2943 107.93 69.9614 107.465C70.1736 107.33 70.2646 107.135 70.2949 106.865C70.3252 106.265 69.9462 104.735 66.9143 101.375C65.1558 99.3948 63.3366 97.7598 63.3063 97.7448L62.9425 97.4147L67.9906 92.8995L63.7156 89.5094L56.7422 96.7397Z" fill="#040D43"/>
<path d="M66.6264 82.7587C65.0801 82.6987 67.0812 87.1539 63.0335 85.4889C62.4575 85.5339 61.9572 86.1789 61.9269 87.0189C61.8966 87.724 62.1998 88.339 62.6545 88.549C62.9426 90.7541 65.8381 93.7243 67.6572 93.7993C69.7644 93.8893 70.0979 90.5141 70.2192 87.814C70.3405 85.1139 68.7336 82.8488 66.6264 82.7587Z" fill="white"/>
<path fill-rule="evenodd" clip-rule="evenodd" d="M67.7486 94.2495C67.7082 94.2495 67.6728 94.2495 67.6425 94.2495C65.6263 94.1595 62.7005 91.1893 62.2457 88.8342C61.7454 88.4742 61.4422 87.7692 61.4725 86.9891C61.518 85.9241 62.185 85.099 63.0037 85.054L63.1098 85.039L63.2159 85.0841C64.2467 85.5041 64.7319 85.4591 64.9441 85.3241C65.2776 85.1291 65.3534 84.559 65.4292 83.989C65.5202 83.269 65.6566 82.2639 66.6571 82.3089C68.9917 82.4139 70.7957 84.889 70.6744 87.8292C70.6138 89.1942 70.4925 90.7543 70.1135 91.9844C69.6587 93.4844 68.8553 94.2495 67.7486 94.2495ZM62.9733 85.9541C62.7005 86.0441 62.4124 86.4641 62.3821 87.0341C62.3518 87.6042 62.5943 88.0242 62.8521 88.1442L63.0795 88.2492L63.1098 88.5042C63.2311 89.4192 63.9132 90.6343 64.9138 91.6694C65.8688 92.6594 66.9603 93.3194 67.6728 93.3494C68.1276 93.3644 68.7795 93.2294 69.2494 91.7293C69.5981 90.5743 69.7042 89.0142 69.7648 87.7992C69.871 85.3391 68.4611 83.284 66.6116 83.209C66.4752 83.209 66.4146 83.494 66.3236 84.109C66.2327 84.814 66.1265 85.6991 65.3989 86.1041C64.838 86.4341 64.0497 86.3741 62.9733 85.9541Z" fill="#040D43"/>
<path d="M68.7639 123.275L68.6123 122.39C68.6578 122.375 72.6144 121.685 73.5089 119.06C74.1759 117.11 73.0238 114.545 70.098 111.44L70.765 110.825C73.9485 114.2 75.1613 117.065 74.373 119.345C73.3118 122.48 68.961 123.245 68.7639 123.275Z" fill="#040D43"/>
<path d="M77.995 120.29C77.995 120.29 88.4248 115.4 76.4336 108.17L77.995 120.29Z" fill="white"/>
<path d="M78.1925 120.695L77.8135 119.87C77.8438 119.855 81.6034 118.07 81.7398 115.205C81.8611 113.075 79.9965 110.84 76.1914 108.545L76.6765 107.78C80.7696 110.255 82.7858 112.775 82.6494 115.25C82.5736 116.675 81.7701 118.07 80.33 119.285C79.2688 120.185 78.238 120.665 78.1925 120.695Z" fill="#040D43"/>
<path d="M103.023 99.724L101.053 109.864L106.98 108.529L106.237 100.669L103.023 99.724Z" fill="white"/>
<path fill-rule="evenodd" clip-rule="evenodd" d="M101.053 110.315C100.932 110.315 100.826 110.27 100.735 110.195C100.629 110.09 100.568 109.925 100.598 109.775L102.569 99.6341C102.599 99.5141 102.675 99.3941 102.781 99.3341C102.887 99.2741 103.024 99.2441 103.145 99.2891L106.374 100.234C106.541 100.279 106.677 100.444 106.693 100.624L107.42 108.485C107.451 108.71 107.299 108.92 107.072 108.965L101.159 110.3C101.119 110.31 101.083 110.315 101.053 110.315ZM103.373 100.294L101.629 109.28L106.48 108.17L105.813 101.014L103.373 100.294Z" fill="#040D43"/>
<path d="M98.4162 124.895C91.655 120.425 99.826 108.89 105.496 98.269C108.497 92.6588 110.65 90.0336 112.181 90.7237C113.788 91.4437 109.71 98.419 109.71 98.419C109.71 98.419 114.758 90.6187 116.395 91.4887C118.169 92.4337 112.636 99.9341 112.636 99.9341C112.636 99.9341 117.654 92.0437 119.064 93.1988C120.064 94.0238 115.789 101.839 115.789 101.839C115.789 101.839 120.019 96.8439 120.959 97.549C121.944 98.299 117.244 106.279 114.561 110.765C112.621 114.005 100.811 126.47 98.4162 124.895Z" fill="white"/>
<path fill-rule="evenodd" clip-rule="evenodd" d="M98.9457 125.48C98.6426 125.48 98.3848 125.405 98.1726 125.255C95.3984 123.44 94.7314 120.365 96.1109 115.88C97.2933 112.01 99.8856 107.389 102.387 102.934C103.297 101.329 104.236 99.6641 105.085 98.059C108.421 91.8187 110.603 89.5086 112.377 90.3037C112.559 90.3937 112.817 90.5737 112.938 90.9637C113.014 91.2037 113.226 91.8487 112.423 93.9188C114.424 91.4887 115.727 90.6187 116.622 91.0987C116.895 91.2487 117.092 91.5037 117.168 91.8337C117.213 92.0438 117.319 92.5088 116.864 93.7088C117.865 92.7638 118.335 92.6888 118.547 92.6588C118.941 92.5838 119.199 92.7338 119.366 92.8538C119.821 93.2438 120.002 94.1288 118.214 98.014C118.047 98.389 117.865 98.7641 117.698 99.1091C119.563 97.264 120.594 96.709 121.23 97.189C122.11 97.849 121.367 100.249 114.954 110.99C114.014 112.535 111.028 115.97 107.981 118.97C105.768 121.16 101.72 124.895 99.4612 125.42C99.2691 125.46 99.0973 125.48 98.9457 125.48ZM98.6729 124.52C98.8093 124.61 99.067 124.58 99.2489 124.535C100.75 124.205 103.691 121.94 107.344 118.34C110.346 115.385 113.272 112.025 114.166 110.525C115.591 108.139 117.228 105.364 118.532 102.904C120.427 99.3341 120.639 98.254 120.639 97.939C119.987 98.089 118.001 99.9341 116.137 102.124C115.985 102.304 115.727 102.349 115.53 102.214C115.333 102.079 115.273 101.824 115.394 101.629C115.394 101.614 116.379 99.7991 117.289 97.864C118.85 94.5189 118.79 93.6938 118.759 93.5438C118.739 93.5338 118.714 93.5338 118.684 93.5438C118.198 93.6188 116.834 94.7739 114.848 97.489C113.893 98.9741 113.014 100.189 112.999 100.204C112.862 100.399 112.574 100.444 112.377 100.309C112.18 100.174 112.119 99.8891 112.241 99.6941C112.256 99.6791 112.999 98.5091 113.984 97.159C115.288 95.1039 116.47 92.8838 116.273 92.0287C116.243 91.9237 116.213 91.8937 116.182 91.8787C116.182 91.8787 115.47 91.5487 112.802 94.8939C111.361 96.709 110.103 98.6441 110.088 98.6591C109.952 98.8691 109.679 98.9291 109.467 98.8091C109.254 98.6741 109.178 98.404 109.315 98.194C110.558 96.0639 112.407 92.2988 112.074 91.2337C112.044 91.1437 112.013 91.1287 111.998 91.1287C111.195 90.7687 109.482 91.7437 105.889 98.479C105.025 100.099 104.1 101.764 103.19 103.369C98.0968 112.415 93.2912 120.965 98.6729 124.52Z" fill="#040D43"/>
<path d="M45.811 118.73C45.811 118.73 75.9483 139.866 86.742 145.161C97.6569 150.516 115.727 111.994 115.727 111.994C116.546 107.719 108.208 103.339 101.886 104.209C96.8383 113.059 90.1377 129.14 84.7258 125.87C74.3717 119.63 47.9182 99.9939 47.9182 99.9939L45.811 118.73Z" fill="white"/>
<path d="M88.9554 146.121C88.1065 146.121 87.3031 145.936 86.5451 145.566C75.8424 140.316 45.8415 119.3 45.5383 119.09L46.0689 118.355C46.3721 118.565 76.2972 139.536 86.9544 144.756C88.152 145.341 89.4557 145.386 90.9414 144.861C101.204 141.291 114.636 113.27 115.288 111.86C115.515 110.525 114.681 109.325 113.923 108.544C111.331 105.844 106.207 104.149 102.159 104.629C101.22 106.294 100.234 108.199 99.173 110.21C95.4286 117.38 91.1688 125.51 87.1666 126.62C86.2116 126.89 85.3171 126.755 84.4834 126.26C74.2355 120.065 53.4668 104.644 53.2546 104.479L53.8003 103.759C54.0126 103.924 74.7509 119.33 84.9533 125.495C85.5749 125.855 86.2116 125.945 86.9089 125.75C90.532 124.76 94.7009 116.81 98.3696 109.79C99.4611 107.689 100.507 105.709 101.492 103.984L101.599 103.789L101.826 103.759C106.162 103.159 111.771 104.989 114.59 107.914C115.894 109.265 116.44 110.705 116.182 112.085L116.167 112.145L116.137 112.19C116.106 112.265 112.62 119.69 107.844 127.475C101.401 137.991 95.8228 144.126 91.2446 145.716C90.4563 145.986 89.6932 146.121 88.9554 146.121Z" fill="#040D43"/>
<path d="M92.0935 139.551C92.0935 139.551 88.5462 143.226 83.1948 139.551H92.0935Z" fill="white"/>
<path d="M87.8487 141.621C86.454 141.621 84.7865 141.201 82.937 139.911L83.4524 139.176C88.3945 142.581 91.6386 139.371 91.7751 139.236L92.4269 139.866C92.3966 139.881 90.6684 141.621 87.8487 141.621Z" fill="#040D43"/>
</svg>
