<svg width="270" height="220" viewBox="0 0 270 220" fill="none" xmlns="http://www.w3.org/2000/svg">
<path d="M37.0072 130.11L23.5264 101.854H63.6913L80.4366 130.11H37.0072Z" fill="white"/>
<path fill-rule="evenodd" clip-rule="evenodd" d="M81.1368 130.513H36.7689L22.8916 101.451H63.9156L81.1368 130.513ZM37.258 129.707H79.7226L63.453 102.257H24.1604L37.258 129.707Z" fill="#040D43"/>
<path d="M92.7012 77.5637C92.7012 77.5637 78.0573 81.6637 75.3479 90.4954C72.6253 99.3137 76.4582 127.624 76.4582 127.624L80.846 128.699L92.7012 77.5637Z" fill="white"/>
<path fill-rule="evenodd" clip-rule="evenodd" d="M81.1497 129.183L76.101 127.959L76.0614 127.677C76.0481 127.61 75.0965 120.499 74.4885 112.393C73.6691 101.491 73.8277 94.0842 74.9643 90.3741C76.1142 86.6639 79.5372 83.1958 84.8635 80.3594C88.8549 78.2355 92.5687 77.187 92.5951 77.1735L93.2428 76.9988L81.1497 129.183ZM76.8279 127.301L80.5681 128.201L92.1723 78.1414C89.3307 79.0689 78.0306 83.142 75.7309 90.6026C73.2198 98.7891 76.4446 124.357 76.8279 127.301Z" fill="#040D43"/>
<path d="M129.919 87.874C129.919 87.874 139.263 98.2785 136.54 107.097C133.831 115.929 114.482 138.055 114.482 138.055L110.9 137.1L129.919 87.874Z" fill="white"/>
<path fill-rule="evenodd" clip-rule="evenodd" d="M114.615 138.512L110.372 137.382L129.787 87.1343L130.21 87.6048C130.316 87.7123 132.602 90.2798 134.598 93.99C137.268 98.9234 138.074 103.507 136.924 107.217C135.787 110.928 131.704 117.286 124.805 126.144C119.69 132.704 114.826 138.27 114.786 138.323L114.615 138.512ZM111.429 136.831L114.337 137.611C116.201 135.447 133.633 115.202 136.157 106.989C138.444 99.5551 131.809 90.8041 130.038 88.6533L111.429 136.831Z" fill="#040D43"/>
<path d="M120.985 112.85L86.3838 102.768C86.3838 102.768 91.4061 59.5774 98.6223 34.1308C105.852 8.6841 134.148 0.443848 134.148 0.443848C134.148 0.443848 154.29 20.9437 146.585 48.1244C138.88 75.2917 120.985 112.85 120.985 112.85Z" fill="white"/>
<path fill-rule="evenodd" clip-rule="evenodd" d="M121.197 113.334L85.9482 103.05L85.9879 102.714C86.0407 102.284 91.1027 59.2008 98.2396 34.023C99.9049 28.162 102.826 22.7313 106.923 17.8651C110.187 13.9936 114.218 10.4717 118.884 7.40682C126.814 2.19112 133.964 0.0806542 134.043 0.0537692L134.268 0L134.426 0.161308C134.479 0.215078 139.554 5.43077 143.612 13.913C146.004 18.9002 147.564 24.0217 148.291 29.1568C149.189 35.5554 148.74 41.9809 146.969 48.2317C139.33 75.1301 121.514 112.648 121.342 113.025L121.197 113.334ZM86.8205 102.472L120.774 112.379C122.492 108.736 138.96 73.5574 146.202 48.0166C147.947 41.8734 148.383 35.5689 147.498 29.2643C146.797 24.2234 145.251 19.1825 142.898 14.2759C139.316 6.76158 134.929 1.86851 134.03 0.914089C132.761 1.30392 126.338 3.46816 119.293 8.10583C114.694 11.1304 110.729 14.5986 107.518 18.4162C103.5 23.1749 100.632 28.4981 99.0061 34.2515C92.2128 58.1791 87.3096 98.3588 86.8205 102.472Z" fill="#040D43"/>
<path d="M135.536 31.5766C133.99 37.0208 128.412 40.1663 123.06 38.607C117.72 37.0477 114.628 31.3749 116.174 25.9307C117.72 20.4865 123.311 17.341 128.65 18.9003C134.003 20.4596 137.082 26.1324 135.536 31.5766Z" fill="#040D43"/>
<path d="M127.619 59.4699C126.073 64.9141 120.495 68.0597 115.143 66.5004C109.803 64.941 106.711 59.2683 108.257 53.8241C109.803 48.3933 115.394 45.2478 120.733 46.8071C126.086 48.3664 129.165 54.0392 127.619 59.4699Z" fill="#040D43"/>
<path d="M119.703 87.3764C118.157 92.8071 112.579 95.9527 107.227 94.3934C101.887 92.834 98.7945 87.1613 100.341 81.7305C101.887 76.2863 107.478 73.1408 112.817 74.7001C118.17 76.2594 121.249 81.9322 119.703 87.3764Z" fill="#040D43"/>
<path d="M86.8203 122.152L86.0537 121.95L89.0671 109.677L89.8336 109.879L86.8203 122.152Z" fill="#040D43"/>
<path d="M96.8383 122.179L96.085 121.937L99.2437 111.573L99.997 111.815L96.8383 122.179Z" fill="#040D43"/>
<path d="M106.249 122.179L105.509 121.923L108.139 113.938L108.892 114.194L106.249 122.179Z" fill="#040D43"/>
<path d="M85.2726 135.755C85.2726 141.939 80.3429 146.953 74.2501 146.953C68.1705 146.953 63.2275 141.939 63.2275 135.755C63.2275 129.558 68.1705 124.544 74.2501 124.544C80.3429 124.544 85.2726 129.558 85.2726 135.755Z" fill="white"/>
<path fill-rule="evenodd" clip-rule="evenodd" d="M74.2501 147.357C67.959 147.357 62.8311 142.155 62.8311 135.756C62.8311 129.344 67.959 124.142 74.2501 124.142C80.5412 124.142 85.6692 129.344 85.6692 135.756C85.6692 142.155 80.5412 147.357 74.2501 147.357ZM74.2501 124.948C68.3952 124.948 63.624 129.787 63.624 135.756C63.624 141.711 68.3952 146.55 74.2501 146.55C80.105 146.55 84.8762 141.711 84.8762 135.756C84.8762 129.787 80.105 124.948 74.2501 124.948Z" fill="#040D43"/>
<path d="M103.156 130.11C103.156 136.294 98.2125 141.321 92.1329 141.321C86.0401 141.321 81.1104 136.294 81.1104 130.11C81.1104 123.913 86.0401 118.899 92.1329 118.899C98.2125 118.899 103.156 123.913 103.156 130.11Z" fill="white"/>
<path fill-rule="evenodd" clip-rule="evenodd" d="M92.1329 141.724C85.8419 141.724 80.7139 136.509 80.7139 130.11C80.7139 123.711 85.8419 118.496 92.1329 118.496C98.424 118.496 103.552 123.711 103.552 130.11C103.552 136.509 98.424 141.724 92.1329 141.724ZM92.1329 119.302C86.278 119.302 81.5069 124.155 81.5069 130.11C81.5069 136.065 86.278 140.918 92.1329 140.918C97.9878 140.918 102.759 136.065 102.759 130.11C102.759 124.155 97.9878 119.302 92.1329 119.302Z" fill="#040D43"/>
<path d="M121.936 133.565C121.936 139.748 116.993 144.776 110.913 144.776C104.82 144.776 99.8906 139.748 99.8906 133.565C99.8906 127.368 104.82 122.354 110.913 122.354C116.993 122.354 121.936 127.368 121.936 133.565Z" fill="white"/>
<path fill-rule="evenodd" clip-rule="evenodd" d="M110.913 145.179C104.622 145.179 99.4941 139.963 99.4941 133.565C99.4941 127.166 104.622 121.95 110.913 121.95C117.204 121.95 122.332 127.166 122.332 133.565C122.332 139.963 117.204 145.179 110.913 145.179ZM110.913 122.757C105.058 122.757 100.287 127.609 100.287 133.565C100.287 139.52 105.058 144.372 110.913 144.372C116.768 144.372 121.539 139.52 121.539 133.565C121.539 127.609 116.768 122.757 110.913 122.757Z" fill="#040D43"/>
<path d="M129.138 219.597H18.3438L37.283 130.11H148.077L129.138 219.597Z" fill="white"/>
<path fill-rule="evenodd" clip-rule="evenodd" d="M129.456 220H17.8555L17.9612 219.516L36.9666 129.707H148.567L148.461 130.19L129.456 220ZM18.8335 219.193H128.808L147.589 130.513H37.601L18.8335 219.193Z" fill="#040D43"/>
<path d="M161.969 219.597H129.007L147.946 130.11H180.908L161.969 219.597Z" fill="white"/>
<path fill-rule="evenodd" clip-rule="evenodd" d="M162.286 220H128.518L128.61 219.516L147.615 129.707H181.397L181.291 130.19L162.286 220ZM129.496 219.193H161.651L180.419 130.513H148.263L129.496 219.193Z" fill="#040D43"/>
<path d="M147.668 130.11L177.484 101.854L208.16 103.037L180.63 130.11H147.668Z" fill="white"/>
<path fill-rule="evenodd" clip-rule="evenodd" d="M180.789 130.513H146.664L177.34 101.437L177.498 101.45L209.099 102.674L180.789 130.513ZM148.673 129.707H180.472L207.222 103.4L177.644 102.257L148.673 129.707Z" fill="#040D43"/>
<path d="M157.7 156.821L157.171 156.216L174.405 140.152L174.934 140.757L157.7 156.821Z" fill="#040D43"/>
<path d="M149.373 175.156L148.845 174.551L165.987 158.554L166.528 159.146L149.373 175.156Z" fill="#040D43"/>
<path d="M270 220H0V219.193H270V220Z" fill="#040D43"/>
<path fill-rule="evenodd" clip-rule="evenodd" d="M59.8175 157.398L59.0113 154.912C61.1524 154.199 63.4388 154.159 65.6063 154.804C65.6152 154.804 65.6239 154.804 65.6327 154.804L64.9058 157.318C65.7517 157.573 66.5315 157.936 67.232 158.407L68.6461 156.229C70.5229 157.493 71.9767 159.28 72.8357 161.404L70.4568 162.399C70.774 163.206 70.9854 164.066 71.0647 164.94L73.6287 164.711C73.7477 166.109 73.6156 167.521 73.2191 168.892C72.9812 169.725 72.6639 170.518 72.2542 171.258L70.0074 169.994C69.5845 170.76 69.0558 171.459 68.4347 172.051L70.2057 173.946C68.58 175.532 66.5447 176.567 64.3243 176.944L63.9014 174.363C63.0556 174.497 62.1965 174.524 61.3242 174.403L60.9806 176.998C60.4387 176.917 59.8968 176.796 59.3681 176.648C57.7293 176.164 56.2623 175.331 55.0067 174.175L56.7248 172.239C56.0772 171.647 55.5354 170.962 55.0992 170.223L52.892 171.553C51.729 169.591 51.1871 167.332 51.3193 165.047L53.8833 165.209C53.9229 164.563 54.0287 163.918 54.2137 163.273C54.2754 163.067 54.3459 162.861 54.4252 162.654L52.0066 161.74C52.7996 159.59 54.1873 157.748 56.0376 156.431L57.5178 158.568C58.2183 158.057 58.9981 157.667 59.8175 157.398ZM61.311 169.806C63.5314 170.465 65.8574 169.161 66.505 166.902C67.1527 164.657 65.8706 162.292 63.6503 161.633C61.4299 160.974 59.117 162.278 58.4694 164.536C57.8218 166.795 59.1038 169.147 61.311 169.806Z" fill="white"/>
<path fill-rule="evenodd" clip-rule="evenodd" d="M60.7039 176.621C60.2942 176.554 59.8713 176.446 59.4484 176.325C57.9681 175.895 56.6332 175.156 55.457 174.148L57.1751 172.212L56.9372 171.997C56.3293 171.432 55.8007 170.774 55.3777 170.048L55.2059 169.765L52.9988 171.11C52.0339 169.362 51.5713 167.386 51.6242 165.397L54.1882 165.544L54.2014 165.222C54.2411 164.604 54.3468 163.972 54.5187 163.367C54.5803 163.161 54.6464 162.959 54.7169 162.762L54.8358 162.453L52.4304 161.552C53.1705 159.684 54.3865 158.084 55.9592 156.888L57.4394 159.025L57.7038 158.837C58.3778 158.339 59.1312 157.963 59.911 157.708L60.2149 157.6L59.4219 155.127C61.3119 154.549 63.3208 154.522 65.2372 155.032L64.5103 157.533L64.8143 157.627C65.6205 157.869 66.3738 158.218 67.0611 158.689L67.3254 158.864L68.7396 156.686C70.352 157.842 71.6076 159.401 72.4138 161.229L70.0348 162.224L70.1538 162.533C70.4709 163.313 70.6692 164.133 70.7485 164.966L70.775 165.289L73.3257 165.061C73.405 166.324 73.2596 167.574 72.916 168.798C72.7177 169.497 72.4534 170.169 72.123 170.814L69.8762 169.55L69.7308 169.833C69.3211 170.559 68.8189 171.231 68.2109 171.822L67.9863 172.037L69.7573 173.933C68.2902 175.277 66.5192 176.178 64.5896 176.567L64.1667 173.986L63.8495 174.04C63.03 174.175 62.1974 174.188 61.378 174.08L61.0608 174.04L60.7039 176.621ZM61.6952 170.222C63.9288 170.626 66.1492 169.255 66.7968 166.996C67.1404 165.813 67.0082 164.577 66.4267 163.515C65.8451 162.439 64.8936 161.66 63.7305 161.31C62.5807 160.974 61.3648 161.108 60.3075 161.7C59.2501 162.291 58.4836 163.259 58.1532 164.442C57.8096 165.612 57.9549 166.848 58.5232 167.924C59.1048 168.999 60.0695 169.779 61.2194 170.115C61.378 170.16 61.5366 170.196 61.6952 170.222Z" fill="#040D43"/>
<path fill-rule="evenodd" clip-rule="evenodd" d="M47.249 192.08C47.2755 190.13 47.6455 188.222 48.346 186.38L48.3592 186.367L50.606 187.254C51.0554 186.071 51.6633 184.995 52.377 184.028L50.4474 182.549C51.5972 180.99 53.0114 179.659 54.637 178.61L55.9322 180.667C56.9499 180.008 58.0733 179.484 59.2364 179.121L58.5227 176.782C60.3598 176.204 62.2762 175.962 64.1925 176.083L64.0472 178.53C65.2366 178.597 66.4393 178.839 67.6156 179.242L68.3954 176.93C68.6157 177.002 68.836 177.082 69.0563 177.172C70.629 177.804 72.0828 178.664 73.378 179.753L71.8449 181.635C72.7965 182.441 73.6292 183.355 74.3296 184.364L76.2989 182.952C77.3958 184.552 78.2021 186.313 78.6911 188.208L76.365 188.827C76.6689 190.023 76.8275 191.26 76.8011 192.51L79.2065 192.537C79.1801 194.486 78.81 196.395 78.1096 198.223V198.236L75.8628 197.349C75.4134 198.532 74.8054 199.607 74.0917 200.575L76.0213 202.054C74.8715 203.613 73.4705 204.944 71.8449 205.993L70.5497 203.936C69.5188 204.608 68.4086 205.132 67.2456 205.495L67.946 207.834C66.1089 208.412 64.2058 208.641 62.2894 208.533L62.4348 206.087C61.2321 206.02 60.0294 205.778 58.8531 205.374L58.0733 207.686C57.8531 207.606 57.6328 207.525 57.4125 207.444C55.8397 206.813 54.3859 205.952 53.0907 204.877L54.6238 202.981C53.6722 202.188 52.8396 201.274 52.1391 200.266L50.1698 201.678C49.0728 200.078 48.2535 198.304 47.7777 196.408L50.1037 195.79C49.7998 194.607 49.6412 193.37 49.6544 192.12L47.249 192.08ZM60.8356 198.545C64.219 199.89 68.0518 198.196 69.3734 194.741C70.6951 191.287 69.0298 187.402 65.6331 186.057C62.2365 184.7 58.417 186.407 57.0953 189.862C55.7605 193.303 57.4389 197.201 60.8356 198.545Z" fill="white"/>
<path fill-rule="evenodd" clip-rule="evenodd" d="M63.241 208.964C62.915 208.964 62.5889 208.955 62.2629 208.937L61.8664 208.91L62.0118 206.463C61.0206 206.369 60.0558 206.181 59.1042 205.872L58.3244 208.198L57.9544 208.063C57.7253 207.991 57.4962 207.911 57.2671 207.821C55.6547 207.176 54.1745 206.289 52.8396 205.186L52.5356 204.931L54.0687 203.036C53.3154 202.364 52.6413 201.624 52.0466 200.818L50.0774 202.229L49.8526 201.906C48.716 200.266 47.8834 198.452 47.3944 196.516L47.2887 196.126L49.628 195.508C49.4033 194.527 49.2711 193.518 49.2579 192.51L46.8525 192.483V192.08C46.879 190.077 47.2622 188.114 47.9891 186.246L48.1345 185.843L50.3813 186.743C50.7646 185.802 51.2536 184.929 51.8219 184.109L49.8923 182.63L50.1302 182.307C51.3065 180.708 52.7603 179.35 54.4256 178.275L54.756 178.046L56.0512 180.116C56.897 179.605 57.7958 179.175 58.7342 178.853L58.0337 176.514L58.4038 176.393C60.2937 175.801 62.2498 175.559 64.219 175.68L64.6023 175.707L64.4701 178.154C65.4481 178.248 66.4261 178.436 67.3645 178.732L68.1443 176.419L68.5276 176.54C68.7479 176.621 68.9725 176.706 69.2016 176.796C70.814 177.441 72.3075 178.328 73.6291 179.444L73.9331 179.699L72.4 181.595C73.1534 182.254 73.8274 182.993 74.4221 183.799L76.3914 182.388L76.6161 182.724C77.7527 184.351 78.5853 186.165 79.0744 188.114L79.1801 188.504L76.8408 189.123C77.0655 190.104 77.1844 191.099 77.1976 192.107L79.6162 192.147L79.603 192.55C79.5766 194.54 79.1933 196.503 78.4796 198.371V198.385L78.3342 198.761L76.0874 197.86C75.6909 198.788 75.2151 199.675 74.6468 200.495L76.5764 201.974L76.3385 202.296C75.1622 203.896 73.7217 205.254 72.0564 206.342L71.7127 206.558L70.4175 204.487C69.5717 204.998 68.673 205.428 67.7346 205.751L68.4483 208.103L68.065 208.211C66.4923 208.708 64.8666 208.964 63.241 208.964ZM62.6991 208.144C64.3115 208.198 65.8975 208.009 67.4571 207.566L66.7434 205.227L67.1266 205.106C68.25 204.756 69.3338 204.245 70.325 203.6L70.6686 203.372L71.9507 205.442C73.2988 204.514 74.475 203.412 75.4663 202.122L73.5366 200.67L73.7745 200.347C74.4882 199.379 75.0565 198.317 75.4927 197.202L75.6381 196.825L77.8716 197.712C78.4267 196.167 78.7439 194.567 78.7968 192.94L76.4046 192.9V192.497C76.431 191.3 76.2857 190.104 75.9817 188.934L75.8759 188.545L78.202 187.926C77.7659 186.353 77.0919 184.875 76.1932 183.517L74.2371 184.915L73.9992 184.593C73.3252 183.598 72.5057 182.711 71.5938 181.958L71.2898 181.702L72.823 179.807C71.6335 178.866 70.325 178.113 68.9109 177.549C68.8228 177.513 68.7347 177.477 68.6465 177.441L67.8668 179.753L67.4834 179.632C66.36 179.229 65.197 179 64.0208 178.933L63.6243 178.906L63.7697 176.46C62.1705 176.406 60.5712 176.608 59.0249 177.051L59.7254 179.377L59.3553 179.498C58.2187 179.861 57.135 180.372 56.1437 181.017L55.8001 181.232L54.5181 179.175C53.1832 180.089 52.007 181.192 51.0025 182.482L52.9321 183.947L52.6942 184.27C51.9805 185.224 51.399 186.286 50.976 187.402L50.8307 187.778L48.5838 186.891C48.0288 188.437 47.7248 190.05 47.6587 191.69L50.0641 191.717L50.0509 192.12C50.0377 193.317 50.1831 194.527 50.4871 195.696L50.5796 196.086L48.2667 196.704C48.7028 198.264 49.3769 199.742 50.2756 201.113L52.2316 199.702L52.4696 200.038C53.1436 201.019 53.963 201.906 54.8749 202.673L55.1789 202.928L53.659 204.81C54.8353 205.751 56.1437 206.504 57.5579 207.068C57.646 207.104 57.7385 207.14 57.8354 207.176L58.602 204.864L58.9853 204.985C60.1087 205.375 61.2717 205.617 62.448 205.684L62.8445 205.711L62.6991 208.144ZM63.2278 199.42C62.3687 199.42 61.5096 199.245 60.677 198.922C58.9456 198.237 57.5711 196.892 56.831 195.145C56.0777 193.411 56.038 191.475 56.7252 189.714C58.1262 186.058 62.1836 184.256 65.7785 185.681C69.3602 187.106 71.1444 191.247 69.7435 194.889C69.0562 196.664 67.7346 198.048 66.0296 198.815C65.1309 199.218 64.1794 199.42 63.2278 199.42ZM63.241 186.004C60.7563 186.004 58.4169 187.523 57.4521 190.01C56.8574 191.569 56.8839 193.29 57.5579 194.822C58.2187 196.368 59.4346 197.551 60.9677 198.169C62.5141 198.788 64.1926 198.747 65.7125 198.075C67.2323 197.403 68.3954 196.167 69.0033 194.594C70.2457 191.368 68.673 187.698 65.4878 186.434C64.7477 186.138 63.9811 186.004 63.241 186.004Z" fill="#040D43"/>
<path fill-rule="evenodd" clip-rule="evenodd" d="M54.0028 196.409C52.9323 193.908 52.8795 191.126 53.8575 188.572C54.8355 186.031 56.7255 184.028 59.197 182.926C61.6552 181.823 64.391 181.77 66.9022 182.764C69.4001 183.773 71.3825 185.695 72.4531 188.195C73.5368 190.709 73.5897 193.491 72.6117 196.032C71.6337 198.586 69.7305 200.589 67.2723 201.691C64.8008 202.78 62.0649 202.834 59.567 201.839C57.0559 200.845 55.0866 198.922 54.0028 196.409ZM59.2498 183.06C56.818 184.136 54.9545 186.112 53.9897 188.625C53.0249 191.139 53.0777 193.881 54.135 196.355C55.2055 198.828 57.1484 200.724 59.6198 201.705C62.0781 202.686 64.7875 202.632 67.2062 201.557C69.638 200.468 71.5147 198.492 72.4795 195.978C73.4443 193.478 73.3915 190.722 72.3209 188.262C71.2636 185.789 69.3208 183.88 66.8493 182.899C64.3778 181.918 61.6816 181.971 59.2498 183.06Z" fill="#040D43"/>
<path fill-rule="evenodd" clip-rule="evenodd" d="M71.6074 156.699C71.6471 153.917 72.1757 151.188 73.1802 148.567L73.1934 148.54L76.3918 149.817C77.0394 148.123 77.8985 146.577 78.9161 145.193L76.1671 143.096C77.8192 140.864 79.8281 138.969 82.1542 137.463L83.9913 140.42C85.4716 139.466 87.0575 138.713 88.7228 138.189L87.7051 134.855C90.3352 134.022 93.0578 133.699 95.7936 133.861L95.5822 137.342C97.2871 137.45 99.0052 137.786 100.684 138.377L101.794 135.07C102.111 135.178 102.428 135.299 102.732 135.42C104.979 136.307 107.054 137.557 108.904 139.103L106.724 141.792C108.085 142.934 109.274 144.238 110.266 145.676L113.081 143.674C114.654 145.945 115.803 148.473 116.504 151.174L113.173 152.062C113.609 153.755 113.821 155.53 113.795 157.318L117.231 157.358C117.191 160.141 116.662 162.869 115.671 165.477L115.658 165.491L112.46 164.214C111.812 165.907 110.953 167.453 109.935 168.838L112.684 170.935C111.045 173.166 109.037 175.062 106.71 176.567L104.86 173.623C103.393 174.578 101.807 175.331 100.142 175.855L101.16 179.189C98.5295 180.022 95.8068 180.358 93.071 180.183L93.2825 176.702C91.5776 176.594 89.8594 176.258 88.1809 175.68L87.0707 178.987C86.7535 178.866 86.4231 178.758 86.1191 178.624C83.8723 177.737 81.7974 176.5 79.9471 174.954L82.1278 172.266C80.7665 171.123 79.5902 169.819 78.5857 168.381L75.7839 170.397C74.1979 168.112 73.048 165.585 72.3608 162.883L75.6781 161.996C75.2419 160.302 75.0173 158.541 75.0437 156.753L71.6074 156.699ZM90.9961 165.934C95.8333 167.857 101.292 165.424 103.195 160.504C105.085 155.584 102.693 150.032 97.8554 148.096C93.005 146.174 87.5465 148.607 85.6565 153.527C83.7666 158.46 86.1588 164.012 90.9961 165.934Z" fill="white"/>
<path fill-rule="evenodd" clip-rule="evenodd" d="M94.4324 180.627C93.9742 180.627 93.5116 180.613 93.0446 180.586L92.6613 180.559L92.8595 177.078C91.3529 176.957 89.8727 176.648 88.4189 176.177L87.3086 179.498L86.9386 179.363C86.6214 179.256 86.291 179.135 85.9738 179C83.6873 178.1 81.5727 176.836 79.696 175.277L79.3919 175.021L81.5727 172.306C80.4228 171.311 79.392 170.182 78.4932 168.945L75.6913 170.962L75.4534 170.625C73.8543 168.3 72.6779 165.732 71.9775 162.99L71.8718 162.6L75.2023 161.713C74.8455 160.221 74.6604 158.689 74.6472 157.143L71.2109 157.102V156.699C71.2506 153.863 71.7925 151.08 72.8101 148.432L72.9687 148.015L76.1671 149.292C76.7487 147.867 77.4888 146.523 78.3743 145.273L75.612 143.176L75.8499 142.853C77.5284 140.581 79.577 138.659 81.9428 137.127L82.2732 136.912L84.1235 139.856C85.4055 139.062 86.78 138.417 88.2206 137.933L87.2029 134.586L87.5862 134.465C90.2559 133.632 93.0314 133.282 95.8201 133.457L96.2166 133.484L96.0051 136.979C97.5118 137.1 98.992 137.396 100.433 137.866L101.556 134.559L101.926 134.694C102.243 134.801 102.561 134.922 102.878 135.043C105.164 135.957 107.279 137.207 109.169 138.78L109.473 139.036L107.292 141.751C108.429 142.746 109.46 143.875 110.358 145.112L113.173 143.109L113.398 143.431C115.01 145.757 116.174 148.324 116.887 151.08L116.98 151.47L113.649 152.344C114.006 153.849 114.191 155.382 114.204 156.914L117.64 156.968L117.627 157.371C117.588 160.194 117.059 162.963 116.041 165.625L115.883 166.015L112.684 164.738C112.103 166.163 111.363 167.507 110.49 168.757L113.239 170.854L113.002 171.177C111.336 173.448 109.288 175.371 106.922 176.903L106.592 177.132L104.741 174.174C103.446 174.981 102.072 175.626 100.644 176.11L101.662 179.457L101.278 179.578C99.0449 180.277 96.7453 180.627 94.4324 180.627ZM93.494 179.807C95.9258 179.914 98.3312 179.605 100.671 178.92L99.6529 175.586L100.023 175.465C101.662 174.954 103.208 174.215 104.649 173.287L104.979 173.072L106.829 176.002C108.865 174.645 110.636 172.964 112.129 171.015L109.38 168.918L109.618 168.596C110.636 167.211 111.468 165.692 112.09 164.066L112.235 163.689L115.433 164.966C116.279 162.641 116.755 160.221 116.834 157.761L113.398 157.707V157.304C113.424 155.57 113.226 153.849 112.79 152.155L112.684 151.766L116.015 150.892C115.354 148.513 114.336 146.281 112.975 144.224L110.173 146.241L109.935 145.905C108.957 144.48 107.794 143.203 106.473 142.114L106.169 141.859L108.349 139.157C106.605 137.759 104.675 136.629 102.587 135.796C102.411 135.724 102.23 135.653 102.045 135.581L100.935 138.888L100.552 138.753C98.9392 138.189 97.2607 137.853 95.5558 137.745L95.1593 137.732L95.3707 134.237C92.9521 134.143 90.5335 134.438 88.1941 135.124L89.2118 138.458L88.8285 138.579C87.2029 139.089 85.6433 139.829 84.216 140.756L83.8723 140.971L82.0352 138.027C79.9999 139.399 78.2157 141.079 76.7354 143.028L79.4713 145.112L79.2465 145.434C78.2157 146.819 77.383 148.338 76.7619 149.964L76.6165 150.341L73.4181 149.064C72.5723 151.403 72.0965 153.836 72.0172 156.309L75.4534 156.35L75.4402 156.753C75.427 158.487 75.6253 160.221 76.0614 161.901L76.1671 162.291L72.8365 163.178C73.4974 165.558 74.515 167.789 75.8763 169.832L78.6915 167.816L78.9161 168.152C79.8942 169.577 81.0705 170.854 82.3789 171.943L82.6828 172.198L80.5153 174.9C82.2467 176.298 84.1763 177.427 86.2645 178.247C86.4496 178.328 86.6346 178.4 86.8196 178.462L87.9298 175.169L88.2999 175.29C89.9255 175.855 91.604 176.191 93.2957 176.298L93.6922 176.325L93.494 179.807ZM94.4324 166.996C93.2297 166.996 92.0137 166.767 90.8507 166.31C85.8152 164.308 83.3305 158.514 85.2997 153.392C87.269 148.257 92.9653 145.73 98.0008 147.733C100.446 148.701 102.362 150.583 103.42 153.016C104.464 155.462 104.517 158.178 103.565 160.651C102.613 163.138 100.763 165.087 98.3576 166.163C97.1021 166.727 95.7672 166.996 94.4324 166.996ZM91.1414 165.558C93.3882 166.458 95.8333 166.405 98.0404 165.423C100.248 164.442 101.953 162.641 102.825 160.355C103.697 158.084 103.657 155.583 102.693 153.338C101.728 151.107 99.9568 149.373 97.71 148.486C93.0843 146.644 87.8505 148.97 86.0399 153.674C84.2292 158.393 86.5156 163.716 91.1414 165.558Z" fill="#040D43"/>
<path fill-rule="evenodd" clip-rule="evenodd" d="M81.2556 162.883C79.7225 159.307 79.6432 155.328 81.0441 151.698C82.4318 148.056 85.1412 145.192 88.6568 143.633C92.1724 142.06 96.0845 141.98 99.6662 143.404C103.235 144.829 106.05 147.585 107.596 151.161C109.129 154.736 109.208 158.715 107.808 162.345C106.407 165.988 103.71 168.851 100.182 170.41C96.6661 171.983 92.7672 172.064 89.1855 170.639C85.617 169.214 82.8019 166.458 81.2556 162.883ZM88.7361 143.821C85.2734 145.367 82.6036 148.19 81.2291 151.766C79.8414 155.355 79.9207 159.28 81.4406 162.802C82.9605 166.324 85.736 169.039 89.2648 170.451C92.7804 171.849 96.6396 171.768 100.102 170.222C103.578 168.69 106.248 165.853 107.623 162.278C108.997 158.689 108.931 154.777 107.411 151.241C105.891 147.72 103.116 145.004 99.5869 143.606C96.0581 142.195 92.2121 142.275 88.7361 143.821Z" fill="#040D43"/>
<path d="M170.546 38.0422C169.145 33.7809 165.683 32.477 165.683 32.477C165.683 32.477 164.625 29.3718 163.555 29.56C162.603 29.7078 162.207 30.2052 162.735 32.4905C162.088 30.259 161.414 30.1515 160.436 30.5278C158.969 31.0924 160.198 34.4396 160.198 34.4396C160.198 34.4396 159.762 32.4367 158.413 33.0685C157.29 33.5927 158.242 35.0042 158.546 35.7435C157.687 35.1924 156.999 34.8294 156.537 35.9048C155.968 37.2222 157.62 38.6874 159.405 40.0586C161.81 47.4654 164.929 57.5876 170.718 56.445C173.097 55.9745 171.551 41.134 170.546 38.0422Z" fill="white"/>
<path fill-rule="evenodd" clip-rule="evenodd" d="M169.806 56.9423C167.519 56.9423 165.471 55.2754 163.581 51.9014C161.783 48.6886 160.409 44.4677 159.206 40.7441L159.061 40.3005C157.29 38.9293 155.492 37.3297 156.179 35.73C156.391 35.2461 156.655 34.9638 157.012 34.8563C157.25 34.7756 157.475 34.7891 157.712 34.8563C157.514 34.3858 157.395 33.8884 157.554 33.4314C157.673 33.1087 157.897 32.8668 158.241 32.7055C158.704 32.4904 159.087 32.5307 159.351 32.6248C159.232 31.6032 159.351 30.5143 160.29 30.1514C160.739 29.9766 161.254 29.8422 161.77 30.0976C161.902 30.1693 162.025 30.2634 162.14 30.3799C162.18 30.1379 162.259 29.9498 162.365 29.7884C162.655 29.3448 163.144 29.2104 163.488 29.1566C164.704 28.955 165.656 31.2268 165.999 32.1812C166.753 32.5173 169.647 34.0363 170.916 37.9212C171.775 40.5424 173.281 53.2859 171.629 56.1626C171.405 56.5525 171.127 56.781 170.797 56.8348C170.462 56.9065 170.132 56.9423 169.806 56.9423ZM157.329 35.609C157.303 35.609 157.276 35.6135 157.25 35.6225C157.104 35.6628 156.972 35.8913 156.906 36.0661C156.457 37.0877 157.95 38.432 159.642 39.7359L159.735 39.8166L159.959 40.4887C161.149 44.1719 162.51 48.3525 164.268 51.4981C166.237 55.02 168.325 56.5121 170.638 56.0551C170.757 56.0282 170.876 55.8803 170.942 55.7594C172.356 53.2994 171.074 40.9592 170.162 38.1766C168.854 34.1573 165.576 32.8802 165.55 32.8668L165.378 32.7996L165.312 32.6114C164.863 31.294 164.03 29.8825 163.607 29.9498C163.211 30.017 163.092 30.1379 163.026 30.232C162.827 30.5412 162.854 31.2671 163.131 32.3963L162.365 32.5979C162.061 31.5897 161.743 30.9848 161.413 30.8235C161.228 30.7294 160.977 30.7563 160.567 30.9042C159.867 31.173 160.105 32.7458 160.409 33.7943C160.514 34.0766 160.567 34.2917 160.58 34.3455L159.814 34.574C159.801 34.5068 159.735 34.332 159.655 34.09C159.55 33.8212 159.364 33.5255 159.14 33.4045C159.034 33.3507 158.862 33.2969 158.572 33.4448C158.386 33.5255 158.334 33.633 158.307 33.7002C158.175 34.0497 158.492 34.6815 158.717 35.152C158.783 35.3133 158.862 35.4477 158.915 35.5822L159.404 36.7651L158.334 36.0795C158.043 35.8913 157.607 35.609 157.329 35.609Z" fill="#040D43"/>
<path d="M178.952 15.3109L154.831 48.1375L152.941 46.6991L177.062 13.8726L178.952 15.3109Z" fill="white"/>
<path fill-rule="evenodd" clip-rule="evenodd" d="M154.91 48.7022L152.386 46.7799L176.982 13.3081L179.506 15.2304L154.91 48.7022ZM153.496 46.6186L154.751 47.573L178.383 15.3917L177.14 14.4373L153.496 46.6186Z" fill="#040D43"/>
<path d="M171.153 42.0346C171.153 42.0346 174.021 38.1094 168.814 30.017C165.404 24.7206 163.514 25.8767 166.17 30.5278C166.977 31.9258 166.593 33.8346 166.263 34.4799C165.325 36.3484 165.351 39.8972 166.752 41.1474C168.14 42.411 171.153 42.0346 171.153 42.0346Z" fill="white"/>
<path fill-rule="evenodd" clip-rule="evenodd" d="M170.162 42.4918C169.092 42.4918 167.466 42.3304 166.488 41.4567C164.955 40.0855 164.902 36.3082 165.92 34.3053C166.224 33.6869 166.528 31.9528 165.827 30.7296C164.479 28.3637 164.149 26.7237 164.929 26.2263C165.338 25.9709 166.567 25.8096 169.145 29.7886C174.444 38.0288 171.59 42.1154 171.471 42.2767L171.365 42.4245L171.193 42.438C171.154 42.4514 170.744 42.4918 170.162 42.4918ZM165.378 26.9119C165.36 26.9119 165.351 26.9164 165.351 26.9253C165.232 27.0598 165.259 28.1352 166.515 30.3129C167.374 31.8453 167.017 33.902 166.62 34.6682C165.748 36.3754 165.788 39.7495 167.017 40.8518C168.074 41.8062 170.268 41.7121 170.916 41.6583C171.101 41.3223 171.51 40.4351 171.537 38.9698C171.576 37.2223 171.087 34.2784 168.484 30.2322C166.673 27.4362 165.616 26.9119 165.378 26.9119Z" fill="#040D43"/>
<path d="M207.697 79.4045C207.697 79.4045 184.475 83.1684 176.176 80.8025C173.559 80.0632 170.017 78.0468 168.431 73.4091C164.677 62.4804 159.324 45.6907 159.324 45.6907C158.637 41.994 166.488 38.4452 171.801 39.198C174.656 46.2553 177.167 56.5388 180.616 64.6581C181.422 66.5669 196.489 60.1817 203.005 56.5388" fill="white"/>
<path d="M184.159 81.9859C180.643 81.9859 177.934 81.7305 176.07 81.1928C173.837 80.561 169.832 78.7194 168.061 73.5441C164.347 62.7363 158.995 45.9735 158.942 45.8122L158.929 45.7584C158.73 44.6964 159.14 43.5807 160.118 42.5457C162.537 39.9647 167.916 38.2441 171.854 38.8086L172.079 38.8355L172.171 39.0506C173.48 42.2768 174.696 46.1348 175.991 50.2213C177.524 55.0741 179.11 60.1016 180.987 64.4973C180.987 64.4973 181.74 65.3441 189.749 62.212C194.269 60.4511 199.516 58.0314 202.807 56.1763L203.191 56.8888C200.085 58.6229 195.076 60.9619 190.727 62.696C187.503 63.9864 183.485 65.3979 181.529 65.3979C181.251 65.3979 181 65.371 180.815 65.3038C180.471 65.1828 180.326 64.9812 180.26 64.8199C178.37 60.3839 176.771 55.3429 175.238 50.4633C173.969 46.4843 172.779 42.7338 171.524 39.5749C167.876 39.1581 162.88 40.7712 160.686 43.0968C159.893 43.9437 159.563 44.7771 159.708 45.5837C159.946 46.3364 165.167 62.6691 168.801 73.2752C170.467 78.1011 174.194 79.8217 176.282 80.4132C184.41 82.7253 207.407 79.042 207.631 79.0017L207.764 79.7948C207.697 79.8083 201.869 80.7492 195.089 81.3945C190.846 81.7977 187.199 81.9859 184.159 81.9859Z" fill="#040D43"/>
<path d="M159.299 1.08887C165.577 7.51438 171.855 5.91473 178.132 15.1632C175.317 16.9779 172.502 21.8979 169.7 26.764C163.422 20.3251 157.145 21.9247 150.854 12.6763C153.669 10.8616 156.484 5.95505 159.299 1.08887Z" fill="white"/>
<path fill-rule="evenodd" clip-rule="evenodd" d="M169.779 27.4093L169.409 27.0463C166.792 24.3578 164.228 23.1211 161.519 21.8172C157.924 20.0966 154.197 18.3087 150.536 12.9048L150.298 12.5553L150.641 12.3402C153.324 10.6062 156.113 5.79374 158.809 1.12919L159.219 0.430176L159.576 0.806568C162.193 3.48163 164.757 4.71833 167.479 6.02226C171.074 7.7429 174.788 9.53075 178.449 14.9346L178.687 15.2841L178.343 15.4992C175.66 17.2333 172.872 22.0592 170.175 26.7237L169.779 27.4093ZM151.421 12.7704C154.884 17.7441 158.267 19.3707 161.849 21.0913C164.387 22.3011 167.017 23.5647 169.607 26.1054C172.211 21.6156 174.881 17.0182 177.577 15.0556C174.114 10.0953 170.717 8.4688 167.136 6.74816C164.598 5.52489 161.981 4.26129 159.378 1.72066C156.787 6.22389 154.104 10.8078 151.421 12.7704Z" fill="#040D43"/>
<path d="M168.749 19.0747C169.991 19.8678 171.247 20.8491 172.502 21.9917C171.564 23.5242 170.625 25.1776 169.7 26.7638C168.445 25.5809 167.189 24.5727 165.934 23.7527C166.872 22.2606 167.81 20.6609 168.749 19.0747Z" fill="#040D43"/>
<path d="M161.268 15.5264C162.524 16.1044 163.779 16.5883 165.022 17.126C164.097 18.7257 163.158 20.285 162.22 21.683C160.964 21.0781 159.709 20.527 158.453 19.828C159.391 18.5375 160.33 17.0857 161.268 15.5264Z" fill="#040D43"/>
<path d="M153.734 10.0151C154.976 11.3594 156.232 12.4886 157.488 13.3758C156.549 14.8007 155.611 16.0643 154.686 17.1262C153.43 15.997 152.175 14.5453 150.919 12.7574C151.853 12.0942 152.791 11.1802 153.734 10.0151Z" fill="#040D43"/>
<path d="M174.366 10.7676C175.621 11.9102 176.877 13.3754 178.133 15.1633C177.19 15.8175 176.251 16.7271 175.317 17.8921C174.062 16.5479 172.806 15.4052 171.551 14.5046C172.489 13.0931 173.427 11.8295 174.366 10.7676Z" fill="#040D43"/>
<path d="M167.849 12.3672C169.092 12.9452 170.347 13.6308 171.603 14.5449C170.664 15.9563 169.726 17.5157 168.801 19.1019C167.545 18.2953 166.29 17.677 165.034 17.1393C165.973 15.5396 166.911 13.9131 167.849 12.3672Z" fill="#040D43"/>
<path d="M160.316 8.81836C161.572 9.61147 162.827 10.2164 164.07 10.7541C163.144 12.3537 162.206 13.9803 161.268 15.5262C160.012 14.9616 158.757 14.2895 157.501 13.3888C158.439 11.9639 159.378 10.4046 160.316 8.81836Z" fill="#040D43"/>
<path d="M166.885 6.21045C168.141 6.81536 169.397 7.37994 170.652 8.07895C169.714 9.36943 168.775 10.8212 167.837 12.3671C166.581 11.7891 165.326 11.3052 164.07 10.754C165.009 9.1678 165.947 7.60847 166.885 6.21045Z" fill="#040D43"/>
<path d="M159.351 1.14258C160.607 2.31208 161.862 3.30682 163.118 4.12682C162.18 5.61893 161.241 7.21859 160.303 8.8048C159.047 8.02514 157.792 7.04383 156.536 5.90122C157.475 4.36877 158.413 2.71535 159.351 1.14258Z" fill="#040D43"/>
<path d="M156.615 37.3837C157.052 38.1903 158.109 40.1125 159.074 39.9916C160.025 39.8571 159.272 37.0611 159.272 37.0611C159.272 37.0611 160.475 39.4942 161.175 38.7683C161.876 38.029 160.924 35.8378 160.924 35.8378C160.924 35.8378 161.981 37.3299 162.933 37.1014C163.885 36.8729 162.84 33.2165 162.84 33.2165C162.84 33.2165 164.611 37.0208 165.153 35.1926C165.682 33.351 164.849 28.9687 163.224 29.5467C161.611 30.1248 162.431 31.4421 162.431 31.4421C162.431 31.4421 161.572 29.8156 160.435 30.528C159.285 31.2405 159.748 33.1897 159.748 33.1897C159.748 33.1897 159.1 32.2621 158.175 32.8402C157.263 33.4047 158.254 35.327 158.254 35.327C158.254 35.327 157.408 34.9641 156.827 35.2464C156.259 35.5287 156.166 36.5772 156.615 37.3837Z" fill="white"/>
<path fill-rule="evenodd" clip-rule="evenodd" d="M158.982 40.3949C157.951 40.3949 157.039 38.9835 156.272 37.5854C155.942 36.9805 155.849 36.2546 156.021 35.6901C156.14 35.3137 156.365 35.0314 156.656 34.8835C156.96 34.7356 157.29 34.7222 157.581 34.7491C157.343 34.0232 157.197 32.9747 157.977 32.4907C158.453 32.195 158.902 32.195 159.259 32.3294C159.259 31.617 159.431 30.6894 160.224 30.1921C160.594 29.9501 160.991 29.8963 161.387 30.0039C161.572 30.0442 161.744 30.1383 161.903 30.2458C161.903 30.2369 161.903 30.2324 161.903 30.2324C162.074 29.7485 162.471 29.3855 163.105 29.1704C163.568 28.9957 164.044 29.1167 164.44 29.5065C165.537 30.5685 166 33.7274 165.524 35.3002C165.352 35.9186 165.022 36.0664 164.771 36.0933C164.414 36.1202 164.044 35.8379 163.7 35.4212C163.779 36.2143 163.726 36.7655 163.541 37.1015C163.422 37.3032 163.237 37.4376 163.026 37.4913C162.577 37.5989 162.14 37.4376 161.757 37.1956C161.876 37.8812 161.876 38.6071 161.453 39.0507C161.268 39.2523 161.017 39.333 160.753 39.2926C160.475 39.2523 160.198 39.0507 159.946 38.7953C159.96 39.5749 159.775 39.9244 159.722 40.0051C159.576 40.2202 159.365 40.3546 159.127 40.3815C159.074 40.3904 159.026 40.3949 158.982 40.3949ZM157.356 35.5422C157.224 35.5422 157.105 35.5556 156.999 35.6094C156.88 35.6766 156.814 35.811 156.775 35.932C156.669 36.295 156.735 36.7789 156.96 37.1822C157.581 38.3248 158.44 39.6556 159.021 39.5884C159.035 39.5884 159.035 39.5884 159.061 39.5615C159.272 39.2389 159.14 38.0694 158.889 37.1687C158.836 36.9671 158.942 36.752 159.14 36.6848C159.325 36.6041 159.537 36.6982 159.629 36.873C160.065 37.7736 160.66 38.4861 160.872 38.4995C160.872 38.4995 160.876 38.4951 160.885 38.4861C161.242 38.1231 160.898 36.7789 160.568 35.9992C160.488 35.811 160.554 35.5825 160.726 35.4884C160.911 35.3809 161.136 35.4346 161.255 35.596C161.546 36.0127 162.312 36.8192 162.841 36.7117C163.079 36.4697 162.907 34.8701 162.471 33.3376C162.405 33.136 162.51 32.9209 162.709 32.8402C162.894 32.773 163.118 32.8537 163.211 33.0553C163.7 34.1173 164.387 35.1389 164.691 35.2733C164.704 35.2464 164.731 35.1792 164.771 35.0717C165.154 33.7678 164.757 30.918 163.885 30.0845C163.66 29.856 163.489 29.8829 163.356 29.9232C162.969 30.0666 162.735 30.2548 162.656 30.4878C162.55 30.7701 162.696 31.0927 162.748 31.2003C162.766 31.2271 162.775 31.2451 162.775 31.254C162.881 31.4422 162.815 31.6842 162.629 31.7917C162.444 31.8993 162.207 31.8455 162.101 31.6573C162.092 31.6483 162.074 31.6259 162.048 31.5901C161.916 31.3616 161.572 30.8776 161.176 30.7701C160.991 30.7298 160.819 30.7567 160.634 30.8776C159.761 31.4288 160.131 33.0822 160.131 33.0957C160.184 33.2838 160.092 33.4855 159.92 33.5661C159.748 33.6468 159.537 33.5796 159.431 33.4317C159.352 33.3242 158.955 32.8268 158.387 33.1763C157.938 33.4586 158.347 34.6415 158.598 35.1389C158.678 35.2868 158.651 35.475 158.546 35.6094C158.427 35.7304 158.255 35.7707 158.096 35.7035C157.977 35.6497 157.647 35.5422 157.356 35.5422Z" fill="#040D43"/>
<path d="M159.497 200.186C159.497 200.186 138.258 211.195 137.333 213.548C136.394 215.887 136.725 216.814 137.756 216.787L175.793 215.712C176.401 215.698 176.877 215.134 176.797 214.516L174.432 195.454C174.339 194.782 173.652 194.379 173.031 194.634L159.682 200.092C159.62 200.119 159.559 200.15 159.497 200.186Z" fill="#040D43"/>
<path d="M136.805 215.537L136.633 219.395L176.917 219.086L176.798 214.516L136.805 215.537Z" fill="white"/>
<path fill-rule="evenodd" clip-rule="evenodd" d="M136.223 219.798L136.421 215.147L177.194 214.099L177.326 219.476L136.223 219.798ZM137.187 215.94L137.055 218.992L176.52 218.683L176.414 214.932L137.187 215.94Z" fill="#040D43"/>
<path d="M142.937 217.244L142.831 216.034C151.224 215.322 156.484 211.975 159.405 209.3C162.563 206.423 163.753 203.708 163.766 203.681L164.85 204.165C164.81 204.286 163.555 207.149 160.211 210.2C157.145 213.01 151.647 216.505 142.937 217.244Z" fill="white"/>
<path d="M143.215 219.395V215.362H144.008V219.395H143.215Z" fill="#040D43"/>
<path d="M151.897 215.161L151.911 219.395L151.897 215.161Z" fill="white"/>
<path d="M151.514 219.395L151.501 215.161H152.294L152.307 219.395H151.514Z" fill="#040D43"/>
<path d="M160.185 214.905L160.198 219.193L160.185 214.905Z" fill="white"/>
<path d="M159.801 219.193L159.788 214.905H160.581L160.594 219.193H159.801Z" fill="#040D43"/>
<path d="M168.472 214.73L168.485 219.14L168.472 214.73Z" fill="white"/>
<path d="M168.088 219.14L168.075 214.73H168.868L168.881 219.14H168.088Z" fill="#040D43"/>
<path d="M176.996 212.889L205.557 105.766C208.702 95.3478 194.468 103.938 183.987 101.935L150.576 204.407C154.872 208.224 171.802 214.919 176.996 212.889Z" fill="white"/>
<path fill-rule="evenodd" clip-rule="evenodd" d="M174.498 213.669C170.784 213.669 165.696 212.056 163.317 211.222C157.713 209.26 152.492 206.638 150.312 204.716L150.113 204.541L183.723 101.478L184.066 101.531C188.005 102.298 192.485 101.518 196.437 100.846C200.812 100.08 204.275 99.4881 205.728 101.168C206.535 102.109 206.601 103.655 205.927 105.873L177.326 213.185L177.141 213.265C176.414 213.548 175.502 213.669 174.498 213.669ZM151.038 204.272C153.232 206.101 158.308 208.614 163.581 210.456C169.528 212.54 174.392 213.319 176.665 212.58L205.173 105.658C205.755 103.709 205.742 102.419 205.134 101.706C203.971 100.362 200.534 100.953 196.569 101.639C192.67 102.311 188.256 103.064 184.251 102.392L151.038 204.272Z" fill="#040D43"/>
<path d="M173.428 159.845C178.648 137.046 196.173 79.499 205.2 74.4984C212.496 70.4522 193.411 163.367 185.494 180.976C183.618 185.17 170.758 171.513 173.428 159.845Z" fill="#C4C8E0"/>
<path d="M224.074 184.432C224.074 184.432 228.145 207.512 229.982 209.072C231.819 210.631 232.731 210.604 232.995 209.623L242.326 173.772C242.471 173.18 242.101 172.575 241.533 172.468L223.889 169.094C223.268 168.973 222.713 169.497 222.779 170.169L224.034 184.243C224.043 184.306 224.056 184.369 224.074 184.432Z" fill="#040D43"/>
<path d="M231.62 210.146L235.017 211.437L245.63 173.69L241.532 172.467L231.62 210.146Z" fill="white"/>
<path fill-rule="evenodd" clip-rule="evenodd" d="M235.281 211.961L231.145 210.402L231.237 210.039L241.255 171.97L246.119 173.422L235.281 211.961ZM232.096 209.891L234.753 210.899L245.141 173.959L241.81 172.964L232.096 209.891Z" fill="#040D43"/>
<path d="M224.074 185.036C223.809 185.036 223.571 184.874 223.505 184.606C223.479 184.507 223.461 184.404 223.452 184.296C223.413 183.96 223.664 183.665 223.981 183.638C224.311 183.611 224.602 183.853 224.629 184.189C224.629 184.216 224.633 184.243 224.642 184.27C224.734 184.592 224.549 184.928 224.232 185.022C224.179 185.031 224.126 185.036 224.074 185.036Z" fill="white"/>
<path d="M231.62 210.752C231.541 210.752 231.466 210.738 231.395 210.711C231.369 210.698 230.669 210.402 229.611 209.555C228.99 209.044 227.986 207.095 225.739 196.314C224.51 190.4 223.505 184.606 223.492 184.539C223.426 184.216 223.651 183.894 223.968 183.84C224.298 183.786 224.602 184.001 224.655 184.337C227.153 198.627 229.506 207.902 230.351 208.601C231.263 209.327 231.845 209.596 231.858 209.596C232.149 209.717 232.294 210.08 232.175 210.389C232.07 210.617 231.858 210.752 231.62 210.752Z" fill="white"/>
<path d="M232.611 204.783L236.404 205.926L232.611 204.783Z" fill="white"/>
<path d="M236.299 206.315L232.506 205.159L232.731 204.393L236.524 205.536L236.299 206.315Z" fill="#040D43"/>
<path d="M234.793 196.65L238.784 197.847L234.793 196.65Z" fill="white"/>
<path d="M238.665 198.236L234.687 197.026L234.911 196.26L238.903 197.47L238.665 198.236Z" fill="#040D43"/>
<path d="M236.933 188.491L240.977 189.714L236.933 188.491Z" fill="white"/>
<path d="M240.859 190.104L236.814 188.88L237.039 188.114L241.097 189.338L240.859 190.104Z" fill="#040D43"/>
<path d="M239.142 180.372L243.305 181.635L239.142 180.372Z" fill="white"/>
<path d="M243.185 182.011L239.035 180.761L239.26 179.981L243.423 181.245L243.185 182.011Z" fill="#040D43"/>
<path d="M234.766 199.836C234.436 199.836 234.171 199.567 234.171 199.231C234.211 195.064 233.114 191.744 230.986 189.633C229.387 188.034 227.748 187.671 227.722 187.657C227.405 187.59 227.206 187.267 227.272 186.945C227.339 186.622 227.643 186.407 227.973 186.474C228.052 186.501 229.916 186.904 231.766 188.706C233.431 190.346 235.427 193.505 235.361 199.245C235.361 199.567 235.097 199.836 234.766 199.836Z" fill="white"/>
<path d="M237.052 170.787C237.052 170.787 204.923 159.482 207.024 151.094C209.126 142.692 219.62 102.983 219.62 102.983C217.254 92.3632 208.663 94.5812 197.046 92.6455C197.046 92.6455 181.398 141.146 178.292 158.164C175.503 173.381 223.069 195.951 223.069 195.951C228.66 197.107 237.224 178.731 237.052 170.787Z" fill="white"/>
<path fill-rule="evenodd" clip-rule="evenodd" d="M223.571 196.408C223.377 196.408 223.183 196.391 222.99 196.355L222.937 196.341L222.897 196.328C222.778 196.261 210.844 190.574 199.425 183.1C192.697 178.705 187.45 174.551 183.829 170.774C179.23 165.961 177.234 161.7 177.895 158.084C180.974 141.24 196.517 93.0087 196.675 92.5248L196.781 92.2021L197.112 92.2559C199.702 92.6861 202.081 92.9012 204.394 93.1162C208.332 93.4658 211.742 93.7884 214.412 95.0654C217.346 96.4769 219.13 98.9637 220.003 102.902L220.016 102.996L220.003 103.091C219.897 103.494 209.482 142.894 207.407 151.188C206.601 154.414 211.438 158.743 221.417 163.716C229.069 167.534 237.105 170.37 237.184 170.397L237.435 170.491L237.448 170.774C237.514 173.892 236.285 178.691 234.144 183.638C231.95 188.733 229.294 192.846 226.875 194.903C225.699 195.911 224.589 196.408 223.571 196.408ZM223.188 195.575C224.1 195.736 225.17 195.306 226.36 194.285C228.659 192.335 231.303 188.235 233.417 183.302C235.439 178.624 236.642 174.08 236.655 171.069C235.202 170.545 227.985 167.897 221.073 164.442C210.566 159.213 205.716 154.683 206.641 150.986C208.663 142.894 218.628 105.174 219.21 102.983C217.412 95.1057 212.205 94.6353 204.315 93.9094C202.2 93.7212 199.808 93.5061 197.323 93.1028C195.935 97.391 181.609 142.168 178.675 158.232C177.578 164.281 184.886 172.656 199.847 182.428C210.883 189.647 222.382 195.185 223.188 195.575Z" fill="#040D43"/>
<path d="M185.19 155.234C185.19 155.234 184.436 160.154 188.362 164.455L185.19 155.234Z" fill="white"/>
<path d="M188.071 164.738C184.053 160.342 184.767 155.382 184.794 155.18L185.573 155.301C185.573 155.355 184.913 160.087 188.653 164.187L188.071 164.738Z" fill="#040D43"/>
<path d="M215.614 120.754C215.614 120.754 224.416 84.9565 226.954 69.0675C229.505 53.1919 215.561 51.982 208.451 54.3076C205.08 55.4099 198.076 57.6144 195.499 65.2632C185.124 96.0331 178.053 117.864 178.053 117.864C189.815 125.553 204.314 129.465 215.614 120.754Z" fill="white"/>
<path fill-rule="evenodd" clip-rule="evenodd" d="M200.852 126.118C199.583 126.118 198.283 126.033 196.953 125.862C190.9 125.069 184.292 122.421 177.842 118.2L177.591 118.039L177.683 117.743C177.749 117.514 184.873 95.5494 195.129 65.129C197.746 57.3861 204.817 55.074 208.213 53.9583L208.332 53.918C212.919 52.4124 219.765 52.4662 223.928 56.1091C227.14 58.9186 228.289 63.3008 227.351 69.1349C224.827 84.8492 216.091 120.485 215.998 120.848L215.972 120.983L215.853 121.077C211.504 124.424 206.469 126.118 200.852 126.118ZM178.529 117.689C184.794 121.749 191.191 124.289 197.059 125.056C203.997 125.97 210.117 124.437 215.271 120.512C215.866 118.052 224.126 84.1905 226.571 69.0139C227.457 63.4622 226.399 59.3353 223.412 56.714C220.65 54.3078 214.835 52.6409 208.57 54.6842L208.451 54.7245C205.174 55.7999 198.367 58.0314 195.882 65.3844C186.274 93.8825 179.415 114.974 178.529 117.689Z" fill="#040D43"/>
<path d="M216.434 54.0256L213.063 46.7129L207.142 47.963L208.451 54.3079L206.006 59.4967C206.006 59.4967 215.72 55.3967 216.434 54.0256Z" fill="white"/>
<path fill-rule="evenodd" clip-rule="evenodd" d="M205.2 60.2764L208.029 54.2541L206.667 47.6404L213.289 46.2559L216.87 54.0391L216.778 54.2138C216.038 55.6387 207.804 59.1741 206.152 59.8731L205.2 60.2764ZM207.619 48.2722L208.874 54.3617L206.813 58.7171C210.5 57.1174 215.126 54.8859 215.972 53.9853L212.839 47.1699L207.619 48.2722Z" fill="#040D43"/>
<path d="M204.87 38.1097C206.271 35.7975 207.17 38.6877 210.21 38.1365C212.549 37.7064 214.571 38.7415 215.179 42.1021C215.814 45.5971 211.148 50.06 210.17 49.0518C209.192 48.0437 209.205 46.4306 210.197 45.4358C210.686 44.9384 208.029 45.1132 207.051 44.105C206.073 43.1103 203.218 40.8654 204.87 38.1097Z" fill="#040D43"/>
<path d="M209.363 41.1612C210.804 41.094 212.086 42.1694 212.707 43.7825C213.262 43.8094 213.711 44.4412 213.751 45.2343C213.778 45.9198 213.487 46.5113 213.064 46.7129C212.8 48.8234 210.09 51.6732 208.398 51.7539C206.442 51.8345 206.125 48.5949 206.006 46.0005C205.901 43.4061 207.394 41.2418 209.363 41.1612Z" fill="white"/>
<path fill-rule="evenodd" clip-rule="evenodd" d="M208.32 52.1572C205.875 52.1572 205.703 48.0169 205.61 46.014C205.491 43.2179 207.17 40.8521 209.338 40.758C210.844 40.6908 212.258 41.7258 212.998 43.4196C213.633 43.6078 214.109 44.3337 214.148 45.2209C214.175 45.9602 213.897 46.6189 213.435 46.955C213.012 49.2133 210.289 52.0631 208.412 52.1572C208.377 52.1572 208.346 52.1572 208.32 52.1572ZM209.377 41.5645C207.633 41.6317 206.311 43.6212 206.403 45.9871C206.509 48.4874 206.826 51.3507 208.333 51.3507C208.351 51.3507 208.368 51.3507 208.386 51.3507C209.8 51.2834 212.43 48.6622 212.668 46.6592L212.695 46.4441L212.893 46.35C213.144 46.2291 213.382 45.8124 213.355 45.2612C213.329 44.6294 212.985 44.1992 212.695 44.1858L212.443 44.1724L212.351 43.9304C211.769 42.4383 210.593 41.5107 209.377 41.5645Z" fill="#040D43"/>
<path d="M213.316 43.8224C213.316 43.8224 209.139 45.5028 206.271 40.8651C206.271 40.8651 211.254 38.432 212.232 40.4349C213.223 42.4513 213.316 43.8224 213.316 43.8224Z" fill="#040D43"/>
<path d="M209.231 48.9307C209.231 48.9307 207.83 49.2802 207.341 48.9307C207.341 48.9307 207.209 49.791 208.134 49.8313C209.046 49.8716 209.231 48.9307 209.231 48.9307Z" fill="white"/>
<path d="M215.231 51.0952L218.205 54.308L207.671 65.0351L206.006 59.4968C210.513 57.4804 214.042 54.9263 215.231 51.0952Z" fill="white"/>
<path fill-rule="evenodd" clip-rule="evenodd" d="M207.474 65.7877L205.518 59.2681L205.848 59.1203C210.976 56.835 213.844 54.2541 214.862 50.9741L215.06 50.3154L218.76 54.3213L207.474 65.7877ZM206.482 59.7117L207.844 64.2687L217.65 54.2944L215.377 51.8479C214.161 54.9934 211.306 57.5072 206.482 59.7117Z" fill="#040D43"/>
<path d="M208.45 54.3072L208.12 52.6807L202.529 64.053L206.005 59.496L208.45 54.3072Z" fill="white"/>
<path fill-rule="evenodd" clip-rule="evenodd" d="M202.847 64.2953L202.173 63.8652L208.266 51.4712L208.86 54.3613L206.336 59.7115L202.847 64.2953ZM207.975 53.9043L204.697 60.5583L205.675 59.2813L208.041 54.2538L207.975 53.9043Z" fill="#040D43"/>
<path d="M206.772 62.0508L204.367 70.9632L202.266 70.6002" fill="white"/>
<path d="M204.658 71.4203L202.2 71.0036L202.332 70.2105L204.077 70.5062L206.39 61.9434L207.156 62.1584L204.658 71.4203Z" fill="#040D43"/>
<path d="M204.604 63.5967C204.604 63.8521 204.803 64.0537 205.041 64.0537C205.292 64.0537 205.49 63.8521 205.49 63.5967C205.49 63.3413 205.292 63.1396 205.041 63.1396C204.803 63.1396 204.604 63.3413 204.604 63.5967Z" fill="white"/>
<path fill-rule="evenodd" clip-rule="evenodd" d="M205.042 64.457C204.579 64.457 204.209 64.0671 204.209 63.5966C204.209 63.1262 204.579 62.7363 205.042 62.7363C205.504 62.7363 205.888 63.1262 205.888 63.5966C205.888 64.0671 205.504 64.457 205.042 64.457ZM205.042 63.5429C205.015 63.5429 205.002 63.5698 205.002 63.5966C205.002 63.6235 205.015 63.6504 205.042 63.6504C205.068 63.6504 205.095 63.6235 205.095 63.5966C205.095 63.5698 205.068 63.5429 205.042 63.5429Z" fill="#040D43"/>
<path d="M203.839 65.9353C203.839 66.1907 204.037 66.3923 204.275 66.3923C204.526 66.3923 204.724 66.1907 204.724 65.9353C204.724 65.6933 204.526 65.4917 204.275 65.4917C204.037 65.4917 203.839 65.6933 203.839 65.9353Z" fill="white"/>
<path fill-rule="evenodd" clip-rule="evenodd" d="M204.275 66.7961C203.812 66.7961 203.442 66.4062 203.442 65.9357C203.442 65.4653 203.812 65.0889 204.275 65.0889C204.738 65.0889 205.121 65.4653 205.121 65.9357C205.121 66.4062 204.738 66.7961 204.275 66.7961ZM204.275 65.8954C204.249 65.8954 204.235 65.9089 204.235 65.9357C204.235 65.9626 204.249 65.9895 204.275 65.9895C204.301 65.9895 204.328 65.9626 204.328 65.9357C204.328 65.9089 204.301 65.8954 204.275 65.8954Z" fill="#040D43"/>
<path d="M202.939 68.7991C202.939 69.0545 203.138 69.2561 203.389 69.2561C203.64 69.2561 203.838 69.0545 203.838 68.7991C203.838 68.5571 203.64 68.3555 203.389 68.3555C203.138 68.3555 202.939 68.5571 202.939 68.7991Z" fill="white"/>
<path fill-rule="evenodd" clip-rule="evenodd" d="M203.389 69.6593C202.926 69.6593 202.543 69.2695 202.543 68.799C202.543 68.3285 202.926 67.9521 203.389 67.9521C203.851 67.9521 204.235 68.3285 204.235 68.799C204.235 69.2695 203.851 69.6593 203.389 69.6593ZM203.389 68.7587C203.362 68.7587 203.336 68.7721 203.336 68.799C203.336 68.8259 203.362 68.8528 203.389 68.8528C203.415 68.8528 203.442 68.8259 203.442 68.799C203.442 68.7721 203.415 68.7587 203.389 68.7587Z" fill="#040D43"/>
<path d="M195.142 85.3065C184.318 87.2019 172.648 84.5671 174.3 92.3907C177.895 109.328 212.984 98.1172 217.372 83.6799C221.721 69.3368 205.953 83.4111 195.142 85.3065Z" fill="#C4C8E0"/>
<path d="M136.619 72.7376C138.905 71.2858 150.113 78.3565 150.113 78.3565L146.082 83.0076L142.54 78.1683C142.54 78.1683 135.509 73.45 136.619 72.7376Z" fill="white"/>
<path fill-rule="evenodd" clip-rule="evenodd" d="M146.056 83.6396L142.263 78.4642C141.973 78.276 140.611 77.3485 139.276 76.3134C136.475 74.1626 136.104 73.4098 136.104 72.9528C136.104 72.7243 136.223 72.5226 136.408 72.4016C136.805 72.1462 138.034 71.3666 144.404 74.6465C147.471 76.2193 150.299 77.9937 150.325 78.0072L150.722 78.2626L146.056 83.6396ZM136.924 73.0334C137.175 73.6383 139.382 75.5606 142.766 77.8324L142.818 77.8727L146.109 82.3625L149.506 78.4373C148.634 77.8996 146.413 76.5688 144.048 75.359C139.012 72.778 137.413 72.8184 136.924 73.0334Z" fill="#040D43"/>
<path d="M161.546 86.9191C160.185 78.6251 143.691 75.7619 134.796 75.7753C128.36 75.7753 124.976 76.3399 124.857 78.0471C124.738 79.8484 132.919 79.6199 132.919 79.6199C132.919 79.6199 123.522 80.3054 123.522 82.2143C123.522 84.271 132.853 82.9939 132.853 82.9939C132.853 82.9939 123.417 83.6123 123.774 85.4539C124.025 86.7578 133.422 86.8654 133.422 86.8654C133.422 86.8654 126.562 88.1021 126.734 89.285C126.919 90.5486 136.303 90.2663 141.576 90.0647C145.396 89.9302 162.035 89.8227 161.546 86.9191Z" fill="white"/>
<path fill-rule="evenodd" clip-rule="evenodd" d="M134.082 90.6297C127.235 90.6297 126.442 90.0247 126.337 89.3526C126.231 88.573 127.262 87.9546 129.905 87.2421C130.02 87.2153 130.13 87.1884 130.236 87.1615C129.733 87.1346 129.191 87.0943 128.65 87.054C124.209 86.691 123.495 86.113 123.376 85.5349C123.337 85.3468 123.35 85.051 123.574 84.7418C123.892 84.3251 124.645 83.9756 125.597 83.6933C124.671 83.5858 123.905 83.3842 123.508 83.0212C123.257 82.8061 123.125 82.5238 123.125 82.2147C123.125 80.8839 125.702 80.2386 128.002 79.8353C126.575 79.6606 125.279 79.3514 124.764 78.8003C124.486 78.518 124.447 78.2222 124.46 78.0206C124.592 76.1252 127.5 75.3724 134.795 75.3724C134.813 75.3724 134.826 75.3724 134.835 75.3724C139.024 75.3724 145.474 76.0177 151.118 77.8458C157.567 79.9294 161.308 83.0481 161.942 86.8523C161.995 87.1884 161.902 87.511 161.664 87.8067C160.118 89.729 151.422 90.2129 143.122 90.428C142.5 90.4415 141.985 90.4549 141.588 90.4683C138.509 90.5893 136.038 90.6297 134.082 90.6297ZM127.156 89.2182C127.367 89.3661 128.306 89.7559 132.614 89.8231C135.43 89.8769 138.72 89.7693 141.562 89.6618C141.959 89.6483 142.474 89.6349 143.095 89.6215C145.58 89.5543 149.743 89.4467 153.457 89.0972C159.232 88.5595 160.7 87.7395 161.056 87.2959C161.162 87.148 161.175 87.054 161.162 86.9867C160.435 82.5776 155.162 80.0101 150.88 78.6121C145.316 76.8108 138.958 76.179 134.835 76.179C134.826 76.179 134.813 76.179 134.795 76.179C130.751 76.179 125.372 76.3806 125.253 78.0744C125.253 78.1012 125.253 78.155 125.332 78.2491C126.125 79.096 130.394 79.2976 132.905 79.217L132.945 80.0235C132.918 80.0235 130.579 80.1983 128.279 80.6016C123.971 81.3543 123.918 82.1743 123.918 82.2147C123.918 82.2684 123.931 82.3356 124.024 82.4163C124.698 83.0212 127.222 83.0615 129.68 82.9137C131.214 82.712 132.509 82.6179 132.826 82.6045L132.905 83.3976C132.588 83.4379 131.28 83.6127 129.733 83.7202C127.235 84.0428 124.711 84.5671 124.209 85.2392C124.156 85.293 124.156 85.3333 124.156 85.3602C124.513 85.8441 128.134 86.3953 133.421 86.4625L133.487 87.269C133.474 87.269 131.927 87.5513 130.341 87.968C127.843 88.6133 127.275 89.0703 127.156 89.2182Z" fill="#040D43"/>
<path d="M214.253 60.9083C214.253 60.9083 199.728 70.4928 180.577 75.0095C164.294 78.854 148.104 76.3 148.104 76.3C141.932 78.0744 144.35 92.431 149.426 92.431C149.426 92.431 172.964 93.7752 185.123 91.0061C205.49 86.3549 222.42 79.4052 222.42 79.4052L214.253 60.9083Z" fill="white"/>
<path d="M212.508 61.8492C212.508 61.8492 199.728 70.4927 180.577 75.0094C164.294 78.854 148.104 76.2999 148.104 76.2999C141.932 78.0743 144.35 92.4309 149.426 92.4309C149.426 92.4309 172.964 93.7752 185.123 91.006C205.49 86.3549 219.169 80.5208 219.169 80.5208" fill="white"/>
<path d="M162.299 93.1564C155.281 93.1564 149.717 92.8607 149.413 92.8338C148.118 92.8338 146.902 92.0138 145.924 90.4545C145.065 89.0968 144.457 87.2686 144.179 85.306C143.637 81.327 144.602 76.891 147.986 75.9097L148.078 75.8828L148.158 75.8963C148.316 75.9232 164.48 78.3966 180.485 74.6192C199.345 70.1698 212.165 61.6069 212.284 61.5128L212.72 62.1849C212.601 62.279 199.662 70.9225 180.67 75.3989C165.128 79.0687 149.453 76.9045 148.131 76.7028C145.263 77.6035 144.47 81.5959 144.972 85.1985C145.435 88.586 147.113 92.0273 149.426 92.0273H149.453C149.691 92.0407 173.071 93.3446 185.045 90.6024C201.116 86.9326 214.293 82.1605 219.011 80.1441L219.315 80.8834C214.584 82.9133 201.354 87.7122 185.217 91.3955C179.018 92.8069 169.819 93.1564 162.299 93.1564Z" fill="#040D43"/>
</svg>
