<svg width="164" height="36" viewBox="0 0 164 36" fill="none" xmlns="http://www.w3.org/2000/svg">
<path d="M0.499512 23.7446L12.1075 18.5781L18.7889 22.4529L20.1387 35.1651L11.9051 35.0971L13.1199 26.2598L11.7026 25.444L4.75129 30.8824L0.499512 23.7446Z" fill="white"/>
<path d="M19.5317 21.9086L29.79 29.4544L33.8393 22.1806L25.6057 18.8496V17.2181L33.8393 13.8191L29.79 6.61328L19.5317 14.159V21.9086Z" fill="white"/>
<path d="M18.7889 13.5474L20.1387 0.835205L11.9051 0.971162L13.1199 9.80849L11.7026 10.6242L4.6838 5.18589L0.499512 12.2557L12.1075 17.4222L18.7889 13.5474Z" fill="white"/>
<path d="M61.3084 16.4766V28.3861H65.7394V13.2085H59.2863V16.4766H61.3084Z" fill="white"/>
<path d="M61.1697 11.076C61.576 11.5006 62.1946 11.7129 63.0255 11.7129C63.8564 11.7129 64.4656 11.5006 64.8532 11.076C65.2595 10.6327 65.4624 10.0787 65.4624 9.4142C65.4624 8.73093 65.2595 8.177 64.8532 7.75241C64.4656 7.30931 63.8564 7.08765 63.0255 7.08765C62.1946 7.08765 61.576 7.30931 61.1697 7.75241C60.7821 8.177 60.5881 8.73093 60.5881 9.4142C60.5881 10.0787 60.7821 10.6327 61.1697 11.076Z" fill="white"/>
<path d="M45.8818 28.0536C47.1373 28.626 48.6791 28.9124 50.5068 28.9124C52.2239 28.9124 53.701 28.6445 54.9382 28.1091C56.1754 27.5737 57.1263 26.8257 57.7908 25.8657C58.4741 24.887 58.8157 23.7515 58.8157 22.459C58.8157 21.2035 58.4928 20.1418 57.8466 19.2739C57.2186 18.3877 56.3418 17.6953 55.2152 17.1969C54.089 16.6797 52.7872 16.3566 51.31 16.2275L49.7593 16.089C48.8361 16.015 48.1711 15.7659 47.7648 15.3411C47.3589 14.9165 47.1555 14.4179 47.1555 13.8456C47.1555 13.4023 47.2666 12.9962 47.4878 12.6269C47.7095 12.2392 48.0417 11.9345 48.4851 11.7129C48.9467 11.4914 49.51 11.3806 50.1745 11.3806C50.8761 11.3806 51.4576 11.5097 51.9193 11.7684C52.0209 11.823 52.1173 11.8815 52.2083 11.9435L52.2301 11.9588C52.264 11.9823 52.2975 12.0066 52.3296 12.0311C52.6101 12.2454 52.8336 12.4994 52.9995 12.7931C53.2394 13.1994 53.3598 13.6516 53.3598 14.1503H57.7908C57.7908 12.8207 57.4862 11.6667 56.877 10.6882C56.2677 9.69116 55.3909 8.92494 54.246 8.38929C53.1194 7.83536 51.7623 7.5584 50.1745 7.5584C48.6603 7.5584 47.3496 7.81708 46.2417 8.33399C45.1338 8.83262 44.2659 9.55268 43.6384 10.4942C43.0287 11.4359 42.7241 12.5531 42.7241 13.8456C42.7241 15.6365 43.3244 17.0767 44.5246 18.1662C45.7248 19.2556 47.3313 19.8833 49.3436 20.0495L50.8671 20.188C52.1039 20.2988 52.9995 20.5481 53.5534 20.9357C54.1073 21.305 54.3843 21.8127 54.3843 22.459C54.3843 22.756 54.3357 23.0345 54.2384 23.2948C54.1662 23.4879 54.0672 23.671 53.9414 23.8438C53.6457 24.2316 53.2118 24.5362 52.6395 24.7579C52.0673 24.9793 51.3564 25.0901 50.5068 25.0901C49.5653 25.0901 48.7991 24.961 48.2081 24.7024C47.6172 24.4254 47.1743 24.0655 46.8786 23.6224C46.6016 23.179 46.4634 22.6992 46.4634 22.182H42.0596C42.0596 23.493 42.3825 24.6562 43.0287 25.6717C43.675 26.669 44.6263 27.4629 45.8818 28.0536Z" fill="white"/>
<path d="M75.6267 28.5799C74.0943 28.5799 72.8571 28.3952 71.9156 28.0259C70.9736 27.6381 70.2815 27.0013 69.8381 26.1151C69.4135 25.2101 69.2012 23.9917 69.2012 22.459V16.4489H66.9026V13.2085H69.2012V9.10958H73.3281V13.2085H77.7595V16.4489H73.3281V22.6253C73.3281 23.3454 73.5127 23.8993 73.882 24.2869C74.2696 24.6562 74.8141 24.8408 75.5161 24.8408H77.7595V28.5799H75.6267Z" fill="white"/>
<path fill-rule="evenodd" clip-rule="evenodd" d="M83.095 28.2476C84.0918 28.6907 85.2367 28.9124 86.5292 28.9124C87.8029 28.9124 88.9295 28.6907 89.9081 28.2476C90.8866 27.8045 91.6992 27.1859 92.3454 26.392C92.9917 25.5979 93.4256 24.6932 93.6469 23.6777H89.5758C89.3911 24.1393 89.0401 24.5271 88.5232 24.8408C88.0063 25.1548 87.3413 25.3118 86.5292 25.3118C86.0261 25.3118 85.5761 25.2523 85.18 25.1332C84.8785 25.0426 84.6083 24.9175 84.3688 24.7579C83.8148 24.3886 83.4085 23.8715 83.1503 23.2069C83.0785 23.0176 83.0169 22.8196 82.9652 22.6133C82.9126 22.4043 82.8702 22.1869 82.8381 21.9606H93.9238V20.4649C93.9238 19.0801 93.6286 17.8061 93.0376 16.6429C92.4467 15.461 91.5881 14.5102 90.462 13.7901C89.3541 13.0515 87.9876 12.6822 86.3628 12.6822C85.1256 12.6822 84.0178 12.9039 83.0392 13.347C82.0794 13.7716 81.2762 14.3532 80.63 15.0918C79.9837 15.8303 79.4851 16.6706 79.1341 17.6123C78.8018 18.5353 78.6359 19.5047 78.6359 20.5202V21.0742C78.6359 22.0529 78.8018 23.0129 79.1341 23.9546C79.4851 24.8779 79.9837 25.7179 80.63 26.475C81.2945 27.2135 82.116 27.8045 83.095 28.2476ZM82.9144 19.2219C82.9268 19.1633 82.9398 19.1055 82.954 19.0487C82.9924 18.8921 83.0366 18.742 83.087 18.5986C83.1155 18.517 83.1458 18.4374 83.1779 18.36C83.4549 17.6768 83.8612 17.1599 84.3964 16.8091C84.5967 16.6779 84.8134 16.5714 85.0467 16.4893C85.4383 16.3517 85.8771 16.2828 86.3628 16.2828C87.1201 16.2828 87.7476 16.4583 88.2463 16.8091C88.7632 17.1413 89.1512 17.6306 89.4094 18.2769C89.4304 18.329 89.4505 18.3821 89.4696 18.4359C89.5 18.5215 89.5285 18.6093 89.5548 18.6994C89.5941 18.8335 89.6284 18.9722 89.6583 19.1156C89.6802 19.2213 89.6993 19.3294 89.7158 19.4402H82.872C82.8849 19.3662 82.8992 19.2935 82.9144 19.2219Z" fill="white"/>
<path d="M95.7524 28.3861V13.2085H99.27V17.0312C99.3177 16.8039 99.3721 16.5859 99.4332 16.3767C99.485 16.2005 99.5412 16.0306 99.6023 15.8673C99.9903 14.8333 100.572 14.0579 101.347 13.5408C102.123 13.0054 103.073 12.7378 104.2 12.7378H104.394C105.539 12.7378 106.489 13.0054 107.247 13.5408C108.022 14.0579 108.604 14.8333 108.991 15.8673L109.022 15.9454L109.048 16.0168C109.065 15.9664 109.084 15.9166 109.102 15.8673C109.508 14.8333 110.099 14.0579 110.875 13.5408C111.65 13.0054 112.601 12.7378 113.727 12.7378H113.921C115.066 12.7378 116.026 13.0054 116.802 13.5408C117.596 14.0579 118.196 14.8333 118.602 15.8673C119.008 16.9014 119.211 18.1939 119.211 19.7449V28.3861H114.78V19.4955C114.78 18.6646 114.558 17.9907 114.115 17.4738C113.69 16.9567 113.081 16.6982 112.287 16.6982C111.493 16.6982 110.866 16.9661 110.404 17.5015C109.942 18.0184 109.711 18.7108 109.711 19.5787V28.3861H105.252V19.4955C105.252 18.6646 105.031 17.9907 104.588 17.4738C104.163 16.9567 103.563 16.6982 102.788 16.6982C101.975 16.6982 101.338 16.9661 100.876 17.5015C100.415 18.0184 100.184 18.7108 100.184 19.5787V28.3861H95.7524Z" fill="white"/>
<path fill-rule="evenodd" clip-rule="evenodd" d="M131.049 25.4617V28.3861H134.566V19.0801C134.566 17.6768 134.289 16.5321 133.735 15.6457C133.181 14.741 132.369 14.0671 131.298 13.624C130.245 13.1809 128.944 12.9592 127.393 12.9592C127.057 12.9592 126.706 12.9628 126.34 12.9701C126.124 12.9746 125.902 12.9802 125.675 12.9869C125.066 13.0054 124.475 13.033 123.903 13.07L123.466 13.0995C123.241 13.1151 123.03 13.1305 122.832 13.1461C122.683 13.1577 122.541 13.1693 122.408 13.1809V16.9199C122.98 16.8829 123.617 16.8459 124.319 16.8091C124.515 16.7988 124.709 16.7892 124.902 16.7803C125.181 16.7674 125.456 16.7562 125.728 16.7464C125.943 16.7386 126.157 16.7317 126.368 16.7259C127.033 16.7074 127.568 16.6982 127.974 16.6982C128.787 16.6982 129.378 16.892 129.747 17.2798C130.116 17.6676 130.301 18.2492 130.301 19.0248V19.0801H127.559C126.211 19.0801 125.02 19.2556 123.986 19.6064C122.952 19.9386 122.149 20.4649 121.577 21.185C121.004 21.8868 120.718 22.7915 120.718 23.8993C120.718 24.9149 120.949 25.7919 121.41 26.5305C121.872 27.2506 122.509 27.8045 123.321 28.1921C124.152 28.5799 125.112 28.7739 126.202 28.7739C127.254 28.7739 128.14 28.5799 128.861 28.1921C129.599 27.8045 130.171 27.2506 130.578 26.5305C130.649 26.4092 130.716 26.2832 130.778 26.1525C130.866 25.9674 130.944 25.773 131.013 25.5691L131.049 25.4617ZM130.301 22.7638V21.5451H127.531C126.756 21.5451 126.156 21.7389 125.731 22.1267C125.325 22.496 125.121 23.0038 125.121 23.65C125.121 23.9542 125.172 24.2307 125.273 24.4798C125.375 24.7296 125.528 24.9514 125.731 25.1457C126.156 25.515 126.756 25.6996 127.531 25.6996C127.679 25.6996 127.821 25.6922 127.959 25.6778C128.072 25.6659 128.181 25.6492 128.287 25.6276C128.49 25.5863 128.681 25.5272 128.861 25.4503C129.267 25.2656 129.599 24.961 129.857 24.5362C130.116 24.1116 130.264 23.5207 130.301 22.7638Z" fill="white"/>
<path d="M137.218 28.3861V13.2085H140.735V18.2182C140.904 16.7881 141.329 15.635 142.01 14.7595C142.933 13.5963 144.262 13.0147 145.998 13.0147H146.579V16.8367H145.471C144.253 16.8367 143.311 17.169 142.646 17.8338C141.981 18.48 141.649 19.4217 141.649 20.6587V28.3861H137.218Z" fill="white"/>
<path d="M152.199 21.2958H153.667L158.458 28.3861H163.443L157.368 19.6784L162.363 13.2085H157.711L152.199 20.4252V8.16785H147.767V28.3861H152.199V21.2958Z" fill="white"/>
</svg>
