<svg width="215" height="32" viewBox="0 0 215 32" fill="none" xmlns="http://www.w3.org/2000/svg">
<path d="M40.3413 28.882V1.51001H45.3465L58.2113 20.7877V1.51001H63.2164V28.882H58.2113L45.3465 9.64339V28.882H40.3413Z" fill="white"/>
<path d="M75.8741 29.3512C73.919 29.3512 72.1854 28.9341 70.6735 28.0999C69.1615 27.2657 67.9754 26.0926 67.1151 24.5807C66.2548 23.0687 65.8247 21.3221 65.8247 19.3409C65.8247 17.3336 66.2418 15.5479 67.076 13.9838C67.9363 12.4197 69.1094 11.2075 70.5953 10.3472C72.1072 9.46091 73.8799 9.01775 75.9132 9.01775C77.8162 9.01775 79.4977 9.43484 80.9575 10.269C82.4173 11.1032 83.5513 12.2502 84.3594 13.7101C85.1936 15.1438 85.6107 16.7471 85.6107 18.5197C85.6107 18.8065 85.5977 19.1063 85.5716 19.4191C85.5716 19.7319 85.5586 20.0578 85.5325 20.3967H70.7908C70.895 21.9086 71.4164 23.0948 72.3549 23.955C73.3194 24.8153 74.4795 25.2454 75.835 25.2454C76.8517 25.2454 77.6989 25.0238 78.3767 24.5807C79.0806 24.1114 79.6019 23.5118 79.9408 22.7819H85.0242C84.6592 24.0071 84.0466 25.1281 83.1864 26.1448C82.3522 27.1354 81.3094 27.9174 80.0581 28.4909C78.8329 29.0644 77.4382 29.3512 75.8741 29.3512ZM75.9132 13.0844C74.688 13.0844 73.6062 13.4364 72.6677 14.1402C71.7292 14.818 71.1297 15.8607 70.869 17.2684H80.5274C80.4492 15.9911 79.9799 14.9744 79.1197 14.2184C78.2594 13.4624 77.1906 13.0844 75.9132 13.0844Z" fill="white"/>
<path d="M84.6909 28.882L91.7294 19.1845L84.6909 9.48698H90.048L94.9749 16.3691L99.8628 9.48698H105.259L98.1814 19.1845L105.259 28.882H99.8628L94.9749 21.9999L90.048 28.882H84.6909Z" fill="white"/>
<path d="M115.134 28.882C113.101 28.882 111.472 28.3867 110.246 27.3961C109.021 26.4055 108.409 24.6458 108.409 22.1172V13.671H105.085V9.48698H108.409L108.995 4.28631H113.414V9.48698H118.654V13.671H113.414V22.1563C113.414 23.0948 113.609 23.7465 114 24.1114C114.417 24.4503 115.121 24.6198 116.112 24.6198H118.536V28.882H115.134Z" fill="white"/>
<path d="M120.996 28.882V9.48698H125.414L125.844 12.1069C126.47 11.1684 127.291 10.4254 128.308 9.87801C129.351 9.3045 130.55 9.01775 131.905 9.01775C134.903 9.01775 137.028 10.1778 138.279 12.4979C138.983 11.4291 139.921 10.5819 141.095 9.95621C142.294 9.33057 143.597 9.01775 145.005 9.01775C147.533 9.01775 149.476 9.77373 150.831 11.2857C152.187 12.7977 152.864 15.0135 152.864 17.9332V28.882H147.859V18.4024C147.859 16.734 147.533 15.4567 146.882 14.5703C146.256 13.684 145.279 13.2408 143.949 13.2408C142.593 13.2408 141.499 13.7361 140.664 14.7268C139.856 15.7174 139.452 17.099 139.452 18.8717V28.882H134.447V18.4024C134.447 16.734 134.121 15.4567 133.469 14.5703C132.818 13.684 131.814 13.2408 130.459 13.2408C129.129 13.2408 128.047 13.7361 127.213 14.7268C126.405 15.7174 126.001 17.099 126.001 18.8717V28.882H120.996Z" fill="white"/>
<path d="M164.968 29.3512C163.091 29.3512 161.396 28.9211 159.884 28.0608C158.398 27.2005 157.212 26.0144 156.326 24.5025C155.466 22.9644 155.036 21.1917 155.036 19.1845C155.036 17.1772 155.479 15.4176 156.365 13.9056C157.251 12.3676 158.438 11.1684 159.923 10.3081C161.435 9.44788 163.13 9.01775 165.007 9.01775C166.858 9.01775 168.526 9.44788 170.012 10.3081C171.524 11.1684 172.71 12.3676 173.57 13.9056C174.457 15.4176 174.9 17.1772 174.9 19.1845C174.9 21.1917 174.457 22.9644 173.57 24.5025C172.71 26.0144 171.524 27.2005 170.012 28.0608C168.5 28.9211 166.819 29.3512 164.968 29.3512ZM164.968 25.0108C166.271 25.0108 167.405 24.5285 168.37 23.564C169.334 22.5734 169.816 21.1135 169.816 19.1845C169.816 17.2554 169.334 15.8086 168.37 14.8441C167.405 13.8535 166.284 13.3582 165.007 13.3582C163.677 13.3582 162.53 13.8535 161.566 14.8441C160.627 15.8086 160.158 17.2554 160.158 19.1845C160.158 21.1135 160.627 22.5734 161.566 23.564C162.53 24.5285 163.664 25.0108 164.968 25.0108Z" fill="white"/>
<path d="M181.705 28.882L174.588 9.48698H179.828L184.755 24.1505L189.682 9.48698H194.922L187.766 28.882H181.705Z" fill="white"/>
<path d="M204.593 29.3512C202.637 29.3512 200.904 28.9341 199.392 28.0999C197.88 27.2657 196.694 26.0926 195.834 24.5807C194.973 23.0687 194.543 21.3221 194.543 19.3409C194.543 17.3336 194.96 15.5479 195.794 13.9838C196.655 12.4197 197.828 11.2075 199.314 10.3472C200.826 9.46091 202.598 9.01775 204.632 9.01775C206.535 9.01775 208.216 9.43484 209.676 10.269C211.136 11.1032 212.27 12.2502 213.078 13.7101C213.912 15.1438 214.329 16.7471 214.329 18.5197C214.329 18.8065 214.316 19.1063 214.29 19.4191C214.29 19.7319 214.277 20.0578 214.251 20.3967H199.509C199.613 21.9086 200.135 23.0948 201.073 23.955C202.038 24.8153 203.198 25.2454 204.553 25.2454C205.57 25.2454 206.417 25.0238 207.095 24.5807C207.799 24.1114 208.32 23.5118 208.659 22.7819H213.743C213.378 24.0071 212.765 25.1281 211.905 26.1448C211.071 27.1354 210.028 27.9174 208.777 28.4909C207.551 29.0644 206.157 29.3512 204.593 29.3512ZM204.632 13.0844C203.406 13.0844 202.325 13.4364 201.386 14.1402C200.448 14.818 199.848 15.8607 199.587 17.2684H209.246C209.168 15.9911 208.698 14.9744 207.838 14.2184C206.978 13.4624 205.909 13.0844 204.632 13.0844Z" fill="white"/>
<path d="M15.6609 0.977872V13.3517C15.6609 14.764 14.516 15.9089 13.1037 15.9089L0.729885 15.9089L0.729885 10.7945H6.92317L0.416016 4.28735L4.03246 0.670898L10.5465 7.18496L10.5465 0.977872L15.6609 0.977872Z" fill="white"/>
<path d="M30.7668 16.0843H18.393C16.9807 16.0843 15.8358 17.2292 15.8358 18.6415V31.0154L20.9502 31.0154L20.9502 24.8215L27.4578 31.3291L31.0743 27.7127L24.5603 21.1987H30.7668V16.0843Z" fill="white"/>
</svg>
