<svg width="175" height="30" viewBox="0 0 175 30" fill="none" xmlns="http://www.w3.org/2000/svg">
<path fill-rule="evenodd" clip-rule="evenodd" d="M18.3861 1.45654C15.6029 1.45654 13.3466 3.71278 13.3466 6.49598C13.3466 9.27918 15.6029 11.5354 18.3861 11.5354C21.1693 11.5354 23.4255 9.27918 23.4255 6.49598C23.4255 3.71278 21.1693 1.45654 18.3861 1.45654ZM8.53284 11.2604C13.7786 11.2604 18.0311 15.513 18.0311 20.7587V28.5435H13.3067V20.7587C13.3067 20.2001 13.2107 19.6638 13.0344 19.1656L6.09479 26.1052L2.75409 22.7645L9.44635 16.0722C9.15068 16.0149 8.84526 15.9849 8.53284 15.9849H0.748047V11.2604H8.53284ZM28.3568 11.2604C23.1111 11.2604 18.8585 15.513 18.8585 20.7587V28.5435H23.583V20.7587C23.583 20.3211 23.6419 19.8972 23.7522 19.4946L31.0114 26.7539L34.3522 23.4132L27.0929 16.154C27.4955 16.0438 27.9193 15.9849 28.3568 15.9849H36.1416V11.2604H28.3568Z" fill="white"/>
<path d="M43.7012 28.8158V1.66009H51.392L59.6378 24.9307H60.2324V1.66009H64.6328V28.8158H57.1006L48.6566 5.50549H48.1016V28.8158H43.7012Z" fill="white"/>
<path d="M82.2617 25.2479L83.3717 25.1289L83.451 28.34C80.4381 28.9479 77.7688 29.2518 75.4431 29.2518C72.5095 29.2518 70.3952 28.4457 69.1001 26.8336C67.8316 25.2214 67.1973 22.6446 67.1973 19.1031C67.1973 12.0731 70.0648 8.55802 75.7999 8.55802C81.3499 8.55802 84.125 11.5841 84.125 17.6363L83.8475 20.7285H71.558C71.5845 22.3671 71.9412 23.5696 72.6284 24.3361C73.3155 25.1025 74.5973 25.4857 76.4738 25.4857C78.3502 25.4857 80.2796 25.4064 82.2617 25.2479ZM79.8831 17.3985C79.8831 15.4427 79.566 14.0817 78.9317 13.3152C78.3238 12.5224 77.2799 12.1259 75.7999 12.1259C74.3198 12.1259 73.2363 12.5356 72.5491 13.3549C71.8884 14.1742 71.5448 15.522 71.5184 17.3985H79.8831Z" fill="white"/>
<path d="M96.962 12.6809H91.4912V21.4025C91.4912 23.0146 91.6101 24.085 91.848 24.6136C92.0858 25.1421 92.6937 25.4064 93.6716 25.4064L96.9223 25.2875L97.1205 28.7365C95.3498 29.08 94.0019 29.2518 93.0769 29.2518C90.8305 29.2518 89.2844 28.7365 88.4386 27.7057C87.6193 26.675 87.2097 24.7325 87.2097 21.8782V12.6809H84.6725V8.9941H87.2097V3.24582H91.4912V8.9941H96.962V12.6809Z" fill="white"/>
<path d="M96.9777 8.9941H101.22L104.351 25.1289H105.144L108.91 9.39053H113.35L117.117 25.1289H117.909L121.002 8.9941H125.283L121.081 28.8158H114.223L111.13 15.2181L108.038 28.8158H101.18L96.9777 8.9941Z" fill="white"/>
<path d="M128.041 11.1348C129.416 9.41696 131.689 8.55802 134.86 8.55802C138.031 8.55802 140.291 9.41696 141.639 11.1348C143.013 12.8527 143.7 15.4295 143.7 18.8653C143.7 22.301 143.04 24.8911 141.718 26.6354C140.397 28.3797 138.111 29.2518 134.86 29.2518C131.609 29.2518 129.323 28.3797 128.002 26.6354C126.68 24.8911 126.02 22.301 126.02 18.8653C126.02 15.4295 126.694 12.8527 128.041 11.1348ZM131.292 24.0189C131.9 25.0761 133.089 25.6046 134.86 25.6046C136.631 25.6046 137.82 25.0761 138.428 24.0189C139.036 22.9618 139.34 21.2307 139.34 18.8256C139.34 16.4206 139.009 14.7159 138.349 13.7117C137.714 12.7074 136.551 12.2052 134.86 12.2052C133.169 12.2052 131.993 12.7074 131.332 13.7117C130.697 14.7159 130.38 16.4206 130.38 18.8256C130.38 21.2307 130.684 22.9618 131.292 24.0189Z" fill="white"/>
<path d="M146.011 28.8158V8.9941H150.292V11.3727C152.539 9.91911 154.785 8.98088 157.031 8.55802V12.8791C154.759 13.3284 152.816 13.9099 151.204 14.6234L150.332 14.9802V28.8158H146.011Z" fill="white"/>
<path d="M162.674 28.8158H158.353V0.748291H162.674V16.9624L165.132 16.7245L169.81 8.9941H174.646L168.937 18.2706L174.963 28.8158H170.087L165.251 20.451L162.674 20.7285V28.8158Z" fill="white"/>
</svg>
