<svg width="215" height="32" viewBox="0 0 215 32" fill="none" xmlns="http://www.w3.org/2000/svg">
<path d="M40.3418 28.882V1.51001H45.347L58.2118 20.7877V1.51001H63.2169V28.882H58.2118L45.347 9.64339V28.882H40.3418Z" fill="#0A165E"/>
<path d="M75.8746 29.3512C73.9195 29.3512 72.1859 28.9341 70.674 28.0999C69.162 27.2657 67.9759 26.0926 67.1156 24.5807C66.2553 23.0687 65.8252 21.3221 65.8252 19.3409C65.8252 17.3336 66.2423 15.5479 67.0765 13.9838C67.9368 12.4197 69.1098 11.2075 70.5957 10.3472C72.1077 9.46091 73.8804 9.01775 75.9137 9.01775C77.8167 9.01775 79.4981 9.43484 80.958 10.269C82.4178 11.1032 83.5518 12.2502 84.3599 13.7101C85.1941 15.1438 85.6112 16.7471 85.6112 18.5197C85.6112 18.8065 85.5982 19.1063 85.5721 19.4191C85.5721 19.7319 85.5591 20.0578 85.533 20.3967H70.7913C70.8955 21.9086 71.4169 23.0948 72.3554 23.955C73.3199 24.8153 74.48 25.2454 75.8355 25.2454C76.8522 25.2454 77.6994 25.0238 78.3772 24.5807C79.0811 24.1114 79.6024 23.5118 79.9413 22.7819H85.0247C84.6597 24.0071 84.0471 25.1281 83.1868 26.1448C82.3527 27.1354 81.3099 27.9174 80.0586 28.4909C78.8334 29.0644 77.4387 29.3512 75.8746 29.3512ZM75.9137 13.0844C74.6885 13.0844 73.6067 13.4364 72.6682 14.1402C71.7297 14.818 71.1302 15.8607 70.8695 17.2684H80.5279C80.4496 15.9911 79.9804 14.9744 79.1202 14.2184C78.2599 13.4624 77.1911 13.0844 75.9137 13.0844Z" fill="#0A165E"/>
<path d="M84.6914 28.882L91.7299 19.1845L84.6914 9.48698H90.0485L94.9754 16.3691L99.8633 9.48698H105.259L98.1818 19.1845L105.259 28.882H99.8633L94.9754 21.9999L90.0485 28.882H84.6914Z" fill="#0A165E"/>
<path d="M115.135 28.882C113.101 28.882 111.472 28.3867 110.247 27.3961C109.022 26.4055 108.409 24.6458 108.409 22.1172V13.671H105.085V9.48698H108.409L108.996 4.28631H113.414V9.48698H118.654V13.671H113.414V22.1563C113.414 23.0948 113.61 23.7465 114.001 24.1114C114.418 24.4503 115.122 24.6198 116.112 24.6198H118.537V28.882H115.135Z" fill="#0A165E"/>
<path d="M120.996 28.882V9.48698H125.415L125.845 12.1069C126.471 11.1684 127.292 10.4254 128.308 9.87801C129.351 9.3045 130.55 9.01775 131.906 9.01775C134.904 9.01775 137.028 10.1778 138.28 12.4979C138.983 11.4291 139.922 10.5819 141.095 9.95621C142.294 9.33057 143.598 9.01775 145.005 9.01775C147.534 9.01775 149.476 9.77373 150.832 11.2857C152.187 12.7977 152.865 15.0135 152.865 17.9332V28.882H147.86V18.4024C147.86 16.734 147.534 15.4567 146.882 14.5703C146.257 13.684 145.279 13.2408 143.95 13.2408C142.594 13.2408 141.499 13.7361 140.665 14.7268C139.857 15.7174 139.453 17.099 139.453 18.8717V28.882H134.448V18.4024C134.448 16.734 134.122 15.4567 133.47 14.5703C132.818 13.684 131.815 13.2408 130.459 13.2408C129.13 13.2408 128.048 13.7361 127.214 14.7268C126.405 15.7174 126.001 17.099 126.001 18.8717V28.882H120.996Z" fill="#0A165E"/>
<path d="M164.968 29.3512C163.091 29.3512 161.397 28.9211 159.885 28.0608C158.399 27.2005 157.213 26.0144 156.326 24.5025C155.466 22.9644 155.036 21.1917 155.036 19.1845C155.036 17.1772 155.479 15.4176 156.366 13.9056C157.252 12.3676 158.438 11.1684 159.924 10.3081C161.436 9.44788 163.13 9.01775 165.007 9.01775C166.858 9.01775 168.527 9.44788 170.012 10.3081C171.524 11.1684 172.711 12.3676 173.571 13.9056C174.457 15.4176 174.9 17.1772 174.9 19.1845C174.9 21.1917 174.457 22.9644 173.571 24.5025C172.711 26.0144 171.524 27.2005 170.012 28.0608C168.5 28.9211 166.819 29.3512 164.968 29.3512ZM164.968 25.0108C166.272 25.0108 167.406 24.5285 168.37 23.564C169.335 22.5734 169.817 21.1135 169.817 19.1845C169.817 17.2554 169.335 15.8086 168.37 14.8441C167.406 13.8535 166.285 13.3582 165.007 13.3582C163.678 13.3582 162.531 13.8535 161.566 14.8441C160.628 15.8086 160.159 17.2554 160.159 19.1845C160.159 21.1135 160.628 22.5734 161.566 23.564C162.531 24.5285 163.665 25.0108 164.968 25.0108Z" fill="#0A165E"/>
<path d="M181.705 28.882L174.589 9.48698H179.828L184.755 24.1505L189.682 9.48698H194.922L187.766 28.882H181.705Z" fill="#0A165E"/>
<path d="M204.593 29.3512C202.638 29.3512 200.904 28.9341 199.392 28.0999C197.88 27.2657 196.694 26.0926 195.834 24.5807C194.974 23.0687 194.544 21.3221 194.544 19.3409C194.544 17.3336 194.961 15.5479 195.795 13.9838C196.655 12.4197 197.828 11.2075 199.314 10.3472C200.826 9.46091 202.599 9.01775 204.632 9.01775C206.535 9.01775 208.217 9.43484 209.676 10.269C211.136 11.1032 212.27 12.2502 213.078 13.7101C213.913 15.1438 214.33 16.7471 214.33 18.5197C214.33 18.8065 214.317 19.1063 214.291 19.4191C214.291 19.7319 214.278 20.0578 214.251 20.3967H199.51C199.614 21.9086 200.135 23.0948 201.074 23.955C202.038 24.8153 203.198 25.2454 204.554 25.2454C205.571 25.2454 206.418 25.0238 207.096 24.5807C207.799 24.1114 208.321 23.5118 208.66 22.7819H213.743C213.378 24.0071 212.766 25.1281 211.905 26.1448C211.071 27.1354 210.028 27.9174 208.777 28.4909C207.552 29.0644 206.157 29.3512 204.593 29.3512ZM204.632 13.0844C203.407 13.0844 202.325 13.4364 201.387 14.1402C200.448 14.818 199.849 15.8607 199.588 17.2684H209.246C209.168 15.9911 208.699 14.9744 207.839 14.2184C206.978 13.4624 205.91 13.0844 204.632 13.0844Z" fill="#0A165E"/>
<path d="M15.6609 0.977872V13.3517C15.6609 14.764 14.516 15.9089 13.1037 15.9089L0.729885 15.9089L0.729885 10.7945H6.92317L0.416016 4.28735L4.03246 0.670898L10.5465 7.18496L10.5465 0.977872L15.6609 0.977872Z" fill="#0A165E"/>
<path d="M30.7668 16.0843H18.393C16.9807 16.0843 15.8358 17.2292 15.8358 18.6415V31.0154L20.9502 31.0154L20.9502 24.8215L27.4578 31.3291L31.0743 27.7127L24.5603 21.1987H30.7668V16.0843Z" fill="#0A165E"/>
</svg>
