<svg width="159" height="34" viewBox="0 0 159 34" fill="none" xmlns="http://www.w3.org/2000/svg">
<path fill-rule="evenodd" clip-rule="evenodd" d="M90.2271 31.883C88.5409 31.883 87.1322 31.4902 86.001 30.7047C85.8772 30.6188 85.7568 30.5294 85.6397 30.4367V31.4117H81.8691V2.68518H86.1738V14.9916C87.2298 14.3126 88.5076 13.9731 90.0072 13.9731C91.6306 13.9731 93.0445 14.3606 94.249 15.1357C95.4535 15.9107 96.3856 16.9738 97.0455 18.3249C97.7158 19.6655 98.051 21.1999 98.051 22.9281C98.051 24.6248 97.721 26.1487 97.0612 27.4998C96.4118 28.8509 95.5006 29.9192 94.3276 30.7047C93.1545 31.4902 91.7877 31.883 90.2271 31.883ZM86.0167 20.2259C85.7653 21.0009 85.6397 21.9016 85.6397 22.9281C85.6397 23.9545 85.7653 24.8552 86.0167 25.6302C86.2681 26.4053 86.6766 27.0075 87.2421 27.4369C87.8182 27.8664 88.5828 28.0811 89.5359 28.0811C90.4575 28.0811 91.2116 27.8506 91.7982 27.3898C92.3847 26.929 92.8194 26.311 93.1021 25.536C93.3849 24.7504 93.5263 23.8812 93.5263 22.9281C93.5263 21.9854 93.3797 21.1266 93.0864 20.3515C92.7932 19.566 92.3376 18.9428 91.7196 18.482C91.1121 18.0107 90.3319 17.775 89.3788 17.775C88.4885 17.775 87.7658 17.9897 87.2107 18.4192C86.6661 18.8486 86.2681 19.4508 86.0167 20.2259Z" fill="#0A165E"/>
<path d="M74.3119 18.7805C74.8461 19.3984 75.1131 20.2678 75.1131 21.3884V31.4117H79.3864V20.2573C79.3864 18.4034 78.8889 16.9057 77.8939 15.7641C76.9094 14.612 75.4483 14.0359 73.5107 14.0359C72.3795 14.0359 71.3479 14.2873 70.4157 14.79C69.5623 15.2458 68.866 15.8723 68.3269 16.6693C67.9249 15.946 67.3695 15.351 66.6609 14.8843C65.8125 14.3187 64.7233 14.0359 63.3931 14.0359C62.2305 14.0359 61.1779 14.2925 60.2353 14.8057C59.523 15.1979 58.9207 15.6971 58.4286 16.3034V14.4444H54.6581V31.4117H58.9628V21.1371C58.9628 20.163 59.2298 19.3723 59.764 18.7648C60.3086 18.1468 61.0261 17.8379 61.9163 17.8379C62.8485 17.8379 63.5764 18.1521 64.1001 18.7805C64.6343 19.3984 64.9013 20.2678 64.9013 21.3884V31.4117H69.1746V21.1371C69.1746 20.4877 69.295 19.9169 69.5359 19.4246C69.7873 18.9219 70.1329 18.5344 70.5728 18.262C71.0127 17.9793 71.5312 17.8379 72.1282 17.8379C73.0603 17.8379 73.7882 18.1521 74.3119 18.7805Z" fill="#0A165E"/>
<path d="M39.3485 31.2389C40.1864 31.6892 41.2704 31.9144 42.6005 31.9144C44.2658 31.9144 45.6431 31.5531 46.7324 30.8304C47.2493 30.4907 47.7049 30.1013 48.0992 29.6621V31.4117H51.8697V14.4444H47.565V23.0537C47.565 24.1011 47.4446 24.9494 47.2037 25.5988C46.9733 26.2377 46.6748 26.7247 46.3082 27.0599C45.9416 27.3846 45.5489 27.6045 45.1299 27.7197C44.711 27.8349 44.3182 27.8925 43.9516 27.8925C43.0404 27.8925 42.3335 27.6883 41.8307 27.2798C41.3385 26.8714 40.9823 26.3634 40.7624 25.7559C40.5425 25.1484 40.4115 24.5462 40.3696 23.9492C40.3277 23.3418 40.3068 22.8443 40.3068 22.4568V14.4444H35.9707V23.9649C35.9707 24.2477 35.9917 24.6981 36.0335 25.316C36.0754 25.934 36.1959 26.62 36.3949 27.3741C36.5939 28.1177 36.9238 28.8352 37.3846 29.5264C37.856 30.2177 38.5106 30.7885 39.3485 31.2389Z" fill="#0A165E"/>
<path d="M104.179 16.4553C104.005 16.6834 103.848 16.9232 103.707 17.1748V14.4444H99.9369V31.4117H104.242V22.7395C104.242 22.0902 104.331 21.5089 104.509 20.9957C104.687 20.472 104.949 20.0216 105.294 19.6446C105.64 19.257 106.064 18.9481 106.567 18.7177C107.07 18.4768 107.63 18.3354 108.248 18.2935C108.876 18.2411 109.426 18.2882 109.897 18.4349V14.4444C109.384 14.3816 108.871 14.3711 108.358 14.413C107.845 14.4444 107.347 14.5334 106.865 14.6801C106.383 14.8162 105.938 15.01 105.53 15.2613C104.996 15.5756 104.545 15.9736 104.179 16.4553Z" fill="#0A165E"/>
<path fill-rule="evenodd" clip-rule="evenodd" d="M118.895 31.883C117.156 31.883 115.622 31.5112 114.291 30.7676C112.972 30.0135 111.935 28.9818 111.181 27.6726C110.437 26.3529 110.065 24.8447 110.065 23.148C110.065 21.2942 110.432 19.6812 111.165 18.3092C111.898 16.9371 112.909 15.8741 114.197 15.12C115.485 14.3554 116.967 13.9731 118.643 13.9731C120.424 13.9731 121.937 14.392 123.184 15.2299C124.43 16.0678 125.352 17.2461 125.949 18.7648C126.546 20.2835 126.755 22.0692 126.577 24.122H114.663C114.797 25.1404 115.113 25.9678 115.611 26.6043C116.302 27.4631 117.313 27.8925 118.643 27.8925C119.481 27.8925 120.199 27.7093 120.796 27.3427C121.393 26.9761 121.848 26.4472 122.162 25.7559L126.436 26.9813C125.797 28.5314 124.786 29.7359 123.404 30.5947C122.031 31.4536 120.528 31.883 118.895 31.883ZM121.518 18.8276C121.883 19.3238 122.129 20.0307 122.253 20.9485H114.776C114.942 20.1649 115.221 19.5207 115.611 19.0162C116.302 18.1259 117.376 17.6808 118.832 17.6808C120.078 17.6808 120.974 18.0631 121.518 18.8276Z" fill="#0A165E"/>
<path fill-rule="evenodd" clip-rule="evenodd" d="M145.624 31.1917C146.473 31.6526 147.504 31.883 148.719 31.883C150.186 31.883 151.395 31.6316 152.348 31.1289C153.108 30.7242 153.826 30.1242 154.501 29.3289V31.4117H158.24V21.0428C158.24 20.2678 158.208 19.566 158.146 18.9376C158.083 18.3092 157.884 17.6808 157.549 17.0523C156.952 15.9212 156.072 15.1252 154.909 14.6643C153.747 14.2035 152.416 13.9731 150.919 13.9731C148.876 13.9731 147.263 14.413 146.08 15.2928C144.896 16.1726 144.09 17.3142 143.66 18.7177L147.525 19.9431C147.798 19.168 148.274 18.6286 148.955 18.3249C149.636 18.0212 150.29 17.8693 150.919 17.8693C152.05 17.8693 152.856 18.1049 153.338 18.5763C153.716 18.9464 153.946 19.4812 154.027 20.1807C153.304 20.2902 152.619 20.3943 151.971 20.4929C150.872 20.65 149.887 20.8176 149.018 20.9957C148.148 21.1737 147.4 21.378 146.771 21.6084C145.86 21.9435 145.132 22.3625 144.587 22.8652C144.053 23.3575 143.666 23.9283 143.425 24.5776C143.184 25.227 143.063 25.9444 143.063 26.73C143.063 27.6726 143.278 28.5367 143.708 29.3222C144.147 30.0972 144.786 30.7204 145.624 31.1917ZM151.61 28.1125C151.076 28.3848 150.416 28.521 149.63 28.521C149.138 28.521 148.714 28.4476 148.358 28.301C148.002 28.1544 147.724 27.9449 147.525 27.6726C147.337 27.3898 147.242 27.0547 147.242 26.6671C147.242 26.3843 147.3 26.1277 147.415 25.8973C147.541 25.6669 147.729 25.4574 147.981 25.2689C148.243 25.0699 148.583 24.8866 149.002 24.719C149.369 24.5829 149.793 24.4572 150.275 24.342C150.756 24.2268 151.39 24.1011 152.176 23.9649C152.68 23.8707 153.285 23.7635 153.988 23.6433C153.978 23.9421 153.961 24.2797 153.935 24.6562C153.904 25.2637 153.778 25.7978 153.558 26.2587C153.443 26.4995 153.223 26.798 152.898 27.1541C152.584 27.5103 152.155 27.8297 151.61 28.1125Z" fill="#0A165E"/>
<path d="M128.868 2.21387V31.4117H133.141V2.21387H128.868Z" fill="#0A165E"/>
<path d="M136.594 31.4117V2.21387H140.867V31.4117H136.594Z" fill="#0A165E"/>
<path fill-rule="evenodd" clip-rule="evenodd" d="M12.3885 14.5668H0.78418V19.6203C0.78418 27.1662 6.90136 33.2834 14.4473 33.2834C21.9932 33.2834 28.1104 27.1662 28.1104 19.6203V14.5668H16.1318L16.1318 6.5187C16.1318 3.31426 13.5341 0.716553 10.3296 0.716553C7.1252 0.716552 4.5275 3.31426 4.5275 6.51869L8.27081 6.51869C8.27081 5.38163 9.19258 4.45987 10.3296 4.45987C11.4667 4.45987 12.3885 5.38164 12.3885 6.51869L12.3885 14.5668ZM12.3884 18.3101L12.3884 25.4224L16.1318 25.4224L16.1318 18.3101H24.3671V19.6203C24.3671 25.0988 19.9258 29.5401 14.4473 29.5401C8.96874 29.5401 4.5275 25.0988 4.5275 19.6203V18.3101H12.3884Z" fill="#0A165E"/>
</svg>
