<svg width="134" height="38" viewBox="0 0 134 38" fill="none" xmlns="http://www.w3.org/2000/svg">
<path d="M16.7643 37.231H4.89978L16.7643 19.2894H28.6289L16.7643 37.231Z" fill="#0A165E"/>
<path d="M12.4235 0.769165H24.5774L12.4235 19.2895H0.269531L12.4235 0.769165Z" fill="#0A165E"/>
<path d="M52.833 16.3772C52.833 17.4775 52.5678 18.509 52.0373 19.4717C51.5265 20.4345 50.7111 21.2105 49.5912 21.8C48.4909 22.3894 47.0959 22.6841 45.4062 22.6841H41.958V30.5825H37.832V10.0114H45.4062C46.9977 10.0114 48.3534 10.2864 49.4733 10.8366C50.5932 11.3867 51.4282 12.1431 51.9784 13.1059C52.5481 14.0686 52.833 15.1591 52.833 16.3772ZM45.2294 19.3538C46.3689 19.3538 47.2138 19.0984 47.7639 18.5876C48.3141 18.0571 48.5891 17.3203 48.5891 16.3772C48.5891 14.3731 47.4692 13.3711 45.2294 13.3711H41.958V19.3538H45.2294Z" fill="#0A165E"/>
<path d="M58.7096 16.7898C59.2401 15.9253 59.9278 15.2475 60.7726 14.7563C61.6371 14.2651 62.6195 14.0195 63.7198 14.0195V18.3518H62.6293C61.3326 18.3518 60.3502 18.6563 59.6822 19.2654C59.0338 19.8745 58.7096 20.9355 58.7096 22.4483V30.5825H54.5836V14.2553H58.7096V16.7898Z" fill="#0A165E"/>
<path d="M72.57 30.8477C70.9982 30.8477 69.5835 30.5039 68.3261 29.8162C67.0686 29.1089 66.0764 28.1167 65.3495 26.8396C64.6421 25.5625 64.2885 24.0889 64.2885 22.4189C64.2885 20.7488 64.652 19.2752 65.3789 17.9981C66.1255 16.721 67.1374 15.7387 68.4145 15.051C69.6916 14.3437 71.1161 13.99 72.6879 13.99C74.2597 13.99 75.6841 14.3437 76.9612 15.051C78.2383 15.7387 79.2404 16.721 79.9673 17.9981C80.7139 19.2752 81.0872 20.7488 81.0872 22.4189C81.0872 24.0889 80.7041 25.5625 79.9379 26.8396C79.1912 28.1167 78.1696 29.1089 76.8728 29.8162C75.5957 30.5039 74.1614 30.8477 72.57 30.8477ZM72.57 27.2522C73.3166 27.2522 74.0141 27.0754 74.6625 26.7217C75.3305 26.3484 75.861 25.7983 76.2539 25.0713C76.6469 24.3443 76.8433 23.4602 76.8433 22.4189C76.8433 20.8667 76.4307 19.678 75.6055 18.8528C74.8 18.008 73.8078 17.5855 72.6289 17.5855C71.4501 17.5855 70.4579 18.008 69.6523 18.8528C68.8664 19.678 68.4734 20.8667 68.4734 22.4189C68.4734 23.971 68.8566 25.1695 69.6228 26.0144C70.4087 26.8396 71.3911 27.2522 72.57 27.2522Z" fill="#0A165E"/>
<path d="M87.061 27.3111H91.4918V30.5825H82.935V7.47681H87.061V27.3111Z" fill="#0A165E"/>
<path d="M94.6925 12.3101C93.9655 12.3101 93.3565 12.0842 92.8653 11.6323C92.3937 11.1607 92.1579 10.5811 92.1579 9.89347C92.1579 9.2058 92.3937 8.63602 92.8653 8.18412C93.3565 7.71258 93.9655 7.47681 94.6925 7.47681C95.4195 7.47681 96.0187 7.71258 96.4903 8.18412C96.9815 8.63602 97.2271 9.2058 97.2271 9.89347C97.2271 10.5811 96.9815 11.1607 96.4903 11.6323C96.0187 12.0842 95.4195 12.3101 94.6925 12.3101ZM96.726 14.2553V30.5825H92.6V14.2553H96.726Z" fill="#0A165E"/>
<path d="M108.671 14.0195C110.617 14.0195 112.188 14.6384 113.387 15.8762C114.585 17.0943 115.185 18.8037 115.185 21.0042V30.5825H111.059V21.5642C111.059 20.2674 110.734 19.2752 110.086 18.5876C109.438 17.8803 108.554 17.5266 107.434 17.5266C106.294 17.5266 105.39 17.8803 104.722 18.5876C104.074 19.2752 103.75 20.2674 103.75 21.5642V30.5825H99.6237V14.2553H103.75V16.2888C104.3 15.5815 104.997 15.0313 105.842 14.6384C106.707 14.2258 107.65 14.0195 108.671 14.0195Z" fill="#0A165E"/>
<path d="M133.107 22.0652C133.107 22.6546 133.068 23.1851 132.989 23.6567H121.053C121.152 24.8355 121.564 25.759 122.291 26.427C123.018 27.095 123.912 27.429 124.973 27.429C126.506 27.429 127.596 26.7708 128.244 25.4544H132.695C132.223 27.0263 131.319 28.323 129.983 29.3447C128.647 30.3467 127.007 30.8477 125.062 30.8477C123.49 30.8477 122.075 30.5039 120.818 29.8162C119.58 29.1089 118.607 28.1167 117.9 26.8396C117.212 25.5625 116.868 24.0889 116.868 22.4189C116.868 20.7292 117.212 19.2458 117.9 17.9687C118.588 16.6916 119.55 15.7092 120.788 15.0215C122.026 14.3338 123.45 13.99 125.062 13.99C126.614 13.99 127.999 14.324 129.217 14.992C130.455 15.6601 131.408 16.613 132.076 17.8508C132.763 19.0689 133.107 20.4738 133.107 22.0652ZM128.834 20.8863C128.814 19.8254 128.431 18.9805 127.684 18.3518C126.938 17.7034 126.024 17.3792 124.944 17.3792C123.922 17.3792 123.057 17.6936 122.35 18.3223C121.662 18.9314 121.24 19.7861 121.083 20.8863H128.834Z" fill="#0A165E"/>
</svg>
